RecursiveMonoVar-StrictSemiBoldItalic.ufo
<glyph name="exclam" format="1">
  <advance width="600"/>
  <unicode hex="0021"/>
  <outline>
    <contour>
      <point x="345" y="273" type="line"/>
      <point x="373" y="349"/>
      <point x="401" y="426"/>
      <point x="430" y="502" type="curve"/>
      <point x="476" y="689" type="line" smooth="yes"/>
      <point x="478" y="696"/>
      <point x="474" y="700"/>
      <point x="468" y="700" type="curve" smooth="yes"/>
      <point x="414" y="700"/>
      <point x="371" y="700"/>
      <point x="337" y="700" type="curve"/>
      <point x="328" y="662"/>
      <point x="319" y="627"/>
      <point x="310" y="590" type="curve" smooth="yes"/>
      <point x="288" y="502" type="line"/>
      <point x="258" y="284"/>
      <point x="258" y="280"/>
      <point x="261" y="276" type="curve" smooth="yes"/>
      <point x="263" y="274"/>
      <point x="264" y="273"/>
      <point x="268" y="273" type="curve"/>
    </contour>
    <contour>
      <point x="318" y="-8" type="curve"/>
      <point x="358" y="153" type="line" smooth="yes"/>
      <point x="360" y="159"/>
      <point x="356" y="164"/>
      <point x="350" y="164" type="curve" smooth="yes"/>
      <point x="298" y="164"/>
      <point x="239" y="164"/>
      <point x="187" y="164" type="curve"/>
      <point x="147" y="3" type="line" smooth="yes"/>
      <point x="145" y="-3"/>
      <point x="149" y="-8"/>
      <point x="155" y="-8" type="curve" smooth="yes"/>
      <point x="207" y="-8"/>
      <point x="266" y="-8"/>
    </contour>
  </outline>
</glyph>
<glyph name="quotedbl" format="1">
  <advance width="600"/>
  <unicode hex="0022"/>
  <outline>
    <contour>
      <point x="276" y="450" type="curve"/>
      <point x="371" y="737" type="line" smooth="yes"/>
      <point x="374" y="746"/>
      <point x="370" y="750"/>
      <point x="364" y="750" type="curve" smooth="yes"/>
      <point x="322" y="750"/>
      <point x="276" y="750"/>
      <point x="225" y="750" type="curve"/>
      <point x="219" y="714"/>
      <point x="214" y="683"/>
      <point x="208" y="648" type="curve" smooth="yes"/>
      <point x="176" y="461" type="line" smooth="yes"/>
      <point x="175" y="454"/>
      <point x="179" y="450"/>
      <point x="185" y="450" type="curve" smooth="yes"/>
      <point x="216" y="450"/>
      <point x="245" y="450"/>
    </contour>
    <contour>
      <point x="517" y="450" type="curve"/>
      <point x="612" y="737" type="line" smooth="yes"/>
      <point x="615" y="746"/>
      <point x="611" y="750"/>
      <point x="605" y="750" type="curve" smooth="yes"/>
      <point x="563" y="750"/>
      <point x="517" y="750"/>
      <point x="466" y="750" type="curve"/>
      <point x="417" y="461" type="line"/>
      <point x="416" y="454"/>
      <point x="420" y="450"/>
      <point x="426" y="450" type="curve" smooth="yes"/>
      <point x="457" y="450"/>
      <point x="486" y="450"/>
    </contour>
  </outline>
</glyph>
<glyph name="dollar" format="1">
  <advance width="600"/>
  <unicode hex="0024"/>
  <outline>
    <contour>
      <point x="434" y="719" type="curve" smooth="yes"/>
      <point x="283" y="719"/>
      <point x="165" y="641"/>
      <point x="138" y="533" type="curve" smooth="yes"/>
      <point x="127" y="488" type="line" smooth="yes"/>
      <point x="122" y="471"/>
      <point x="165" y="455"/>
      <point x="228" y="455" type="curve"/>
      <point x="235" y="482"/>
      <point x="240" y="504"/>
      <point x="246" y="528" type="curve" smooth="yes"/>
      <point x="257" y="572"/>
      <point x="311" y="607"/>
      <point x="399" y="607" type="curve" smooth="yes"/>
      <point x="478" y="607"/>
      <point x="528" y="592"/>
      <point x="571" y="552" type="curve"/>
      <point x="588" y="552" type="line"/>
      <point x="594" y="575"/>
      <point x="604" y="616"/>
      <point x="616" y="662" type="curve" smooth="yes"/>
      <point x="616" y="665"/>
      <point x="616" y="668"/>
      <point x="615" y="670" type="curve" smooth="yes"/>
      <point x="590" y="702"/>
      <point x="519" y="719"/>
    </contour>
    <contour>
      <point x="410" y="390" type="curve" smooth="yes"/>
      <point x="322" y="419" type="line" smooth="yes"/>
      <point x="247" y="443"/>
      <point x="229" y="460"/>
      <point x="240" y="505" type="curve" smooth="yes"/>
      <point x="246" y="528"/>
      <point x="250" y="542"/>
      <point x="259" y="578" type="curve"/>
      <point x="198" y="573"/>
      <point x="145" y="560"/>
      <point x="127" y="488" type="curve" smooth="yes"/>
      <point x="111" y="425"/>
      <point x="133" y="358"/>
      <point x="254" y="318" type="curve" smooth="yes"/>
      <point x="342" y="289" type="line" smooth="yes"/>
      <point x="418" y="264"/>
      <point x="426" y="244"/>
      <point x="415" y="200" type="curve" smooth="yes"/>
      <point x="409" y="177"/>
      <point x="399" y="136"/>
      <point x="391" y="105" type="curve"/>
      <point x="438" y="105"/>
      <point x="514" y="166"/>
      <point x="526" y="216" type="curve"/>
      <point x="546" y="296"/>
      <point x="523" y="354"/>
    </contour>
    <contour>
      <point x="214" y="-19" type="curve" smooth="yes"/>
      <point x="370" y="-19"/>
      <point x="487" y="59"/>
      <point x="514" y="168" type="curve" smooth="yes"/>
      <point x="526" y="216" type="line" smooth="yes"/>
      <point x="531" y="233"/>
      <point x="489" y="251"/>
      <point x="428" y="251" type="curve"/>
      <point x="421" y="222"/>
      <point x="415" y="198"/>
      <point x="408" y="172" type="curve" smooth="yes"/>
      <point x="397" y="128"/>
      <point x="344" y="94"/>
      <point x="250" y="94" type="curve" smooth="yes"/>
      <point x="160" y="94"/>
      <point x="105" y="113"/>
      <point x="57" y="159" type="curve"/>
      <point x="39" y="159" type="line"/>
      <point x="34" y="136"/>
      <point x="23" y="95"/>
      <point x="12" y="49" type="curve" smooth="yes"/>
      <point x="11" y="47"/>
      <point x="11" y="43"/>
      <point x="13" y="41" type="curve" smooth="yes"/>
      <point x="41" y="3"/>
      <point x="120" y="-19"/>
    </contour>
    <contour>
      <point x="404" y="466" type="line"/>
      <point x="515" y="773" type="line" smooth="yes"/>
      <point x="518" y="782"/>
      <point x="514" y="786"/>
      <point x="508" y="786" type="curve" smooth="yes"/>
      <point x="471" y="786"/>
      <point x="456" y="786"/>
      <point x="419" y="786" type="curve"/>
      <point x="411" y="755"/>
      <point x="403" y="724"/>
      <point x="395" y="692" type="curve"/>
      <point x="346" y="494" type="line" smooth="yes"/>
      <point x="344" y="486"/>
      <point x="346" y="481"/>
      <point x="353" y="480" type="curve" smooth="yes"/>
    </contour>
    <contour>
      <point x="256" y="241" type="line"/>
      <point x="141" y="-72" type="line" smooth="yes"/>
      <point x="136" y="-82"/>
      <point x="141" y="-86"/>
      <point x="147" y="-86" type="curve" smooth="yes"/>
      <point x="184" y="-86"/>
      <point x="202" y="-86"/>
      <point x="239" y="-86" type="curve"/>
      <point x="246" y="-56"/>
      <point x="255" y="-23"/>
      <point x="262" y="7" type="curve"/>
      <point x="313" y="211" type="line" smooth="yes"/>
      <point x="316" y="221"/>
      <point x="314" y="225"/>
      <point x="306" y="227" type="curve" smooth="yes"/>
    </contour>
  </outline>
</glyph>
<glyph name="percent" format="1">
  <advance width="600"/>
  <unicode hex="0025"/>
  <outline>
    <contour>
      <point x="263" y="633" type="curve"/>
      <point x="309" y="633"/>
      <point x="326" y="606"/>
      <point x="314" y="558" type="curve" smooth="yes"/>
      <point x="303" y="517" type="line" smooth="yes"/>
      <point x="291" y="465"/>
      <point x="260" y="436"/>
      <point x="214" y="436" type="curve" smooth="yes"/>
      <point x="179" y="436"/>
      <point x="165" y="438"/>
      <point x="141" y="444" type="curve"/>
      <point x="119" y="396"/>
      <point x="145" y="359"/>
      <point x="193" y="359" type="curve" smooth="yes"/>
      <point x="287" y="359"/>
      <point x="363" y="420"/>
      <point x="386" y="513" type="curve" smooth="yes"/>
      <point x="398" y="559" type="line" smooth="yes"/>
      <point x="421" y="652"/>
      <point x="377" y="710"/>
      <point x="284" y="710" type="curve" smooth="yes"/>
      <point x="267" y="710"/>
      <point x="261" y="696"/>
    </contour>
    <contour>
      <point x="214" y="436" type="curve"/>
      <point x="168" y="436"/>
      <point x="152" y="464"/>
      <point x="164" y="511" type="curve" smooth="yes"/>
      <point x="174" y="552" type="line" smooth="yes"/>
      <point x="187" y="604"/>
      <point x="217" y="633"/>
      <point x="263" y="633" type="curve" smooth="yes"/>
      <point x="299" y="633"/>
      <point x="312" y="631"/>
      <point x="336" y="624" type="curve"/>
      <point x="358" y="673"/>
      <point x="332" y="710"/>
      <point x="284" y="710" type="curve" smooth="yes"/>
      <point x="190" y="710"/>
      <point x="114" y="649"/>
      <point x="91" y="556" type="curve" smooth="yes"/>
      <point x="79" y="509" type="line" smooth="yes"/>
      <point x="56" y="416"/>
      <point x="100" y="359"/>
      <point x="193" y="359" type="curve" smooth="yes"/>
      <point x="210" y="359"/>
      <point x="216" y="373"/>
    </contour>
    <contour>
      <point x="427" y="264" type="curve"/>
      <point x="473" y="264"/>
      <point x="490" y="237"/>
      <point x="478" y="189" type="curve" smooth="yes"/>
      <point x="467" y="148" type="line" smooth="yes"/>
      <point x="454" y="96"/>
      <point x="424" y="67"/>
      <point x="378" y="67" type="curve" smooth="yes"/>
      <point x="343" y="67"/>
      <point x="329" y="69"/>
      <point x="305" y="76" type="curve"/>
      <point x="283" y="27"/>
      <point x="309" y="-10"/>
      <point x="357" y="-10" type="curve" smooth="yes"/>
      <point x="451" y="-10"/>
      <point x="527" y="51"/>
      <point x="550" y="144" type="curve" smooth="yes"/>
      <point x="562" y="191" type="line" smooth="yes"/>
      <point x="585" y="284"/>
      <point x="541" y="341"/>
      <point x="448" y="341" type="curve" smooth="yes"/>
      <point x="431" y="341"/>
      <point x="425" y="327"/>
    </contour>
    <contour>
      <point x="378" y="67" type="curve"/>
      <point x="332" y="67"/>
      <point x="316" y="95"/>
      <point x="328" y="143" type="curve" smooth="yes"/>
      <point x="338" y="183" type="line" smooth="yes"/>
      <point x="351" y="235"/>
      <point x="381" y="264"/>
      <point x="427" y="264" type="curve" smooth="yes"/>
      <point x="463" y="264"/>
      <point x="476" y="262"/>
      <point x="500" y="256" type="curve"/>
      <point x="522" y="304"/>
      <point x="496" y="341"/>
      <point x="448" y="341" type="curve" smooth="yes"/>
      <point x="354" y="341"/>
      <point x="278" y="280"/>
      <point x="255" y="187" type="curve" smooth="yes"/>
      <point x="243" y="141" type="line" smooth="yes"/>
      <point x="220" y="48"/>
      <point x="264" y="-10"/>
      <point x="357" y="-10" type="curve" smooth="yes"/>
      <point x="374" y="-10"/>
      <point x="380" y="4"/>
    </contour>
    <contour>
      <point x="396" y="405" type="curve"/>
      <point x="416" y="405"/>
      <point x="438" y="405"/>
      <point x="468" y="405" type="curve" smooth="yes"/>
      <point x="473" y="405"/>
      <point x="475" y="406"/>
      <point x="480" y="412" type="curve" smooth="yes"/>
      <point x="548" y="507"/>
      <point x="617" y="602"/>
      <point x="686" y="697" type="curve" smooth="yes"/>
      <point x="692" y="705"/>
      <point x="690" y="710"/>
      <point x="682" y="710" type="curve" smooth="yes"/>
      <point x="642" y="710"/>
      <point x="616" y="710"/>
      <point x="571" y="710" type="curve"/>
      <point x="513" y="608"/>
      <point x="455" y="507"/>
    </contour>
    <contour>
      <point x="245" y="296" type="curve"/>
      <point x="225" y="296"/>
      <point x="203" y="296"/>
      <point x="174" y="296" type="curve" smooth="yes"/>
      <point x="169" y="296"/>
      <point x="166" y="295"/>
      <point x="162" y="289" type="curve" smooth="yes"/>
      <point x="93" y="194"/>
      <point x="24" y="99"/>
      <point x="-45" y="4" type="curve" smooth="yes"/>
      <point x="-51" y="-4"/>
      <point x="-48" y="-9"/>
      <point x="-40" y="-9" type="curve" smooth="yes"/>
      <point x="-1" y="-9"/>
      <point x="25" y="-9"/>
      <point x="70" y="-9" type="curve"/>
      <point x="129" y="93"/>
      <point x="187" y="194"/>
    </contour>
  </outline>
</glyph>
<glyph name="ampersand" format="1">
  <advance width="600"/>
  <unicode hex="0026"/>
  <outline>
    <contour>
      <point x="430" y="709" type="curve" smooth="yes"/>
      <point x="286" y="709"/>
      <point x="188" y="631"/>
      <point x="166" y="541" type="curve" smooth="yes"/>
      <point x="154" y="493"/>
      <point x="204" y="484"/>
      <point x="264" y="484" type="curve"/>
      <point x="268" y="498"/>
      <point x="272" y="515"/>
      <point x="276" y="532" type="curve" smooth="yes"/>
      <point x="285" y="566"/>
      <point x="324" y="597"/>
      <point x="394" y="597" type="curve" smooth="yes"/>
      <point x="453" y="597"/>
      <point x="488" y="588"/>
      <point x="530" y="574" type="curve"/>
      <point x="547" y="574" type="line"/>
      <point x="555" y="607"/>
      <point x="564" y="641"/>
      <point x="572" y="674" type="curve"/>
      <point x="573" y="679"/>
      <point x="573" y="681"/>
      <point x="571" y="684" type="curve" smooth="yes"/>
      <point x="563" y="694"/>
      <point x="512" y="709"/>
    </contour>
    <contour>
      <point x="292" y="450" type="curve" smooth="yes"/>
      <point x="272" y="493"/>
      <point x="270" y="508"/>
      <point x="276" y="532" type="curve" smooth="yes"/>
      <point x="281" y="553"/>
      <point x="290" y="580"/>
      <point x="308" y="605" type="curve"/>
      <point x="226" y="605"/>
      <point x="175" y="578"/>
      <point x="166" y="541" type="curve" smooth="yes"/>
      <point x="165" y="538" type="line" smooth="yes"/>
      <point x="151" y="483"/>
      <point x="159" y="451"/>
      <point x="202" y="359" type="curve" smooth="yes"/>
      <point x="253" y="254"/>
      <point x="324" y="105"/>
      <point x="343" y="64" type="curve" smooth="yes"/>
      <point x="369" y="11"/>
      <point x="397" y="-10"/>
      <point x="450" y="-10" type="curve" smooth="yes"/>
      <point x="498" y="-10" type="line" smooth="yes"/>
      <point x="506" y="-10"/>
      <point x="510" y="-6"/>
      <point x="511" y="1" type="curve" smooth="yes"/>
      <point x="524" y="51"/>
      <point x="527" y="65"/>
      <point x="537" y="106" type="curve"/>
      <point x="532" y="106" type="line"/>
      <point x="522" y="106"/>
      <point x="508" y="106"/>
      <point x="497" y="106" type="curve" smooth="yes"/>
      <point x="468" y="106"/>
      <point x="456" y="111"/>
      <point x="440" y="141" type="curve" smooth="yes"/>
      <point x="423" y="174"/>
      <point x="361" y="307"/>
    </contour>
    <contour>
      <point x="147" y="-9" type="curve" smooth="yes"/>
      <point x="234" y="-9"/>
      <point x="293" y="29"/>
      <point x="345" y="83" type="curve" smooth="yes"/>
      <point x="356" y="97"/>
      <point x="356" y="102"/>
      <point x="327" y="158" type="curve"/>
      <point x="272" y="108"/>
      <point x="236" y="92"/>
      <point x="190" y="92" type="curve" smooth="yes"/>
      <point x="135" y="92"/>
      <point x="116" y="121"/>
      <point x="130" y="176" type="curve" smooth="yes"/>
      <point x="144" y="233" type="line" smooth="yes"/>
      <point x="158" y="289"/>
      <point x="209" y="328"/>
      <point x="278" y="328" type="curve"/>
      <point x="273" y="364"/>
      <point x="257" y="389"/>
      <point x="229" y="388" type="curve" smooth="yes"/>
      <point x="143" y="385"/>
      <point x="51" y="323"/>
      <point x="28" y="231" type="curve" smooth="yes"/>
      <point x="11" y="160" type="line" smooth="yes"/>
      <point x="-16" y="52"/>
      <point x="33" y="-9"/>
    </contour>
    <contour>
      <point x="590" y="427" type="curve" smooth="yes"/>
      <point x="563" y="427"/>
      <point x="530" y="427"/>
      <point x="492" y="427" type="curve"/>
      <point x="485" y="399"/>
      <point x="478" y="374"/>
      <point x="470" y="342" type="curve" smooth="yes"/>
      <point x="454" y="276"/>
      <point x="431" y="241"/>
      <point x="388" y="204" type="curve" smooth="yes"/>
      <point x="376" y="193"/>
      <point x="376" y="188"/>
      <point x="401" y="144" type="curve"/>
      <point x="491" y="192"/>
      <point x="559" y="258"/>
      <point x="581" y="345" type="curve" smooth="yes"/>
      <point x="599" y="416" type="line" smooth="yes"/>
      <point x="600" y="423"/>
      <point x="598" y="427"/>
    </contour>
  </outline>
</glyph>
<glyph name="quotesingle" format="1">
  <advance width="600"/>
  <unicode hex="0027"/>
  <outline>
    <contour>
      <point x="400" y="450" type="curve"/>
      <point x="494" y="737" type="line" smooth="yes"/>
      <point x="498" y="746"/>
      <point x="494" y="750"/>
      <point x="488" y="750" type="curve" smooth="yes"/>
      <point x="444" y="750"/>
      <point x="396" y="750"/>
      <point x="343" y="750" type="curve"/>
      <point x="337" y="714"/>
      <point x="331" y="683"/>
      <point x="325" y="648" type="curve" smooth="yes"/>
      <point x="293" y="461" type="line" smooth="yes"/>
      <point x="293" y="454"/>
      <point x="297" y="450"/>
      <point x="303" y="450" type="curve" smooth="yes"/>
      <point x="336" y="450"/>
      <point x="367" y="450"/>
    </contour>
  </outline>
</glyph>
<glyph name="parenleft" format="1">
  <advance width="600"/>
  <unicode hex="0028"/>
  <outline>
    <contour>
      <point x="485" y="745" type="curve" smooth="yes"/>
      <point x="337" y="627"/>
      <point x="243" y="478"/>
      <point x="202" y="314" type="curve" smooth="yes"/>
      <point x="200" y="306" type="line" smooth="yes"/>
      <point x="160" y="144"/>
      <point x="180" y="-4"/>
      <point x="269" y="-121" type="curve" smooth="yes"/>
      <point x="273" y="-128"/>
      <point x="279" y="-129"/>
      <point x="287" y="-129" type="curve" smooth="yes"/>
      <point x="330" y="-129"/>
      <point x="363" y="-129"/>
      <point x="410" y="-129" type="curve"/>
      <point x="414" y="-112" type="line"/>
      <point x="315" y="10"/>
      <point x="282" y="145"/>
      <point x="323" y="306" type="curve" smooth="yes"/>
      <point x="325" y="314" type="line" smooth="yes"/>
      <point x="365" y="476"/>
      <point x="465" y="618"/>
      <point x="623" y="736" type="curve"/>
      <point x="627" y="753" type="line"/>
      <point x="582" y="753"/>
      <point x="550" y="753"/>
      <point x="507" y="753" type="curve" smooth="yes"/>
      <point x="500" y="753"/>
      <point x="494" y="752"/>
    </contour>
  </outline>
</glyph>
<glyph name="parenright" format="1">
  <advance width="600"/>
  <unicode hex="0029"/>
  <outline>
    <contour>
      <point x="137" y="-121" type="curve" smooth="yes"/>
      <point x="285" y="-3"/>
      <point x="379" y="146"/>
      <point x="420" y="310" type="curve" smooth="yes"/>
      <point x="422" y="318" type="line" smooth="yes"/>
      <point x="462" y="480"/>
      <point x="442" y="628"/>
      <point x="354" y="745" type="curve" smooth="yes"/>
      <point x="349" y="752"/>
      <point x="343" y="753"/>
      <point x="336" y="753" type="curve" smooth="yes"/>
      <point x="292" y="753"/>
      <point x="259" y="753"/>
      <point x="213" y="753" type="curve"/>
      <point x="208" y="736" type="line"/>
      <point x="307" y="614"/>
      <point x="340" y="479"/>
      <point x="300" y="318" type="curve" smooth="yes"/>
      <point x="298" y="310" type="line" smooth="yes"/>
      <point x="257" y="148"/>
      <point x="158" y="6"/>
      <point x="-1" y="-112" type="curve"/>
      <point x="-5" y="-129" type="line"/>
      <point x="41" y="-129"/>
      <point x="73" y="-129"/>
      <point x="115" y="-129" type="curve" smooth="yes"/>
      <point x="122" y="-129"/>
      <point x="129" y="-128"/>
    </contour>
  </outline>
</glyph>
<glyph name="asterisk" format="1">
  <advance width="600"/>
  <unicode hex="002A"/>
  <outline>
    <contour>
      <point x="316" y="568" type="curve"/>
      <point x="314" y="533"/>
      <point x="311" y="499"/>
      <point x="308" y="465" type="curve" smooth="yes"/>
      <point x="293" y="309" type="line"/>
      <point x="190" y="60" type="line" smooth="yes"/>
      <point x="188" y="54"/>
      <point x="190" y="50"/>
      <point x="197" y="50" type="curve"/>
      <point x="232" y="50"/>
      <point x="268" y="50"/>
      <point x="303" y="50" type="curve"/>
      <point x="306" y="85"/>
      <point x="309" y="119"/>
      <point x="311" y="153" type="curve" smooth="yes"/>
      <point x="326" y="309" type="line"/>
      <point x="429" y="558" type="line" smooth="yes"/>
      <point x="431" y="564"/>
      <point x="429" y="568"/>
      <point x="423" y="568" type="curve" smooth="yes"/>
      <point x="388" y="568"/>
      <point x="352" y="568"/>
    </contour>
    <contour>
      <point x="550" y="489" type="curve"/>
      <point x="306" y="323" type="line"/>
      <point x="47" y="235" type="line" smooth="yes"/>
      <point x="41" y="232"/>
      <point x="37" y="227"/>
      <point x="40" y="220" type="curve"/>
      <point x="49" y="189"/>
      <point x="60" y="160"/>
      <point x="70" y="129" type="curve"/>
      <point x="315" y="295" type="line"/>
      <point x="572" y="384" type="line" smooth="yes"/>
      <point x="579" y="386"/>
      <point x="582" y="392"/>
      <point x="580" y="398" type="curve" smooth="yes"/>
      <point x="570" y="428"/>
      <point x="559" y="458"/>
    </contour>
    <contour>
      <point x="543" y="231" type="curve"/>
      <point x="322" y="324" type="line"/>
      <point x="167" y="484" type="line" smooth="yes"/>
      <point x="163" y="487"/>
      <point x="158" y="486"/>
      <point x="152" y="480" type="curve"/>
      <point x="127" y="449"/>
      <point x="101" y="419"/>
      <point x="76" y="389" type="curve"/>
      <point x="298" y="295" type="line"/>
      <point x="453" y="136" type="line" smooth="yes"/>
      <point x="457" y="132"/>
      <point x="463" y="133"/>
      <point x="468" y="139" type="curve"/>
      <point x="493" y="170"/>
      <point x="518" y="200"/>
    </contour>
  </outline>
</glyph>
<glyph name="plus" format="1">
  <advance width="600"/>
  <unicode hex="002B"/>
  <outline>
    <contour>
      <point x="88" y="357" type="line"/>
      <point x="79" y="323"/>
      <point x="71" y="288"/>
      <point x="62" y="254" type="curve" smooth="yes"/>
      <point x="61" y="251"/>
      <point x="62" y="248"/>
      <point x="63" y="246" type="curve" smooth="yes"/>
      <point x="65" y="244"/>
      <point x="67" y="243"/>
      <point x="70" y="243" type="curve"/>
      <point x="528" y="243" type="line"/>
      <point x="537" y="277"/>
      <point x="545" y="312"/>
      <point x="554" y="346" type="curve" smooth="yes"/>
      <point x="556" y="352"/>
      <point x="552" y="357"/>
      <point x="546" y="357" type="curve"/>
    </contour>
    <contour>
      <point x="308" y="66" type="curve"/>
      <point x="422" y="523" type="line" smooth="yes"/>
      <point x="422" y="526"/>
      <point x="422" y="529"/>
      <point x="421" y="531" type="curve" smooth="yes"/>
      <point x="419" y="533"/>
      <point x="416" y="534"/>
      <point x="413" y="534" type="curve" smooth="yes"/>
      <point x="379" y="534"/>
      <point x="349" y="534"/>
      <point x="309" y="534" type="curve"/>
      <point x="303" y="510"/>
      <point x="294" y="475"/>
      <point x="284" y="435" type="curve" smooth="yes"/>
      <point x="195" y="77" type="line" smooth="yes"/>
      <point x="193" y="71"/>
      <point x="197" y="66"/>
      <point x="203" y="66" type="curve" smooth="yes"/>
      <point x="240" y="66"/>
      <point x="270" y="66"/>
    </contour>
  </outline>
</glyph>
<glyph name="comma" format="1">
  <advance width="600"/>
  <unicode hex="002C"/>
  <outline>
    <contour>
      <point x="183" y="-190" type="curve" smooth="yes"/>
      <point x="188" y="-190"/>
      <point x="191" y="-189"/>
      <point x="195" y="-183" type="curve"/>
      <point x="262" y="-79"/>
      <point x="336" y="37"/>
      <point x="394" y="125" type="curve"/>
      <point x="399" y="133"/>
      <point x="397" y="138"/>
      <point x="389" y="138" type="curve" smooth="yes"/>
      <point x="330" y="138"/>
      <point x="296" y="138"/>
      <point x="227" y="138" type="curve"/>
      <point x="176" y="29"/>
      <point x="125" y="-81"/>
      <point x="73" y="-190" type="curve"/>
      <point x="102" y="-190"/>
      <point x="135" y="-190"/>
    </contour>
  </outline>
</glyph>
<glyph name="hyphen" format="1">
  <advance width="600"/>
  <unicode hex="002D"/>
  <outline>
    <contour>
      <point x="137" y="355" type="line"/>
      <point x="129" y="321"/>
      <point x="121" y="290"/>
      <point x="112" y="255" type="curve" smooth="yes"/>
      <point x="112" y="252"/>
      <point x="112" y="249"/>
      <point x="113" y="247" type="curve" smooth="yes"/>
      <point x="115" y="245"/>
      <point x="118" y="244"/>
      <point x="121" y="244" type="curve"/>
      <point x="479" y="244" type="line"/>
      <point x="487" y="279"/>
      <point x="495" y="310"/>
      <point x="504" y="344" type="curve" smooth="yes"/>
      <point x="505" y="350"/>
      <point x="501" y="355"/>
      <point x="495" y="355" type="curve"/>
    </contour>
  </outline>
</glyph>
<glyph name="period" format="1">
  <advance width="600"/>
  <unicode hex="002E"/>
  <outline>
    <contour>
      <point x="318" y="-8" type="curve"/>
      <point x="358" y="153" type="line" smooth="yes"/>
      <point x="360" y="159"/>
      <point x="356" y="164"/>
      <point x="350" y="164" type="curve" smooth="yes"/>
      <point x="298" y="164"/>
      <point x="239" y="164"/>
      <point x="187" y="164" type="curve"/>
      <point x="147" y="3" type="line" smooth="yes"/>
      <point x="145" y="-3"/>
      <point x="149" y="-8"/>
      <point x="155" y="-8" type="curve" smooth="yes"/>
      <point x="207" y="-8"/>
      <point x="266" y="-8"/>
    </contour>
  </outline>
</glyph>
<glyph name="zero" format="1">
  <advance width="600"/>
  <unicode hex="0030"/>
  <outline>
    <contour>
      <point x="394" y="720" type="curve" smooth="yes"/>
      <point x="256" y="720"/>
      <point x="152" y="641"/>
      <point x="108" y="467" type="curve" smooth="yes"/>
      <point x="60" y="271" type="line" smooth="yes"/>
      <point x="15" y="89"/>
      <point x="106" y="-20"/>
      <point x="246" y="-20" type="curve"/>
      <point x="249" y="-20"/>
      <point x="258" y="-8"/>
      <point x="260" y="84" type="curve"/>
      <point x="183" y="84"/>
      <point x="142" y="137"/>
      <point x="175" y="267" type="curve" smooth="yes"/>
      <point x="222" y="459" type="line" smooth="yes"/>
      <point x="250" y="576"/>
      <point x="305" y="616"/>
      <point x="379" y="616" type="curve" smooth="yes"/>
      <point x="423" y="616"/>
      <point x="465" y="616"/>
      <point x="493" y="616" type="curve"/>
      <point x="508" y="677"/>
      <point x="470" y="720"/>
    </contour>
    <contour>
      <point x="246" y="-20" type="curve" smooth="yes"/>
      <point x="383" y="-20"/>
      <point x="487" y="57"/>
      <point x="530" y="231" type="curve" smooth="yes"/>
      <point x="580" y="429" type="line" smooth="yes"/>
      <point x="625" y="611"/>
      <point x="534" y="720"/>
      <point x="394" y="720" type="curve"/>
      <point x="391" y="720"/>
      <point x="381" y="708"/>
      <point x="379" y="616" type="curve"/>
      <point x="457" y="616"/>
      <point x="497" y="563"/>
      <point x="465" y="433" type="curve" smooth="yes"/>
      <point x="418" y="241" type="line" smooth="yes"/>
      <point x="389" y="124"/>
      <point x="334" y="84"/>
      <point x="251" y="84" type="curve" smooth="yes"/>
      <point x="200" y="84"/>
      <point x="174" y="84"/>
      <point x="147" y="84" type="curve"/>
      <point x="132" y="23"/>
      <point x="170" y="-20"/>
    </contour>
    <contour>
      <point x="123" y="155" type="curve"/>
      <point x="245" y="250"/>
      <point x="368" y="346"/>
      <point x="489" y="441" type="curve"/>
      <point x="518" y="462"/>
      <point x="522" y="485"/>
      <point x="511" y="542" type="curve"/>
      <point x="383" y="444"/>
      <point x="255" y="346"/>
      <point x="127" y="247" type="curve" smooth="yes"/>
      <point x="105" y="231"/>
      <point x="107" y="206"/>
    </contour>
  </outline>
</glyph>
<glyph name="one" format="1">
  <advance width="600"/>
  <unicode hex="0031"/>
  <outline>
    <contour>
      <point x="333" y="30" type="curve"/>
      <point x="389" y="253"/>
      <point x="445" y="477"/>
      <point x="501" y="699" type="curve" smooth="yes"/>
      <point x="502" y="705"/>
      <point x="499" y="710"/>
      <point x="493" y="710" type="curve" smooth="yes"/>
      <point x="388" y="710" type="line"/>
      <point x="335" y="500"/>
      <point x="281" y="284"/>
      <point x="228" y="73" type="curve" smooth="yes"/>
      <point x="220" y="39"/>
      <point x="267" y="30"/>
    </contour>
    <contour>
      <point x="42" y="105" type="line"/>
      <point x="35" y="74"/>
      <point x="28" y="47"/>
      <point x="19" y="11" type="curve" smooth="yes"/>
      <point x="18" y="7"/>
      <point x="18" y="5"/>
      <point x="20" y="3" type="curve" smooth="yes"/>
      <point x="21" y="1"/>
      <point x="23" y="0"/>
      <point x="27" y="0" type="curve" smooth="yes"/>
      <point x="479" y="0" type="line"/>
      <point x="486" y="28"/>
      <point x="494" y="58"/>
      <point x="503" y="94" type="curve" smooth="yes"/>
      <point x="505" y="102"/>
      <point x="502" y="105"/>
      <point x="494" y="105" type="curve" smooth="yes"/>
    </contour>
    <contour>
      <point x="148" y="440" type="curve" smooth="yes"/>
      <point x="155" y="440"/>
      <point x="160" y="442"/>
      <point x="389" y="594" type="curve" smooth="yes"/>
      <point x="424" y="615"/>
      <point x="458" y="638"/>
      <point x="460" y="644" type="curve" smooth="yes"/>
      <point x="466" y="670"/>
      <point x="463" y="710"/>
      <point x="399" y="710" type="curve"/>
      <point x="378" y="710" type="line"/>
      <point x="344" y="688"/>
      <point x="311" y="666"/>
      <point x="278" y="644" type="curve"/>
      <point x="244" y="622"/>
      <point x="210" y="599"/>
      <point x="177" y="577" type="curve"/>
      <point x="144" y="448" type="line" smooth="yes"/>
      <point x="142" y="442"/>
      <point x="144" y="440"/>
    </contour>
  </outline>
</glyph>
<glyph name="two" format="1">
  <advance width="600"/>
  <unicode hex="0032"/>
  <outline>
    <contour>
      <point x="494" y="597" type="curve"/>
      <point x="487" y="571"/>
      <point x="484" y="555"/>
      <point x="474" y="517" type="curve" smooth="yes"/>
      <point x="462" y="472"/>
      <point x="438" y="450"/>
      <point x="299" y="373" type="curve" smooth="yes"/>
      <point x="118" y="272"/>
      <point x="45" y="195"/>
      <point x="17" y="84" type="curve" smooth="yes"/>
      <point x="14" y="71"/>
      <point x="46" y="70"/>
      <point x="131" y="70" type="curve"/>
      <point x="155" y="166"/>
      <point x="185" y="195"/>
      <point x="340" y="282" type="curve" smooth="yes"/>
      <point x="502" y="371"/>
      <point x="564" y="416"/>
      <point x="587" y="508" type="curve" smooth="yes"/>
      <point x="595" y="538" type="line" smooth="yes"/>
      <point x="602" y="568"/>
      <point x="576" y="597"/>
    </contour>
    <contour>
      <point x="476" y="0" type="line"/>
      <point x="483" y="28"/>
      <point x="490" y="58"/>
      <point x="500" y="94" type="curve" smooth="yes"/>
      <point x="502" y="102"/>
      <point x="498" y="105"/>
      <point x="491" y="105" type="curve" smooth="yes"/>
      <point x="121" y="105" type="line" smooth="yes"/>
      <point x="88" y="105"/>
      <point x="51" y="101"/>
      <point x="17" y="84" type="curve"/>
      <point x="11" y="59"/>
      <point x="8" y="46"/>
      <point x="-1" y="11" type="curve" smooth="yes"/>
      <point x="-3" y="4"/>
      <point x="0" y="0"/>
      <point x="7" y="0" type="curve" smooth="yes"/>
    </contour>
    <contour>
      <point x="404" y="720" type="curve" smooth="yes"/>
      <point x="298" y="720"/>
      <point x="218" y="691"/>
      <point x="185" y="665" type="curve" smooth="yes"/>
      <point x="182" y="662"/>
      <point x="180" y="659"/>
      <point x="179" y="655" type="curve" smooth="yes"/>
      <point x="168" y="611"/>
      <point x="160" y="582"/>
      <point x="153" y="553" type="curve"/>
      <point x="170" y="553" type="line"/>
      <point x="239" y="592"/>
      <point x="305" y="609"/>
      <point x="384" y="609" type="curve" smooth="yes"/>
      <point x="461" y="609"/>
      <point x="490" y="582"/>
      <point x="478" y="535" type="curve" smooth="yes"/>
      <point x="472" y="508"/>
      <point x="467" y="488"/>
      <point x="462" y="471" type="curve"/>
      <point x="539" y="472"/>
      <point x="585" y="499"/>
      <point x="595" y="538" type="curve" smooth="yes"/>
      <point x="621" y="643"/>
      <point x="549" y="720"/>
    </contour>
  </outline>
</glyph>
<glyph name="three" format="1">
  <advance width="600"/>
  <unicode hex="0033"/>
  <outline>
    <contour>
      <point x="365" y="609" type="curve" smooth="yes"/>
      <point x="466" y="609"/>
      <point x="490" y="570"/>
      <point x="478" y="521" type="curve" smooth="yes"/>
      <point x="472" y="495"/>
      <point x="467" y="479"/>
      <point x="462" y="457" type="curve"/>
      <point x="523" y="457"/>
      <point x="580" y="465"/>
      <point x="592" y="515" type="curve" smooth="yes"/>
      <point x="599" y="541" type="line" smooth="yes"/>
      <point x="623" y="636"/>
      <point x="546" y="720"/>
      <point x="397" y="720" type="curve" smooth="yes"/>
      <point x="295" y="720"/>
      <point x="207" y="696"/>
      <point x="182" y="676" type="curve" smooth="yes"/>
      <point x="180" y="674"/>
      <point x="179" y="672"/>
      <point x="178" y="669" type="curve" smooth="yes"/>
      <point x="168" y="628"/>
      <point x="159" y="594"/>
      <point x="153" y="569" type="curve"/>
      <point x="170" y="569" type="line"/>
      <point x="235" y="597"/>
      <point x="284" y="609"/>
    </contour>
    <contour>
      <point x="187" y="339" type="curve" smooth="yes"/>
      <point x="405" y="339"/>
      <point x="558" y="376"/>
      <point x="592" y="515" type="curve" smooth="yes"/>
      <point x="600" y="545"/>
      <point x="551" y="588"/>
      <point x="495" y="588" type="curve"/>
      <point x="488" y="563"/>
      <point x="482" y="539"/>
      <point x="477" y="517" type="curve" smooth="yes"/>
      <point x="461" y="454"/>
      <point x="404" y="409"/>
      <point x="193" y="409" type="curve"/>
      <point x="189" y="392"/>
      <point x="183" y="367"/>
      <point x="179" y="350" type="curve" smooth="yes"/>
      <point x="177" y="344"/>
      <point x="181" y="339"/>
    </contour>
    <contour>
      <point x="178" y="305" type="curve" smooth="yes"/>
      <point x="368" y="305"/>
      <point x="424" y="269"/>
      <point x="406" y="195" type="curve" smooth="yes"/>
      <point x="400" y="171"/>
      <point x="397" y="158"/>
      <point x="389" y="126" type="curve"/>
      <point x="459" y="126"/>
      <point x="510" y="144"/>
      <point x="522" y="193" type="curve" smooth="yes"/>
      <point x="553" y="316"/>
      <point x="430" y="377"/>
      <point x="186" y="377" type="curve"/>
      <point x="180" y="357"/>
      <point x="175" y="335"/>
      <point x="170" y="316" type="curve" smooth="yes"/>
      <point x="168" y="309"/>
      <point x="171" y="305"/>
    </contour>
    <contour>
      <point x="232" y="91" type="curve" smooth="yes"/>
      <point x="147" y="91"/>
      <point x="103" y="103"/>
      <point x="45" y="135" type="curve"/>
      <point x="28" y="135" type="line"/>
      <point x="21" y="107"/>
      <point x="14" y="78"/>
      <point x="3" y="36" type="curve" smooth="yes"/>
      <point x="2" y="33"/>
      <point x="2" y="31"/>
      <point x="3" y="29" type="curve" smooth="yes"/>
      <point x="19" y="9"/>
      <point x="102" y="-20"/>
      <point x="214" y="-20" type="curve" smooth="yes"/>
      <point x="381" y="-20"/>
      <point x="485" y="45"/>
      <point x="514" y="160" type="curve" smooth="yes"/>
      <point x="522" y="193" type="line" smooth="yes"/>
      <point x="532" y="231"/>
      <point x="482" y="259"/>
      <point x="422" y="259" type="curve"/>
      <point x="416" y="233"/>
      <point x="411" y="216"/>
      <point x="405" y="191" type="curve" smooth="yes"/>
      <point x="392" y="136"/>
      <point x="343" y="91"/>
    </contour>
  </outline>
</glyph>
<glyph name="four" format="1">
  <advance width="600"/>
  <unicode hex="0034"/>
  <outline>
    <contour>
      <point x="138" y="217" type="curve"/>
      <point x="275" y="373"/>
      <point x="413" y="529"/>
      <point x="550" y="684" type="curve"/>
      <point x="554" y="700" type="line"/>
      <point x="489" y="700"/>
      <point x="446" y="700"/>
      <point x="436" y="700" type="curve" smooth="yes"/>
      <point x="431" y="700"/>
      <point x="424" y="699"/>
      <point x="417" y="691" type="curve" smooth="yes"/>
      <point x="251" y="500"/>
      <point x="41" y="254"/>
      <point x="40" y="247" type="curve" smooth="yes"/>
      <point x="34" y="226"/>
      <point x="95" y="217"/>
    </contour>
    <contour>
      <point x="531" y="151" type="line"/>
      <point x="539" y="184"/>
      <point x="546" y="213"/>
      <point x="554" y="246" type="curve" smooth="yes"/>
      <point x="556" y="252"/>
      <point x="552" y="257"/>
      <point x="546" y="257" type="curve" smooth="yes"/>
      <point x="386" y="257" type="line"/>
      <point x="340" y="257"/>
      <point x="182" y="252"/>
      <point x="40" y="247" type="curve"/>
      <point x="18" y="162" type="line" smooth="yes"/>
      <point x="18" y="159"/>
      <point x="18" y="156"/>
      <point x="19" y="154" type="curve" smooth="yes"/>
      <point x="21" y="152"/>
      <point x="24" y="151"/>
      <point x="27" y="151" type="curve" smooth="yes"/>
    </contour>
    <contour>
      <point x="422" y="0" type="curve"/>
      <point x="430" y="30"/>
      <point x="439" y="64"/>
      <point x="447" y="99" type="curve" smooth="yes"/>
      <point x="517" y="379" type="line" smooth="yes"/>
      <point x="519" y="386"/>
      <point x="516" y="390"/>
      <point x="509" y="390" type="curve" smooth="yes"/>
      <point x="425" y="390" type="line"/>
      <point x="406" y="340"/>
      <point x="387" y="291"/>
      <point x="367" y="242" type="curve"/>
      <point x="310" y="11" type="line" smooth="yes"/>
      <point x="308" y="5"/>
      <point x="312" y="0"/>
      <point x="318" y="0" type="curve" smooth="yes"/>
      <point x="352" y="0"/>
      <point x="388" y="0"/>
    </contour>
  </outline>
</glyph>
<glyph name="five" format="1">
  <advance width="600"/>
  <unicode hex="0035"/>
  <outline>
    <contour>
      <point x="265" y="700" type="line"/>
      <point x="257" y="666"/>
      <point x="250" y="640"/>
      <point x="242" y="606" type="curve" smooth="yes"/>
      <point x="241" y="603"/>
      <point x="241" y="600"/>
      <point x="243" y="598" type="curve" smooth="yes"/>
      <point x="244" y="596"/>
      <point x="247" y="595"/>
      <point x="250" y="595" type="curve" smooth="yes"/>
      <point x="595" y="595" type="line"/>
      <point x="600" y="618"/>
      <point x="609" y="650"/>
      <point x="618" y="689" type="curve" smooth="yes"/>
      <point x="620" y="695"/>
      <point x="616" y="700"/>
      <point x="610" y="700" type="curve" smooth="yes"/>
    </contour>
    <contour>
      <point x="204" y="310" type="line"/>
      <point x="343" y="676" type="line" smooth="yes"/>
      <point x="350" y="691"/>
      <point x="334" y="700"/>
      <point x="279" y="700" type="curve" smooth="yes"/>
      <point x="236" y="700" type="line"/>
      <point x="97" y="328" type="line" smooth="yes"/>
      <point x="93" y="316"/>
      <point x="94" y="310"/>
      <point x="104" y="310" type="curve" smooth="yes"/>
    </contour>
    <contour>
      <point x="193" y="372" type="curve"/>
      <point x="166" y="344"/>
      <point x="172" y="310"/>
      <point x="204" y="310" type="curve"/>
      <point x="238" y="325"/>
      <point x="278" y="336"/>
      <point x="320" y="336" type="curve" smooth="yes"/>
      <point x="413" y="336"/>
      <point x="427" y="278"/>
      <point x="412" y="217" type="curve" smooth="yes"/>
      <point x="408" y="202"/>
      <point x="404" y="186"/>
      <point x="400" y="169" type="curve"/>
      <point x="438" y="169"/>
      <point x="521" y="189"/>
      <point x="530" y="226" type="curve" smooth="yes"/>
      <point x="561" y="349"/>
      <point x="495" y="431"/>
      <point x="378" y="431" type="curve" smooth="yes"/>
      <point x="301" y="431"/>
      <point x="250" y="409"/>
    </contour>
    <contour>
      <point x="222" y="-20" type="curve" smooth="yes"/>
      <point x="393" y="-20"/>
      <point x="488" y="54"/>
      <point x="519" y="179" type="curve" smooth="yes"/>
      <point x="530" y="226" type="line" smooth="yes"/>
      <point x="540" y="268"/>
      <point x="490" y="312"/>
      <point x="432" y="298" type="curve"/>
      <point x="426" y="270"/>
      <point x="420" y="248"/>
      <point x="412" y="218" type="curve" smooth="yes"/>
      <point x="406" y="192" type="line" smooth="yes"/>
      <point x="390" y="125"/>
      <point x="335" y="91"/>
      <point x="237" y="91" type="curve" smooth="yes"/>
      <point x="151" y="91"/>
      <point x="108" y="102"/>
      <point x="59" y="135" type="curve"/>
      <point x="42" y="135" type="line"/>
      <point x="34" y="105"/>
      <point x="26" y="75"/>
      <point x="15" y="33" type="curve" smooth="yes"/>
      <point x="14" y="30"/>
      <point x="15" y="28"/>
      <point x="16" y="26" type="curve" smooth="yes"/>
      <point x="32" y="5"/>
      <point x="112" y="-20"/>
    </contour>
  </outline>
</glyph>
<glyph name="six" format="1">
  <advance width="600"/>
  <unicode hex="0036"/>
  <outline>
    <contour>
      <point x="154" y="83" type="curve"/>
      <point x="134" y="3"/>
      <point x="202" y="-21"/>
      <point x="264" y="-21" type="curve"/>
      <point x="426" y="-21"/>
      <point x="490" y="55"/>
      <point x="520" y="175" type="curve" smooth="yes"/>
      <point x="536" y="236" type="line" smooth="yes"/>
      <point x="546" y="278"/>
      <point x="499" y="307"/>
      <point x="440" y="307" type="curve"/>
      <point x="433" y="277"/>
      <point x="429" y="261"/>
      <point x="420" y="228" type="curve" smooth="yes"/>
      <point x="410" y="191" type="line" smooth="yes"/>
      <point x="392" y="122"/>
      <point x="354" y="83"/>
      <point x="270" y="83" type="curve" smooth="yes"/>
      <point x="223" y="83"/>
      <point x="180" y="83"/>
    </contour>
    <contour>
      <point x="321" y="611" type="curve"/>
      <point x="354" y="611"/>
      <point x="373" y="611"/>
      <point x="418" y="611" type="curve" smooth="yes"/>
      <point x="489" y="611"/>
      <point x="525" y="597"/>
      <point x="570" y="569" type="curve"/>
      <point x="587" y="569" type="line"/>
      <point x="594" y="598"/>
      <point x="601" y="625"/>
      <point x="611" y="667" type="curve" smooth="yes"/>
      <point x="612" y="671"/>
      <point x="612" y="674"/>
      <point x="610" y="676" type="curve" smooth="yes"/>
      <point x="596" y="693"/>
      <point x="522" y="720"/>
      <point x="444" y="720" type="curve" smooth="yes"/>
      <point x="347" y="720"/>
      <point x="335" y="667"/>
    </contour>
    <contour>
      <point x="99" y="427" type="curve" smooth="yes"/>
      <point x="63" y="281" type="line" smooth="yes"/>
      <point x="16" y="92"/>
      <point x="102" y="-21"/>
      <point x="264" y="-21" type="curve" smooth="yes"/>
      <point x="276" y="-21"/>
      <point x="275" y="-5"/>
      <point x="270" y="83" type="curve"/>
      <point x="182" y="83"/>
      <point x="145" y="140"/>
      <point x="175" y="263" type="curve" smooth="yes"/>
      <point x="214" y="415" type="line" smooth="yes"/>
      <point x="247" y="549"/>
      <point x="310" y="611"/>
      <point x="418" y="611" type="curve"/>
      <point x="479" y="706"/>
      <point x="459" y="720"/>
      <point x="444" y="720" type="curve" smooth="yes"/>
      <point x="301" y="720"/>
      <point x="159" y="670"/>
    </contour>
    <contour>
      <point x="381" y="436" type="curve" smooth="yes"/>
      <point x="313" y="436"/>
      <point x="246" y="409"/>
      <point x="203" y="375" type="curve" smooth="yes"/>
      <point x="190" y="365"/>
      <point x="183" y="351"/>
      <point x="165" y="282" type="curve"/>
      <point x="220" y="321"/>
      <point x="273" y="337"/>
      <point x="328" y="337" type="curve" smooth="yes"/>
      <point x="411" y="337"/>
      <point x="437" y="293"/>
      <point x="420" y="228" type="curve" smooth="yes"/>
      <point x="416" y="214"/>
      <point x="412" y="199"/>
      <point x="410" y="190" type="curve"/>
      <point x="507" y="192"/>
      <point x="532" y="218"/>
      <point x="536" y="236" type="curve" smooth="yes"/>
      <point x="565" y="354"/>
      <point x="498" y="436"/>
    </contour>
  </outline>
</glyph>
<glyph name="seven" format="1">
  <advance width="600"/>
  <unicode hex="0037"/>
  <outline>
    <contour>
      <point x="544" y="596" type="line" smooth="yes"/>
      <point x="573" y="596"/>
      <point x="603" y="598"/>
      <point x="633" y="602" type="curve"/>
      <point x="655" y="689" type="line"/>
      <point x="657" y="695"/>
      <point x="653" y="700"/>
      <point x="647" y="700" type="curve"/>
      <point x="168" y="700" type="line"/>
      <point x="156" y="655" type="line" smooth="yes"/>
      <point x="146" y="612"/>
      <point x="156" y="596"/>
      <point x="176" y="596" type="curve" smooth="yes"/>
    </contour>
    <contour>
      <point x="241" y="0" type="line"/>
      <point x="481" y="369"/>
      <point x="631" y="594"/>
      <point x="633" y="602" type="curve" smooth="yes"/>
      <point x="641" y="633"/>
      <point x="601" y="640"/>
      <point x="529" y="639" type="curve"/>
      <point x="271" y="249"/>
      <point x="120" y="22"/>
      <point x="118" y="11" type="curve" smooth="yes"/>
      <point x="116" y="5"/>
      <point x="120" y="0"/>
      <point x="126" y="0" type="curve" smooth="yes"/>
    </contour>
    <contour>
      <point x="232" y="490" type="curve"/>
      <point x="243" y="539"/>
      <point x="263" y="616"/>
      <point x="275" y="666" type="curve"/>
      <point x="281" y="691"/>
      <point x="255" y="700"/>
      <point x="180" y="700" type="curve" smooth="yes"/>
      <point x="168" y="700" type="line"/>
      <point x="154" y="644"/>
      <point x="132" y="556"/>
      <point x="118" y="501" type="curve"/>
      <point x="117" y="495"/>
      <point x="121" y="490"/>
      <point x="127" y="490" type="curve" smooth="yes"/>
      <point x="162" y="490"/>
      <point x="197" y="490"/>
    </contour>
  </outline>
</glyph>
<glyph name="eight" format="1">
  <advance width="600"/>
  <unicode hex="0038"/>
  <outline>
    <contour>
      <point x="403" y="365" type="curve" smooth="yes"/>
      <point x="300" y="406" type="line" smooth="yes"/>
      <point x="247" y="427"/>
      <point x="231" y="469"/>
      <point x="243" y="514" type="curve" smooth="yes"/>
      <point x="248" y="534"/>
      <point x="253" y="555"/>
      <point x="260" y="585" type="curve"/>
      <point x="202" y="584"/>
      <point x="146" y="568"/>
      <point x="135" y="522" type="curve" smooth="yes"/>
      <point x="113" y="433"/>
      <point x="144" y="368"/>
      <point x="254" y="324" type="curve" smooth="yes"/>
      <point x="352" y="283" type="line" smooth="yes"/>
      <point x="410" y="259"/>
      <point x="424" y="226"/>
      <point x="414" y="182" type="curve" smooth="yes"/>
      <point x="402" y="136"/>
      <point x="399" y="123"/>
      <point x="393" y="103" type="curve"/>
      <point x="452" y="105"/>
      <point x="511" y="136"/>
      <point x="523" y="181" type="curve"/>
      <point x="542" y="260"/>
      <point x="506" y="324"/>
    </contour>
    <contour>
      <point x="239" y="-20" type="curve" smooth="yes"/>
      <point x="418" y="-20"/>
      <point x="491" y="56"/>
      <point x="514" y="149" type="curve" smooth="yes"/>
      <point x="523" y="181" type="line" smooth="yes"/>
      <point x="531" y="215"/>
      <point x="492" y="242"/>
      <point x="429" y="245" type="curve"/>
      <point x="428" y="238"/>
      <point x="421" y="212"/>
      <point x="411" y="171" type="curve" smooth="yes"/>
      <point x="398" y="119"/>
      <point x="348" y="84"/>
      <point x="257" y="84" type="curve" smooth="yes"/>
      <point x="203" y="84"/>
      <point x="173" y="84"/>
      <point x="143" y="84" type="curve"/>
      <point x="130" y="30"/>
      <point x="179" y="-20"/>
    </contour>
    <contour>
      <point x="409" y="720" type="curve" smooth="yes"/>
      <point x="267" y="720"/>
      <point x="169" y="653"/>
      <point x="142" y="550" type="curve" smooth="yes"/>
      <point x="135" y="522" type="line" smooth="yes"/>
      <point x="125" y="482"/>
      <point x="150" y="449"/>
      <point x="227" y="449" type="curve"/>
      <point x="231" y="469"/>
      <point x="237" y="491"/>
      <point x="246" y="528" type="curve" smooth="yes"/>
      <point x="259" y="581"/>
      <point x="308" y="616"/>
      <point x="382" y="616" type="curve" smooth="yes"/>
      <point x="442" y="616"/>
      <point x="469" y="616"/>
      <point x="497" y="616" type="curve"/>
      <point x="514" y="682"/>
      <point x="474" y="720"/>
    </contour>
    <contour>
      <point x="387" y="347" type="curve" smooth="yes"/>
      <point x="456" y="347"/>
      <point x="563" y="421"/>
      <point x="584" y="501" type="curve" smooth="yes"/>
      <point x="591" y="529" type="line" smooth="yes"/>
      <point x="619" y="636"/>
      <point x="547" y="720"/>
      <point x="409" y="720" type="curve" smooth="yes"/>
      <point x="389" y="720"/>
      <point x="383" y="711"/>
      <point x="382" y="616" type="curve"/>
      <point x="467" y="616"/>
      <point x="494" y="577"/>
      <point x="478" y="516" type="curve" smooth="yes"/>
      <point x="475" y="502" type="line" smooth="yes"/>
      <point x="462" y="451"/>
      <point x="419" y="409"/>
      <point x="318" y="381" type="curve"/>
      <point x="330" y="360"/>
      <point x="357" y="347"/>
    </contour>
    <contour>
      <point x="257" y="84" type="curve"/>
      <point x="161" y="84"/>
      <point x="129" y="128"/>
      <point x="142" y="182" type="curve" smooth="yes"/>
      <point x="145" y="193" type="line" smooth="yes"/>
      <point x="158" y="246"/>
      <point x="210" y="295"/>
      <point x="319" y="314" type="curve"/>
      <point x="305" y="338"/>
      <point x="289" y="351"/>
      <point x="245" y="351" type="curve" smooth="yes"/>
      <point x="167" y="351"/>
      <point x="61" y="286"/>
      <point x="38" y="200" type="curve" smooth="yes"/>
      <point x="29" y="165" type="line" smooth="yes"/>
      <point x="2" y="60"/>
      <point x="84" y="-20"/>
      <point x="239" y="-20" type="curve" smooth="yes"/>
      <point x="250" y="-20"/>
      <point x="269" y="6"/>
    </contour>
  </outline>
</glyph>
<glyph name="colon" format="1">
  <advance width="600"/>
  <unicode hex="003A"/>
  <outline>
    <contour>
      <point x="413" y="371" type="curve"/>
      <point x="453" y="532" type="line" smooth="yes"/>
      <point x="455" y="538"/>
      <point x="451" y="543"/>
      <point x="445" y="543" type="curve" smooth="yes"/>
      <point x="393" y="543"/>
      <point x="334" y="543"/>
      <point x="282" y="543" type="curve"/>
      <point x="242" y="382" type="line" smooth="yes"/>
      <point x="240" y="376"/>
      <point x="244" y="371"/>
      <point x="250" y="371" type="curve" smooth="yes"/>
      <point x="302" y="371"/>
      <point x="361" y="371"/>
    </contour>
    <contour>
      <point x="318" y="-8" type="curve"/>
      <point x="358" y="153" type="line" smooth="yes"/>
      <point x="360" y="159"/>
      <point x="356" y="164"/>
      <point x="350" y="164" type="curve" smooth="yes"/>
      <point x="298" y="164"/>
      <point x="239" y="164"/>
      <point x="187" y="164" type="curve"/>
      <point x="147" y="3" type="line" smooth="yes"/>
      <point x="145" y="-3"/>
      <point x="149" y="-8"/>
      <point x="155" y="-8" type="curve" smooth="yes"/>
      <point x="207" y="-8"/>
      <point x="266" y="-8"/>
    </contour>
  </outline>
</glyph>
<glyph name="semicolon" format="1">
  <advance width="600"/>
  <unicode hex="003B"/>
  <outline>
    <contour>
      <point x="413" y="371" type="curve"/>
      <point x="453" y="532" type="line" smooth="yes"/>
      <point x="455" y="538"/>
      <point x="451" y="543"/>
      <point x="445" y="543" type="curve" smooth="yes"/>
      <point x="393" y="543"/>
      <point x="334" y="543"/>
      <point x="282" y="543" type="curve"/>
      <point x="242" y="382" type="line" smooth="yes"/>
      <point x="240" y="376"/>
      <point x="244" y="371"/>
      <point x="250" y="371" type="curve" smooth="yes"/>
      <point x="302" y="371"/>
      <point x="361" y="371"/>
    </contour>
    <contour>
      <point x="168" y="-223" type="curve" smooth="yes"/>
      <point x="173" y="-223"/>
      <point x="176" y="-222"/>
      <point x="180" y="-216" type="curve"/>
      <point x="247" y="-112"/>
      <point x="321" y="4"/>
      <point x="379" y="92" type="curve"/>
      <point x="384" y="100"/>
      <point x="382" y="105"/>
      <point x="374" y="105" type="curve" smooth="yes"/>
      <point x="316" y="105"/>
      <point x="281" y="105"/>
      <point x="213" y="105" type="curve"/>
      <point x="161" y="-4"/>
      <point x="110" y="-114"/>
      <point x="59" y="-223" type="curve"/>
      <point x="88" y="-223"/>
      <point x="120" y="-223"/>
    </contour>
  </outline>
</glyph>
<glyph name="equal" format="1">
  <advance width="600"/>
  <unicode hex="003D"/>
  <outline>
    <contour>
      <point x="119" y="483" type="line"/>
      <point x="111" y="448"/>
      <point x="103" y="418"/>
      <point x="94" y="383" type="curve" smooth="yes"/>
      <point x="94" y="380"/>
      <point x="94" y="377"/>
      <point x="95" y="375" type="curve" smooth="yes"/>
      <point x="97" y="373"/>
      <point x="100" y="372"/>
      <point x="103" y="372" type="curve"/>
      <point x="561" y="372" type="line"/>
      <point x="569" y="407"/>
      <point x="577" y="437"/>
      <point x="586" y="472" type="curve" smooth="yes"/>
      <point x="587" y="478"/>
      <point x="583" y="483"/>
      <point x="577" y="483" type="curve"/>
    </contour>
    <contour>
      <point x="497" y="116" type="line"/>
      <point x="505" y="151"/>
      <point x="513" y="181"/>
      <point x="521" y="215" type="curve" smooth="yes"/>
      <point x="522" y="218"/>
      <point x="522" y="221"/>
      <point x="520" y="223" type="curve" smooth="yes"/>
      <point x="519" y="225"/>
      <point x="516" y="226"/>
      <point x="513" y="226" type="curve"/>
      <point x="55" y="226" type="line"/>
      <point x="46" y="192"/>
      <point x="39" y="162"/>
      <point x="30" y="127" type="curve" smooth="yes"/>
      <point x="29" y="121"/>
      <point x="33" y="116"/>
      <point x="39" y="116" type="curve"/>
    </contour>
  </outline>
</glyph>
<glyph name="greater" format="1">
  <advance width="600"/>
  <unicode hex="003E"/>
  <outline>
    <contour>
      <point x="46" y="132" type="curve"/>
      <point x="20" y="27" type="line"/>
      <point x="18" y="21"/>
      <point x="20" y="18"/>
      <point x="25" y="18" type="curve" smooth="yes"/>
      <point x="29" y="18"/>
      <point x="33" y="19"/>
      <point x="49" y="25" type="curve" smooth="yes"/>
      <point x="98" y="46"/>
      <point x="352" y="153"/>
      <point x="508" y="218" type="curve"/>
      <point x="543" y="358" type="line"/>
      <point x="525" y="337"/>
      <point x="506" y="324"/>
      <point x="454" y="303" type="curve"/>
      <point x="318" y="246"/>
      <point x="182" y="189"/>
    </contour>
    <contour>
      <point x="161" y="589" type="curve"/>
      <point x="152" y="551"/>
      <point x="143" y="518"/>
      <point x="134" y="481" type="curve" smooth="yes"/>
      <point x="132" y="472"/>
      <point x="132" y="469"/>
      <point x="140" y="464" type="curve" smooth="yes"/>
      <point x="229" y="417"/>
      <point x="320" y="368"/>
      <point x="410" y="320" type="curve" smooth="yes"/>
      <point x="418" y="316"/>
      <point x="419" y="312"/>
      <point x="417" y="304" type="curve" smooth="yes"/>
      <point x="412" y="285"/>
      <point x="406" y="262"/>
      <point x="399" y="231" type="curve"/>
      <point x="481" y="233"/>
      <point x="529" y="299"/>
      <point x="541" y="349" type="curve" smooth="yes"/>
      <point x="547" y="372" type="line" smooth="yes"/>
      <point x="549" y="381"/>
      <point x="547" y="388"/>
      <point x="538" y="391" type="curve" smooth="yes"/>
      <point x="412" y="457"/>
      <point x="287" y="523"/>
    </contour>
  </outline>
</glyph>
<glyph name="at" format="1">
  <advance width="600"/>
  <unicode hex="0040"/>
  <outline>
    <contour>
      <point x="513" y="504" type="curve" smooth="yes"/>
      <point x="503" y="523"/>
      <point x="471" y="545"/>
      <point x="425" y="545" type="curve" smooth="yes"/>
      <point x="391" y="545"/>
      <point x="361" y="535"/>
      <point x="335" y="515" type="curve" smooth="yes"/>
      <point x="311" y="496"/>
      <point x="315" y="480"/>
      <point x="371" y="401" type="curve"/>
      <point x="382" y="445"/>
      <point x="405" y="458"/>
      <point x="438" y="458" type="curve" smooth="yes"/>
      <point x="468" y="458"/>
      <point x="487" y="453"/>
      <point x="508" y="440" type="curve"/>
      <point x="520" y="473"/>
      <point x="519" y="493"/>
    </contour>
    <contour>
      <point x="450" y="172" type="curve"/>
      <point x="411" y="132"/>
      <point x="361" y="113"/>
      <point x="327" y="113" type="curve" smooth="yes"/>
      <point x="309" y="113"/>
      <point x="302" y="125"/>
      <point x="307" y="147" type="curve" smooth="yes"/>
      <point x="371" y="401" type="line" smooth="yes"/>
      <point x="381" y="440"/>
      <point x="394" y="464"/>
      <point x="430" y="495" type="curve"/>
      <point x="376" y="530"/>
      <point x="362" y="536"/>
      <point x="335" y="515" type="curve" smooth="yes"/>
      <point x="303" y="489"/>
      <point x="285" y="456"/>
      <point x="274" y="411" type="curve" smooth="yes"/>
      <point x="203" y="127" type="line" smooth="yes"/>
      <point x="186" y="59"/>
      <point x="217" y="17"/>
      <point x="277" y="17" type="curve" smooth="yes"/>
      <point x="326" y="17"/>
      <point x="369" y="38"/>
      <point x="429" y="100" type="curve" smooth="yes"/>
      <point x="437" y="108"/>
      <point x="440" y="117"/>
    </contour>
    <contour>
      <point x="476" y="27" type="line"/>
      <point x="484" y="63"/>
      <point x="493" y="98"/>
      <point x="502" y="133" type="curve"/>
      <point x="604" y="542" type="line" smooth="yes"/>
      <point x="634" y="661"/>
      <point x="582" y="760"/>
      <point x="427" y="760" type="curve" smooth="yes"/>
      <point x="412" y="760"/>
      <point x="403" y="745"/>
      <point x="409" y="682" type="curve"/>
      <point x="487" y="682"/>
      <point x="532" y="650"/>
      <point x="506" y="547" type="curve" smooth="yes"/>
      <point x="397" y="111" type="line" smooth="yes"/>
      <point x="396" y="106"/>
      <point x="427" y="27"/>
      <point x="435" y="27" type="curve" smooth="yes"/>
    </contour>
    <contour>
      <point x="126" y="514" type="curve" smooth="yes"/>
      <point x="23" y="101" type="line" smooth="yes"/>
      <point x="-4" y="-7"/>
      <point x="-1" y="-76"/>
      <point x="35" y="-124" type="curve" smooth="yes"/>
      <point x="57" y="-154"/>
      <point x="170" y="-162"/>
      <point x="230" y="-114" type="curve"/>
      <point x="92" y="-114"/>
      <point x="71" y="-35"/>
      <point x="101" y="83" type="curve" smooth="yes"/>
      <point x="204" y="497" type="line" smooth="yes"/>
      <point x="232" y="607"/>
      <point x="305" y="682"/>
      <point x="409" y="682" type="curve" smooth="yes"/>
      <point x="468" y="682"/>
      <point x="508" y="664"/>
      <point x="533" y="631" type="curve"/>
      <point x="546" y="639"/>
      <point x="550" y="645"/>
      <point x="555" y="663" type="curve" smooth="yes"/>
      <point x="568" y="717"/>
      <point x="510" y="760"/>
      <point x="427" y="760" type="curve" smooth="yes"/>
      <point x="284" y="760"/>
      <point x="162" y="659"/>
    </contour>
    <contour>
      <point x="201" y="-191" type="curve" smooth="yes"/>
      <point x="268" y="-191"/>
      <point x="343" y="-175"/>
      <point x="360" y="-160" type="curve" smooth="yes"/>
      <point x="363" y="-158"/>
      <point x="365" y="-155"/>
      <point x="365" y="-152" type="curve" smooth="yes"/>
      <point x="382" y="-88" type="line"/>
      <point x="363" y="-88" type="line"/>
      <point x="322" y="-106"/>
      <point x="278" y="-114"/>
      <point x="230" y="-114" type="curve" smooth="yes"/>
      <point x="139" y="-114"/>
      <point x="104" y="-88"/>
      <point x="66" y="-31" type="curve"/>
      <point x="27" y="-72"/>
      <point x="20" y="-105"/>
      <point x="35" y="-124" type="curve"/>
      <point x="66" y="-165"/>
      <point x="121" y="-191"/>
    </contour>
  </outline>
</glyph>
<glyph name="B" format="1">
  <advance width="600"/>
  <unicode hex="0042"/>
  <outline>
    <contour>
      <point x="138" y="9" type="curve"/>
      <point x="299" y="656" type="line" smooth="yes"/>
      <point x="302" y="665"/>
      <point x="262" y="670"/>
      <point x="184" y="670" type="curve"/>
      <point x="19" y="11" type="line"/>
      <point x="19" y="10"/>
      <point x="72" y="9"/>
    </contour>
    <contour>
      <point x="138" y="700" type="curve"/>
      <point x="131" y="674"/>
      <point x="123" y="639"/>
      <point x="115" y="606" type="curve" smooth="yes"/>
      <point x="114" y="602"/>
      <point x="114" y="599"/>
      <point x="116" y="597" type="curve" smooth="yes"/>
      <point x="117" y="595"/>
      <point x="120" y="595"/>
      <point x="123" y="595" type="curve" smooth="yes"/>
      <point x="139" y="595"/>
      <point x="164" y="595"/>
      <point x="183" y="595" type="curve" smooth="yes"/>
      <point x="248" y="595"/>
      <point x="328" y="595"/>
      <point x="392" y="595" type="curve" smooth="yes"/>
      <point x="462" y="595"/>
      <point x="477" y="595"/>
      <point x="519" y="595" type="curve"/>
      <point x="534" y="653"/>
      <point x="506" y="700"/>
      <point x="410" y="700" type="curve" smooth="yes"/>
      <point x="328" y="700"/>
      <point x="223" y="700"/>
    </contour>
    <contour>
      <point x="583" y="497" type="curve" smooth="yes"/>
      <point x="590" y="524" type="line" smooth="yes"/>
      <point x="612" y="613"/>
      <point x="574" y="700"/>
      <point x="410" y="700" type="curve" smooth="yes"/>
      <point x="394" y="700"/>
      <point x="390" y="687"/>
      <point x="392" y="595" type="curve"/>
      <point x="460" y="595"/>
      <point x="481" y="567"/>
      <point x="469" y="514" type="curve" smooth="yes"/>
      <point x="460" y="480" type="line" smooth="yes"/>
      <point x="447" y="427"/>
      <point x="413" y="395"/>
      <point x="330" y="395" type="curve" smooth="yes"/>
      <point x="282" y="395"/>
      <point x="247" y="395"/>
      <point x="200" y="395" type="curve"/>
      <point x="197" y="383"/>
      <point x="193" y="367"/>
      <point x="190" y="355" type="curve" smooth="yes"/>
      <point x="188" y="348"/>
      <point x="193" y="344"/>
      <point x="201" y="344" type="curve" smooth="yes"/>
      <point x="346" y="344" type="line" smooth="yes"/>
      <point x="472" y="344"/>
      <point x="559" y="400"/>
    </contour>
    <contour>
      <point x="513" y="170" type="curve" smooth="yes"/>
      <point x="521" y="203" type="line" smooth="yes"/>
      <point x="546" y="299"/>
      <point x="475" y="367"/>
      <point x="348" y="367" type="curve" smooth="yes"/>
      <point x="207" y="367" type="line" smooth="yes"/>
      <point x="201" y="367"/>
      <point x="191" y="362"/>
      <point x="190" y="357" type="curve"/>
      <point x="179" y="313" type="line"/>
      <point x="310" y="313" type="line"/>
      <point x="400" y="313"/>
      <point x="420" y="274"/>
      <point x="407" y="222" type="curve" smooth="yes"/>
      <point x="397" y="183" type="line" smooth="yes"/>
      <point x="384" y="131"/>
      <point x="345" y="105"/>
      <point x="276" y="105" type="curve" smooth="yes"/>
      <point x="227" y="105"/>
      <point x="165" y="105"/>
      <point x="102" y="105" type="curve"/>
      <point x="27" y="27"/>
      <point x="20" y="16"/>
      <point x="19" y="11" type="curve" smooth="yes"/>
      <point x="17" y="4"/>
      <point x="20" y="0"/>
      <point x="27" y="0" type="curve" smooth="yes"/>
      <point x="261" y="0" type="line" smooth="yes"/>
      <point x="387" y="0"/>
      <point x="482" y="52"/>
    </contour>
  </outline>
</glyph>
<glyph name="C" format="1">
  <advance width="600"/>
  <unicode hex="0043"/>
  <outline>
    <contour>
      <point x="415" y="614" type="curve" smooth="yes"/>
      <point x="486" y="614"/>
      <point x="522" y="592"/>
      <point x="550" y="561" type="curve"/>
      <point x="613" y="611"/>
      <point x="625" y="623"/>
      <point x="628" y="635" type="curve" smooth="yes"/>
      <point x="630" y="647"/>
      <point x="630" y="649"/>
      <point x="626" y="654" type="curve" smooth="yes"/>
      <point x="601" y="688"/>
      <point x="534" y="720"/>
      <point x="426" y="720" type="curve" smooth="yes"/>
      <point x="262" y="720"/>
      <point x="150" y="637"/>
      <point x="108" y="468" type="curve" smooth="yes"/>
      <point x="58" y="266" type="line" smooth="yes"/>
      <point x="36" y="180"/>
      <point x="69" y="113"/>
      <point x="142" y="113" type="curve"/>
      <point x="153" y="156"/>
      <point x="162" y="191"/>
      <point x="178" y="257" type="curve" smooth="yes"/>
      <point x="228" y="456" type="line" smooth="yes"/>
      <point x="256" y="568"/>
      <point x="320" y="614"/>
    </contour>
    <contour>
      <point x="279" y="-20" type="curve" smooth="yes"/>
      <point x="365" y="-20"/>
      <point x="442" y="4"/>
      <point x="479" y="34" type="curve" smooth="yes"/>
      <point x="482" y="36"/>
      <point x="484" y="39"/>
      <point x="485" y="43" type="curve" smooth="yes"/>
      <point x="493" y="76"/>
      <point x="502" y="112"/>
      <point x="510" y="146" type="curve"/>
      <point x="493" y="146" type="line"/>
      <point x="429" y="109"/>
      <point x="373" y="91"/>
      <point x="295" y="91" type="curve" smooth="yes"/>
      <point x="189" y="91"/>
      <point x="150" y="143"/>
      <point x="178" y="257" type="curve"/>
      <point x="72" y="278"/>
      <point x="61" y="279"/>
      <point x="58" y="266" type="curve" smooth="yes"/>
      <point x="12" y="84"/>
      <point x="88" y="-20"/>
    </contour>
    <contour>
      <point x="587" y="472" type="curve"/>
      <point x="628" y="635" type="line" smooth="yes"/>
      <point x="631" y="648"/>
      <point x="604" y="655"/>
      <point x="524" y="655" type="curve"/>
      <point x="520" y="641"/>
      <point x="515" y="624"/>
      <point x="513" y="613" type="curve" smooth="yes"/>
      <point x="481" y="483" type="line"/>
      <point x="480" y="480"/>
      <point x="480" y="477"/>
      <point x="482" y="475" type="curve" smooth="yes"/>
      <point x="483" y="473"/>
      <point x="486" y="472"/>
      <point x="489" y="472" type="curve"/>
      <point x="522" y="472"/>
      <point x="554" y="472"/>
    </contour>
    <contour>
      <point x="423" y="711" type="move" name="top"/>
    </contour>
    <contour>
      <point x="258" y="0" type="move" name="bottom"/>
    </contour>
  </outline>
</glyph>
<glyph name="D" format="1">
  <advance width="600"/>
  <unicode hex="0044"/>
  <outline>
    <contour>
      <point x="137" y="4" type="curve"/>
      <point x="298" y="649" type="line" smooth="yes"/>
      <point x="300" y="656"/>
      <point x="296" y="660"/>
      <point x="182" y="660" type="curve"/>
      <point x="19" y="11" type="line" smooth="yes"/>
      <point x="18" y="4"/>
      <point x="22" y="4"/>
    </contour>
    <contour>
      <point x="144" y="700" type="curve"/>
      <point x="136" y="667"/>
      <point x="129" y="639"/>
      <point x="121" y="606" type="curve"/>
      <point x="120" y="602"/>
      <point x="120" y="599"/>
      <point x="122" y="597" type="curve" smooth="yes"/>
      <point x="123" y="595"/>
      <point x="126" y="595"/>
      <point x="129" y="595" type="curve" smooth="yes"/>
      <point x="148" y="595"/>
      <point x="170" y="595"/>
      <point x="193" y="595" type="curve" smooth="yes"/>
      <point x="247" y="595"/>
      <point x="320" y="595"/>
      <point x="368" y="595" type="curve" smooth="yes"/>
      <point x="419" y="595"/>
      <point x="438" y="595"/>
      <point x="478" y="595" type="curve"/>
      <point x="486" y="656"/>
      <point x="458" y="700"/>
      <point x="391" y="700" type="curve" smooth="yes"/>
      <point x="324" y="700"/>
      <point x="218" y="700"/>
    </contour>
    <contour>
      <point x="528" y="226" type="curve" smooth="yes"/>
      <point x="582" y="439" type="line" smooth="yes"/>
      <point x="627" y="617"/>
      <point x="540" y="700"/>
      <point x="391" y="700" type="curve"/>
      <point x="387" y="700"/>
      <point x="369" y="686"/>
      <point x="368" y="595" type="curve"/>
      <point x="462" y="595"/>
      <point x="491" y="552"/>
      <point x="463" y="441" type="curve" smooth="yes"/>
      <point x="409" y="229" type="line" smooth="yes"/>
      <point x="389" y="149"/>
      <point x="329" y="105"/>
      <point x="246" y="105" type="curve" smooth="yes"/>
      <point x="207" y="105"/>
      <point x="117" y="105"/>
      <point x="64" y="105" type="curve"/>
      <point x="42" y="72"/>
      <point x="30" y="53"/>
      <point x="19" y="11" type="curve" smooth="yes"/>
      <point x="17" y="4"/>
      <point x="21" y="0"/>
      <point x="27" y="0" type="curve" smooth="yes"/>
      <point x="226" y="0" type="line" smooth="yes"/>
      <point x="386" y="0"/>
      <point x="490" y="76"/>
    </contour>
    <contour>
      <point x="398" y="711" type="move" name="top"/>
    </contour>
  </outline>
</glyph>
<glyph name="E" format="1">
  <advance width="600"/>
  <unicode hex="0045"/>
  <outline>
    <contour>
      <point x="138" y="700" type="line"/>
      <point x="129" y="667"/>
      <point x="123" y="639"/>
      <point x="115" y="606" type="curve" smooth="yes"/>
      <point x="114" y="602"/>
      <point x="114" y="599"/>
      <point x="116" y="597" type="curve" smooth="yes"/>
      <point x="117" y="595"/>
      <point x="120" y="595"/>
      <point x="123" y="595" type="curve" smooth="yes"/>
      <point x="618" y="595" type="line"/>
      <point x="626" y="628"/>
      <point x="633" y="656"/>
      <point x="641" y="689" type="curve" smooth="yes"/>
      <point x="642" y="692"/>
      <point x="642" y="695"/>
      <point x="640" y="697" type="curve" smooth="yes"/>
      <point x="639" y="699"/>
      <point x="636" y="700"/>
      <point x="633" y="700" type="curve" smooth="yes"/>
    </contour>
    <contour>
      <point x="156" y="71" type="curve"/>
      <point x="302" y="653" type="line" smooth="yes"/>
      <point x="303" y="659"/>
      <point x="300" y="664"/>
      <point x="183" y="664" type="curve"/>
      <point x="42" y="105" type="line"/>
      <point x="39" y="90"/>
      <point x="56" y="71"/>
    </contour>
    <contour>
      <point x="42" y="105" type="line"/>
      <point x="19" y="11" type="line" smooth="yes"/>
      <point x="17" y="5"/>
      <point x="21" y="0"/>
      <point x="27" y="0" type="curve" smooth="yes"/>
      <point x="469" y="0" type="line"/>
      <point x="478" y="33"/>
      <point x="484" y="61"/>
      <point x="493" y="94" type="curve" smooth="yes"/>
      <point x="495" y="101"/>
      <point x="490" y="105"/>
      <point x="484" y="105" type="curve" smooth="yes"/>
    </contour>
    <contour>
      <point x="171" y="406" type="line"/>
      <point x="146" y="309"/>
      <point x="150" y="304"/>
      <point x="156" y="304" type="curve" smooth="yes"/>
      <point x="489" y="304" type="line"/>
      <point x="496" y="332"/>
      <point x="503" y="361"/>
      <point x="511" y="395" type="curve" smooth="yes"/>
      <point x="512" y="398"/>
      <point x="512" y="401"/>
      <point x="510" y="403" type="curve" smooth="yes"/>
      <point x="509" y="405"/>
      <point x="506" y="406"/>
      <point x="503" y="406" type="curve" smooth="yes"/>
    </contour>
    <contour>
      <point x="410" y="711" type="move" name="top"/>
    </contour>
    <contour>
      <point x="469" y="-1" type="move" name="ogonek"/>
    </contour>
    <contour>
      <point x="252" y="-1" type="move" name="bottom"/>
    </contour>
  </outline>
</glyph>
<glyph name="F" format="1">
  <advance width="600"/>
  <unicode hex="0046"/>
  <outline>
    <contour>
      <point x="160" y="0" type="curve"/>
      <point x="168" y="31"/>
      <point x="177" y="64"/>
      <point x="185" y="98" type="curve" smooth="yes"/>
      <point x="322" y="647" type="line"/>
      <point x="325" y="656"/>
      <point x="315" y="662"/>
      <point x="203" y="662" type="curve"/>
      <point x="41" y="11" type="line" smooth="yes"/>
      <point x="39" y="5"/>
      <point x="43" y="0"/>
      <point x="49" y="0" type="curve" smooth="yes"/>
      <point x="86" y="0"/>
      <point x="123" y="0"/>
    </contour>
    <contour>
      <point x="159" y="700" type="line"/>
      <point x="151" y="667"/>
      <point x="145" y="639"/>
      <point x="136" y="606" type="curve" smooth="yes"/>
      <point x="135" y="602"/>
      <point x="135" y="600"/>
      <point x="137" y="598" type="curve" smooth="yes"/>
      <point x="139" y="596"/>
      <point x="141" y="595"/>
      <point x="144" y="595" type="curve"/>
      <point x="618" y="595" type="line"/>
      <point x="626" y="628"/>
      <point x="633" y="656"/>
      <point x="641" y="689" type="curve" smooth="yes"/>
      <point x="642" y="692"/>
      <point x="642" y="695"/>
      <point x="640" y="697" type="curve" smooth="yes"/>
      <point x="639" y="699"/>
      <point x="636" y="700"/>
      <point x="633" y="700" type="curve"/>
    </contour>
    <contour>
      <point x="186" y="379" type="line"/>
      <point x="163" y="286"/>
      <point x="163" y="275"/>
      <point x="171" y="275" type="curve"/>
      <point x="495" y="275" type="line"/>
      <point x="503" y="308"/>
      <point x="510" y="335"/>
      <point x="518" y="368" type="curve"/>
      <point x="519" y="371"/>
      <point x="518" y="374"/>
      <point x="517" y="376" type="curve" smooth="yes"/>
      <point x="515" y="378"/>
      <point x="513" y="379"/>
      <point x="510" y="379" type="curve"/>
    </contour>
  </outline>
</glyph>
<glyph name="G" format="1">
  <advance width="583"/>
  <unicode hex="0047"/>
  <outline>
    <contour>
      <point x="399" y="617" type="curve" smooth="yes"/>
      <point x="469" y="617"/>
      <point x="506" y="603"/>
      <point x="541" y="565" type="curve"/>
      <point x="604" y="619"/>
      <point x="611" y="629"/>
      <point x="613" y="638" type="curve" smooth="yes"/>
      <point x="616" y="649"/>
      <point x="616" y="652"/>
      <point x="612" y="657" type="curve" smooth="yes"/>
      <point x="586" y="692"/>
      <point x="517" y="720"/>
      <point x="419" y="720" type="curve" smooth="yes"/>
      <point x="256" y="720"/>
      <point x="153" y="643"/>
      <point x="110" y="471" type="curve" smooth="yes"/>
      <point x="54" y="250" type="line" smooth="yes"/>
      <point x="42" y="197"/>
      <point x="76" y="123"/>
      <point x="139" y="123" type="curve"/>
      <point x="148" y="159"/>
      <point x="156" y="189"/>
      <point x="167" y="236" type="curve" smooth="yes"/>
      <point x="224" y="463" type="line" smooth="yes"/>
      <point x="250" y="569"/>
      <point x="301" y="617"/>
    </contour>
    <contour>
      <point x="261" y="84" type="curve" smooth="yes"/>
      <point x="177" y="84"/>
      <point x="142" y="138"/>
      <point x="167" y="236" type="curve"/>
      <point x="78" y="268"/>
      <point x="60" y="273"/>
      <point x="54" y="250" type="curve" smooth="yes"/>
      <point x="17" y="96"/>
      <point x="77" y="-20"/>
      <point x="247" y="-20" type="curve" smooth="yes"/>
      <point x="389" y="-20"/>
      <point x="470" y="55"/>
      <point x="474" y="72" type="curve" smooth="yes"/>
      <point x="528" y="288" type="line" smooth="yes"/>
      <point x="532" y="303"/>
      <point x="461" y="310"/>
      <point x="424" y="310" type="curve"/>
      <point x="408" y="249"/>
      <point x="394" y="189"/>
      <point x="379" y="127" type="curve" smooth="yes"/>
      <point x="377" y="122"/>
      <point x="333" y="84"/>
    </contour>
    <contour>
      <point x="332" y="373" type="line"/>
      <point x="325" y="342"/>
      <point x="317" y="313"/>
      <point x="310" y="283" type="curve" smooth="yes"/>
      <point x="309" y="280"/>
      <point x="309" y="277"/>
      <point x="311" y="275" type="curve" smooth="yes"/>
      <point x="312" y="273"/>
      <point x="315" y="272"/>
      <point x="318" y="272" type="curve"/>
      <point x="564" y="272" type="line"/>
      <point x="586" y="362" type="line" smooth="yes"/>
      <point x="588" y="368"/>
      <point x="584" y="373"/>
      <point x="578" y="373" type="curve" smooth="yes"/>
    </contour>
    <contour>
      <point x="578" y="496" type="curve"/>
      <point x="613" y="638" type="line" smooth="yes"/>
      <point x="618" y="653"/>
      <point x="610" y="659"/>
      <point x="510" y="659" type="curve"/>
      <point x="507" y="646"/>
      <point x="502" y="628"/>
      <point x="499" y="616" type="curve" smooth="yes"/>
      <point x="472" y="507" type="line" smooth="yes"/>
      <point x="470" y="500"/>
      <point x="473" y="496"/>
      <point x="480" y="496" type="curve" smooth="yes"/>
      <point x="513" y="496"/>
      <point x="545" y="496"/>
    </contour>
    <contour>
      <point x="421" y="711" type="move" name="top"/>
    </contour>
    <contour>
      <point x="243" y="-1" type="move" name="bottom"/>
    </contour>
  </outline>
</glyph>
<glyph name="H" format="1">
  <advance width="600"/>
  <unicode hex="0048"/>
  <outline>
    <contour>
      <point x="182" y="700" type="curve"/>
      <point x="173" y="665"/>
      <point x="164" y="631"/>
      <point x="155" y="596" type="curve" smooth="yes"/>
      <point x="10" y="11" type="line" smooth="yes"/>
      <point x="8" y="5"/>
      <point x="12" y="0"/>
      <point x="18" y="0" type="curve" smooth="yes"/>
      <point x="55" y="0"/>
      <point x="92" y="0"/>
      <point x="129" y="0" type="curve"/>
      <point x="301" y="689" type="line" smooth="yes"/>
      <point x="302" y="692"/>
      <point x="302" y="695"/>
      <point x="300" y="697" type="curve" smooth="yes"/>
      <point x="299" y="699"/>
      <point x="296" y="700"/>
      <point x="293" y="700" type="curve" smooth="yes"/>
      <point x="256" y="700"/>
      <point x="219" y="700"/>
    </contour>
    <contour>
      <point x="459" y="0" type="curve"/>
      <point x="467" y="32"/>
      <point x="476" y="69"/>
      <point x="486" y="107" type="curve" smooth="yes"/>
      <point x="631" y="689" type="line" smooth="yes"/>
      <point x="633" y="695"/>
      <point x="629" y="700"/>
      <point x="623" y="700" type="curve" smooth="yes"/>
      <point x="585" y="700"/>
      <point x="549" y="700"/>
      <point x="511" y="700" type="curve"/>
      <point x="339" y="11" type="line" smooth="yes"/>
      <point x="338" y="8"/>
      <point x="338" y="5"/>
      <point x="340" y="3" type="curve" smooth="yes"/>
      <point x="341" y="1"/>
      <point x="344" y="0"/>
      <point x="347" y="0" type="curve" smooth="yes"/>
      <point x="385" y="0"/>
      <point x="421" y="0"/>
    </contour>
    <contour>
      <point x="163" y="406" type="line"/>
      <point x="140" y="312" type="line" smooth="yes"/>
      <point x="139" y="309"/>
      <point x="139" y="306"/>
      <point x="141" y="304" type="curve" smooth="yes"/>
      <point x="142" y="302"/>
      <point x="145" y="301"/>
      <point x="148" y="301" type="curve"/>
      <point x="481" y="301" type="line"/>
      <point x="507" y="406"/>
      <point x="502" y="406"/>
      <point x="496" y="406" type="curve" smooth="yes"/>
    </contour>
    <contour>
      <point x="410" y="711" type="move" name="top"/>
    </contour>
  </outline>
</glyph>
<glyph name="I" format="1">
  <advance width="600"/>
  <unicode hex="0049"/>
  <outline>
    <contour>
      <point x="304" y="40" type="curve"/>
      <point x="456" y="649" type="line" smooth="yes"/>
      <point x="458" y="655"/>
      <point x="454" y="660"/>
      <point x="337" y="660" type="curve"/>
      <point x="184" y="51" type="line" smooth="yes"/>
      <point x="183" y="45"/>
      <point x="187" y="40"/>
    </contour>
    <contour>
      <point x="185" y="700" type="line"/>
      <point x="176" y="667"/>
      <point x="170" y="639"/>
      <point x="161" y="606" type="curve"/>
      <point x="160" y="603"/>
      <point x="160" y="600"/>
      <point x="162" y="598" type="curve" smooth="yes"/>
      <point x="163" y="596"/>
      <point x="166" y="595"/>
      <point x="169" y="595" type="curve" smooth="yes"/>
      <point x="605" y="595" type="line"/>
      <point x="613" y="628"/>
      <point x="620" y="656"/>
      <point x="628" y="689" type="curve" smooth="yes"/>
      <point x="630" y="695"/>
      <point x="626" y="700"/>
      <point x="620" y="700" type="curve" smooth="yes"/>
    </contour>
    <contour>
      <point x="36" y="105" type="line"/>
      <point x="27" y="72"/>
      <point x="21" y="44"/>
      <point x="13" y="11" type="curve"/>
      <point x="12" y="8"/>
      <point x="12" y="5"/>
      <point x="14" y="3" type="curve" smooth="yes"/>
      <point x="15" y="1"/>
      <point x="18" y="0"/>
      <point x="21" y="0" type="curve" smooth="yes"/>
      <point x="456" y="0" type="line"/>
      <point x="464" y="33"/>
      <point x="472" y="62"/>
      <point x="480" y="94" type="curve" smooth="yes"/>
      <point x="481" y="100"/>
      <point x="477" y="105"/>
      <point x="471" y="105" type="curve" smooth="yes"/>
    </contour>
    <contour>
      <point x="410" y="711" type="move" name="top"/>
    </contour>
    <contour>
      <point x="456" y="-1" type="move" name="ogonek"/>
    </contour>
    <contour>
      <point x="232" y="-1" type="move" name="bottom"/>
    </contour>
  </outline>
</glyph>
<glyph name="J" format="1">
  <advance width="600"/>
  <unicode hex="004A"/>
  <outline>
    <contour>
      <point x="236" y="700" type="line"/>
      <point x="227" y="667"/>
      <point x="220" y="639"/>
      <point x="212" y="606" type="curve" smooth="yes"/>
      <point x="211" y="603"/>
      <point x="211" y="600"/>
      <point x="213" y="598" type="curve" smooth="yes"/>
      <point x="214" y="596"/>
      <point x="217" y="595"/>
      <point x="220" y="595" type="curve" smooth="yes"/>
      <point x="545" y="595" type="line"/>
      <point x="557" y="644"/>
      <point x="556" y="700"/>
      <point x="518" y="700" type="curve"/>
    </contour>
    <contour>
      <point x="490" y="220" type="curve" smooth="yes"/>
      <point x="608" y="689" type="line" smooth="yes"/>
      <point x="610" y="695"/>
      <point x="607" y="700"/>
      <point x="600" y="700" type="curve" smooth="yes"/>
      <point x="488" y="700" type="line"/>
      <point x="368" y="221" type="line" smooth="yes"/>
      <point x="353" y="163"/>
      <point x="347" y="137"/>
      <point x="338" y="103" type="curve"/>
      <point x="430" y="103"/>
      <point x="468" y="130"/>
    </contour>
    <contour>
      <point x="219" y="88" type="curve" smooth="yes"/>
      <point x="156" y="88"/>
      <point x="115" y="99"/>
      <point x="73" y="127" type="curve"/>
      <point x="55" y="127" type="line"/>
      <point x="47" y="96"/>
      <point x="41" y="69"/>
      <point x="33" y="38" type="curve"/>
      <point x="32" y="33"/>
      <point x="32" y="30"/>
      <point x="34" y="28" type="curve" smooth="yes"/>
      <point x="50" y="6"/>
      <point x="112" y="-20"/>
      <point x="202" y="-20" type="curve" smooth="yes"/>
      <point x="209" y="-20" type="line" smooth="yes"/>
      <point x="359" y="-20"/>
      <point x="451" y="58"/>
      <point x="490" y="220" type="curve"/>
      <point x="496" y="236"/>
      <point x="493" y="255"/>
      <point x="368" y="221" type="curve"/>
      <point x="344" y="125"/>
      <point x="297" y="88"/>
    </contour>
    <contour>
      <point x="407" y="711" type="move" name="top"/>
    </contour>
  </outline>
</glyph>
<glyph name="K" format="1">
  <advance width="600"/>
  <unicode hex="004B"/>
  <outline>
    <contour>
      <point x="185" y="700" type="curve"/>
      <point x="176" y="665"/>
      <point x="167" y="631"/>
      <point x="158" y="596" type="curve" smooth="yes"/>
      <point x="13" y="11" type="line" smooth="yes"/>
      <point x="11" y="5"/>
      <point x="15" y="0"/>
      <point x="21" y="0" type="curve" smooth="yes"/>
      <point x="58" y="0"/>
      <point x="94" y="0"/>
      <point x="132" y="0" type="curve"/>
      <point x="304" y="689" type="line" smooth="yes"/>
      <point x="305" y="693"/>
      <point x="305" y="695"/>
      <point x="303" y="697" type="curve" smooth="yes"/>
      <point x="301" y="699"/>
      <point x="299" y="700"/>
      <point x="296" y="700" type="curve" smooth="yes"/>
      <point x="258" y="700"/>
      <point x="222" y="700"/>
    </contour>
    <contour>
      <point x="655" y="700" type="curve"/>
      <point x="528" y="700" type="line"/>
      <point x="397" y="556"/>
      <point x="256" y="402"/>
      <point x="128" y="262" type="curve"/>
      <point x="117" y="250"/>
      <point x="117" y="235"/>
      <point x="143" y="145" type="curve"/>
      <point x="333" y="344"/>
      <point x="490" y="507"/>
      <point x="606" y="629" type="curve" smooth="yes"/>
      <point x="658" y="684"/>
      <point x="661" y="688"/>
      <point x="662" y="693" type="curve" smooth="yes"/>
      <point x="662" y="697"/>
      <point x="660" y="700"/>
    </contour>
    <contour>
      <point x="339" y="408" type="line"/>
      <point x="251" y="318"/>
      <point x="252" y="301"/>
      <point x="256" y="291" type="curve" smooth="yes"/>
      <point x="347" y="63" type="line" smooth="yes"/>
      <point x="367" y="10"/>
      <point x="390" y="-7"/>
      <point x="450" y="-7" type="curve" smooth="yes"/>
      <point x="486" y="-7" type="line" smooth="yes"/>
      <point x="493" y="-7"/>
      <point x="498" y="-3"/>
      <point x="500" y="4" type="curve" smooth="yes"/>
      <point x="509" y="39"/>
      <point x="518" y="74"/>
      <point x="526" y="108" type="curve"/>
      <point x="520" y="108" type="line"/>
      <point x="511" y="108"/>
      <point x="507" y="108"/>
      <point x="494" y="108" type="curve" smooth="yes"/>
      <point x="463" y="108"/>
      <point x="454" y="114"/>
      <point x="444" y="140" type="curve" smooth="yes"/>
    </contour>
    <contour>
      <point x="254" y="-1" type="move" name="bottom"/>
    </contour>
  </outline>
</glyph>
<glyph name="L" format="1">
  <advance width="600"/>
  <unicode hex="004C"/>
  <outline>
    <contour>
      <point x="150" y="71" type="curve"/>
      <point x="304" y="689" type="line" smooth="yes"/>
      <point x="305" y="692"/>
      <point x="305" y="695"/>
      <point x="303" y="697" type="curve" smooth="yes"/>
      <point x="302" y="699"/>
      <point x="299" y="700"/>
      <point x="296" y="700" type="curve" smooth="yes"/>
      <point x="258" y="700"/>
      <point x="222" y="700"/>
      <point x="185" y="700" type="curve"/>
      <point x="177" y="667"/>
      <point x="168" y="633"/>
      <point x="160" y="600" type="curve" smooth="yes"/>
      <point x="36" y="105" type="line" smooth="yes"/>
      <point x="35" y="99"/>
      <point x="32" y="71"/>
    </contour>
    <contour>
      <point x="36" y="105" type="line"/>
      <point x="13" y="11" type="line" smooth="yes"/>
      <point x="11" y="5"/>
      <point x="14" y="0"/>
      <point x="21" y="0" type="curve" smooth="yes"/>
      <point x="469" y="0" type="line"/>
      <point x="478" y="33"/>
      <point x="484" y="61"/>
      <point x="493" y="94" type="curve" smooth="yes"/>
      <point x="494" y="100"/>
      <point x="490" y="105"/>
      <point x="484" y="105" type="curve" smooth="yes"/>
    </contour>
    <contour>
      <point x="496" y="550" type="move" name="caronslovak"/>
    </contour>
    <contour>
      <point x="248" y="711" type="move" name="top"/>
    </contour>
    <contour>
      <point x="436" y="400" type="move" name="dot"/>
    </contour>
    <contour>
      <point x="239" y="-1" type="move" name="bottom"/>
    </contour>
  </outline>
</glyph>
<glyph name="M" format="1">
  <advance width="600"/>
  <unicode hex="004D"/>
  <outline>
    <contour>
      <point x="107" y="0" type="curve"/>
      <point x="121" y="54"/>
      <point x="134" y="109"/>
      <point x="148" y="163" type="curve" smooth="yes"/>
      <point x="168" y="248"/>
      <point x="220" y="557"/>
      <point x="253" y="690" type="curve" smooth="yes"/>
      <point x="253" y="693"/>
      <point x="253" y="695"/>
      <point x="251" y="697" type="curve" smooth="yes"/>
      <point x="250" y="699"/>
      <point x="247" y="700"/>
      <point x="244" y="700" type="curve" smooth="yes"/>
      <point x="218" y="700"/>
      <point x="185" y="700"/>
      <point x="166" y="700" type="curve"/>
      <point x="158" y="667"/>
      <point x="149" y="633"/>
      <point x="141" y="600" type="curve" smooth="yes"/>
      <point x="-6" y="11" type="line" smooth="yes"/>
      <point x="-7" y="8"/>
      <point x="-7" y="5"/>
      <point x="-5" y="3" type="curve" smooth="yes"/>
      <point x="-4" y="1"/>
      <point x="-1" y="0"/>
      <point x="2" y="0" type="curve" smooth="yes"/>
      <point x="37" y="0"/>
      <point x="72" y="0"/>
    </contour>
    <contour>
      <point x="474" y="0" type="curve"/>
      <point x="483" y="33"/>
      <point x="491" y="67"/>
      <point x="500" y="101" type="curve" smooth="yes"/>
      <point x="646" y="689" type="line" smooth="yes"/>
      <point x="647" y="692"/>
      <point x="647" y="695"/>
      <point x="645" y="697" type="curve" smooth="yes"/>
      <point x="644" y="699"/>
      <point x="641" y="700"/>
      <point x="638" y="700" type="curve" smooth="yes"/>
      <point x="560" y="700" type="line"/>
      <point x="559" y="697"/>
      <point x="558" y="694"/>
      <point x="557" y="690" type="curve" smooth="yes"/>
      <point x="530" y="580"/>
      <point x="420" y="246"/>
      <point x="400" y="163" type="curve" smooth="yes"/>
      <point x="387" y="112"/>
      <point x="374" y="62"/>
      <point x="362" y="11" type="curve" smooth="yes"/>
      <point x="361" y="8"/>
      <point x="361" y="5"/>
      <point x="363" y="3" type="curve" smooth="yes"/>
      <point x="364" y="1"/>
      <point x="367" y="0"/>
      <point x="370" y="0" type="curve"/>
      <point x="404" y="0"/>
      <point x="440" y="0"/>
    </contour>
    <contour>
      <point x="191" y="700" type="line"/>
      <point x="214" y="523"/>
      <point x="237" y="345"/>
      <point x="260" y="171" type="curve"/>
      <point x="261" y="165"/>
      <point x="265" y="163"/>
      <point x="269" y="163" type="curve"/>
      <point x="283" y="163"/>
      <point x="306" y="238"/>
      <point x="322" y="300" type="curve"/>
      <point x="307" y="431"/>
      <point x="293" y="559"/>
      <point x="279" y="690" type="curve"/>
      <point x="277" y="696"/>
      <point x="274" y="700"/>
      <point x="266" y="700" type="curve"/>
    </contour>
    <contour>
      <point x="563" y="700" type="curve" smooth="yes"/>
      <point x="554" y="700"/>
      <point x="542" y="700"/>
      <point x="532" y="700" type="curve"/>
      <point x="450" y="566"/>
      <point x="367" y="431"/>
      <point x="285" y="298" type="curve"/>
      <point x="262" y="259"/>
      <point x="257" y="163"/>
      <point x="269" y="163" type="curve"/>
      <point x="280" y="163" type="line"/>
      <point x="387" y="326"/>
      <point x="493" y="489"/>
      <point x="598" y="652" type="curve"/>
      <point x="615" y="678"/>
      <point x="602" y="700"/>
    </contour>
  </outline>
</glyph>
<glyph name="N" format="1">
  <advance width="600"/>
  <unicode hex="004E"/>
  <outline>
    <contour>
      <point x="116" y="0" type="curve"/>
      <point x="202" y="344" type="line"/>
      <point x="209" y="370"/>
      <point x="264" y="693"/>
      <point x="261" y="697" type="curve" smooth="yes"/>
      <point x="260" y="699"/>
      <point x="257" y="700"/>
      <point x="254" y="700" type="curve"/>
      <point x="229" y="700"/>
      <point x="183" y="700"/>
      <point x="175" y="700" type="curve"/>
      <point x="163" y="653"/>
      <point x="152" y="607"/>
      <point x="140" y="560" type="curve" smooth="yes"/>
      <point x="3" y="11" type="line"/>
      <point x="1" y="5"/>
      <point x="5" y="0"/>
      <point x="11" y="0" type="curve"/>
      <point x="46" y="0"/>
      <point x="81" y="0"/>
    </contour>
    <contour>
      <point x="465" y="0" type="line"/>
      <point x="637" y="689" type="line"/>
      <point x="639" y="695"/>
      <point x="635" y="700"/>
      <point x="629" y="700" type="curve"/>
      <point x="524" y="700" type="line"/>
      <point x="432" y="328" type="line"/>
      <point x="427" y="308"/>
      <point x="378" y="5"/>
      <point x="380" y="3" type="curve" smooth="yes"/>
      <point x="381" y="1"/>
      <point x="384" y="0"/>
      <point x="387" y="0" type="curve"/>
    </contour>
    <contour>
      <point x="254" y="700" type="line"/>
      <point x="193" y="697"/>
      <point x="195" y="685"/>
      <point x="198" y="672" type="curve" smooth="yes"/>
      <point x="249" y="451"/>
      <point x="299" y="229"/>
      <point x="351" y="8" type="curve"/>
      <point x="352" y="1"/>
      <point x="356" y="0"/>
      <point x="361" y="0" type="curve" smooth="yes"/>
      <point x="372" y="0"/>
      <point x="388" y="0"/>
      <point x="397" y="0" type="curve"/>
      <point x="407" y="4"/>
      <point x="417" y="77"/>
      <point x="425" y="118" type="curve"/>
      <point x="382" y="309"/>
      <point x="339" y="503"/>
      <point x="298" y="690" type="curve"/>
      <point x="296" y="699"/>
      <point x="293" y="700"/>
      <point x="283" y="700" type="curve"/>
    </contour>
    <contour>
      <point x="410" y="710" type="move" name="top"/>
    </contour>
    <contour>
      <point x="232" y="-1" type="move" name="bottom"/>
    </contour>
  </outline>
</glyph>
<glyph name="O" format="1">
  <advance width="600"/>
  <unicode hex="004F"/>
  <outline>
    <contour>
      <point x="395" y="720" type="curve" smooth="yes"/>
      <point x="252" y="720"/>
      <point x="155" y="648"/>
      <point x="112" y="481" type="curve" smooth="yes"/>
      <point x="52" y="241" type="line" smooth="yes"/>
      <point x="10" y="75"/>
      <point x="96" y="-20"/>
      <point x="242" y="-20" type="curve" smooth="yes"/>
      <point x="254" y="-20"/>
      <point x="266" y="-3"/>
      <point x="259" y="85" type="curve"/>
      <point x="162" y="85"/>
      <point x="144" y="146"/>
      <point x="168" y="240" type="curve" smooth="yes"/>
      <point x="226" y="473" type="line" smooth="yes"/>
      <point x="250" y="566"/>
      <point x="301" y="615"/>
      <point x="379" y="615" type="curve" smooth="yes"/>
      <point x="431" y="615"/>
      <point x="460" y="615"/>
      <point x="480" y="615" type="curve"/>
      <point x="492" y="664"/>
      <point x="479" y="720"/>
    </contour>
    <contour>
      <point x="242" y="-20" type="curve" smooth="yes"/>
      <point x="379" y="-20"/>
      <point x="484" y="43"/>
      <point x="528" y="221" type="curve" smooth="yes"/>
      <point x="588" y="462" type="line" smooth="yes"/>
      <point x="629" y="628"/>
      <point x="539" y="720"/>
      <point x="395" y="720" type="curve" smooth="yes"/>
      <point x="383" y="720"/>
      <point x="372" y="703"/>
      <point x="379" y="615" type="curve"/>
      <point x="474" y="615"/>
      <point x="496" y="558"/>
      <point x="472" y="463" type="curve" smooth="yes"/>
      <point x="414" y="230" type="line" smooth="yes"/>
      <point x="390" y="135"/>
      <point x="339" y="85"/>
      <point x="259" y="85" type="curve" smooth="yes"/>
      <point x="208" y="85"/>
      <point x="180" y="85"/>
      <point x="159" y="85" type="curve"/>
      <point x="146" y="35"/>
      <point x="161" y="-20"/>
    </contour>
    <contour>
      <point x="410" y="711" type="move" name="top"/>
    </contour>
    <contour>
      <point x="335" y="-1" type="move" name="ogonek"/>
    </contour>
    <contour>
      <point x="232" y="-1" type="move" name="bottom"/>
    </contour>
  </outline>
</glyph>
<glyph name="Q" format="1">
  <advance width="600"/>
  <unicode hex="0051"/>
  <outline>
    <contour>
      <point x="395" y="720" type="curve" smooth="yes"/>
      <point x="252" y="720"/>
      <point x="155" y="648"/>
      <point x="112" y="481" type="curve" smooth="yes"/>
      <point x="52" y="241" type="line" smooth="yes"/>
      <point x="10" y="75"/>
      <point x="96" y="-20"/>
      <point x="242" y="-20" type="curve" smooth="yes"/>
      <point x="254" y="-20"/>
      <point x="266" y="-3"/>
      <point x="259" y="85" type="curve"/>
      <point x="163" y="85"/>
      <point x="144" y="146"/>
      <point x="168" y="240" type="curve" smooth="yes"/>
      <point x="226" y="473" type="line" smooth="yes"/>
      <point x="250" y="566"/>
      <point x="301" y="615"/>
      <point x="379" y="615" type="curve" smooth="yes"/>
      <point x="431" y="615"/>
      <point x="460" y="615"/>
      <point x="480" y="615" type="curve"/>
      <point x="492" y="664"/>
      <point x="479" y="720"/>
    </contour>
    <contour>
      <point x="242" y="-20" type="curve" smooth="yes"/>
      <point x="379" y="-20"/>
      <point x="484" y="43"/>
      <point x="528" y="221" type="curve" smooth="yes"/>
      <point x="588" y="462" type="line" smooth="yes"/>
      <point x="629" y="628"/>
      <point x="539" y="720"/>
      <point x="395" y="720" type="curve" smooth="yes"/>
      <point x="383" y="720"/>
      <point x="372" y="703"/>
      <point x="379" y="615" type="curve"/>
      <point x="474" y="615"/>
      <point x="496" y="558"/>
      <point x="472" y="463" type="curve" smooth="yes"/>
      <point x="414" y="230" type="line" smooth="yes"/>
      <point x="390" y="135"/>
      <point x="339" y="85"/>
      <point x="259" y="85" type="curve" smooth="yes"/>
      <point x="208" y="85"/>
      <point x="180" y="85"/>
      <point x="159" y="85" type="curve"/>
      <point x="146" y="35"/>
      <point x="161" y="-20"/>
    </contour>
    <contour>
      <point x="382" y="93" type="line"/>
      <point x="277" y="54"/>
      <point x="269" y="52"/>
      <point x="276" y="34" type="curve" smooth="yes"/>
      <point x="321" y="-80" type="line" smooth="yes"/>
      <point x="340" y="-131"/>
      <point x="362" y="-151"/>
      <point x="425" y="-151" type="curve" smooth="yes"/>
      <point x="453" y="-151" type="line" smooth="yes"/>
      <point x="460" y="-151"/>
      <point x="465" y="-147"/>
      <point x="467" y="-140" type="curve" smooth="yes"/>
      <point x="476" y="-103"/>
      <point x="483" y="-71"/>
      <point x="493" y="-34" type="curve"/>
      <point x="486" y="-34" type="line"/>
      <point x="480" y="-34"/>
      <point x="476" y="-34"/>
      <point x="469" y="-34" type="curve" smooth="yes"/>
      <point x="442" y="-34"/>
      <point x="428" y="-30"/>
      <point x="419" y="-6" type="curve" smooth="yes"/>
    </contour>
  </outline>
</glyph>
<glyph name="R" format="1">
  <advance width="600"/>
  <unicode hex="0052"/>
  <outline>
    <contour>
      <point x="135" y="0" type="curve"/>
      <point x="143" y="33"/>
      <point x="152" y="66"/>
      <point x="160" y="100" type="curve" smooth="yes"/>
      <point x="298" y="649" type="line" smooth="yes"/>
      <point x="299" y="655"/>
      <point x="296" y="660"/>
      <point x="182" y="660" type="curve"/>
      <point x="19" y="11" type="line" smooth="yes"/>
      <point x="18" y="8"/>
      <point x="18" y="5"/>
      <point x="20" y="3" type="curve" smooth="yes"/>
      <point x="21" y="1"/>
      <point x="24" y="0"/>
      <point x="27" y="0" type="curve" smooth="yes"/>
      <point x="63" y="0"/>
      <point x="99" y="0"/>
    </contour>
    <contour>
      <point x="144" y="700" type="curve"/>
      <point x="136" y="667"/>
      <point x="129" y="639"/>
      <point x="121" y="606" type="curve"/>
      <point x="120" y="603"/>
      <point x="120" y="600"/>
      <point x="122" y="598" type="curve" smooth="yes"/>
      <point x="123" y="596"/>
      <point x="126" y="595"/>
      <point x="129" y="595" type="curve" smooth="yes"/>
      <point x="148" y="595"/>
      <point x="170" y="595"/>
      <point x="193" y="595" type="curve" smooth="yes"/>
      <point x="253" y="595"/>
      <point x="336" y="595"/>
      <point x="390" y="595" type="curve" smooth="yes"/>
      <point x="442" y="595"/>
      <point x="461" y="595"/>
      <point x="489" y="595" type="curve"/>
      <point x="504" y="656"/>
      <point x="475" y="700"/>
      <point x="408" y="700" type="curve" smooth="yes"/>
      <point x="335" y="700"/>
      <point x="226" y="700"/>
    </contour>
    <contour>
      <point x="568" y="426" type="curve" smooth="yes"/>
      <point x="583" y="483" type="line" smooth="yes"/>
      <point x="618" y="625"/>
      <point x="551" y="700"/>
      <point x="408" y="700" type="curve"/>
      <point x="406" y="700"/>
      <point x="390" y="686"/>
      <point x="390" y="595" type="curve"/>
      <point x="459" y="595"/>
      <point x="480" y="562"/>
      <point x="465" y="499" type="curve" smooth="yes"/>
      <point x="450" y="439" type="line" smooth="yes"/>
      <point x="434" y="378"/>
      <point x="396" y="352"/>
      <point x="331" y="352" type="curve" smooth="yes"/>
      <point x="296" y="352"/>
      <point x="231" y="352"/>
      <point x="188" y="352" type="curve"/>
      <point x="180" y="321"/>
      <point x="175" y="302"/>
      <point x="166" y="265" type="curve" smooth="yes"/>
      <point x="165" y="259"/>
      <point x="168" y="254"/>
      <point x="174" y="254" type="curve" smooth="yes"/>
      <point x="321" y="254" type="line" smooth="yes"/>
      <point x="448" y="254"/>
      <point x="536" y="299"/>
    </contour>
    <contour>
      <point x="393" y="332" type="line"/>
      <point x="292" y="297"/>
      <point x="292" y="288"/>
      <point x="297" y="271" type="curve" smooth="yes"/>
      <point x="355" y="68" type="line" smooth="yes"/>
      <point x="371" y="12"/>
      <point x="397" y="-7"/>
      <point x="461" y="-7" type="curve" smooth="yes"/>
      <point x="480" y="-7" type="line" smooth="yes"/>
      <point x="487" y="-7"/>
      <point x="492" y="-3"/>
      <point x="494" y="4" type="curve" smooth="yes"/>
      <point x="502" y="38"/>
      <point x="511" y="71"/>
      <point x="519" y="105" type="curve"/>
      <point x="512" y="105" type="line"/>
      <point x="507" y="105"/>
      <point x="502" y="105"/>
      <point x="495" y="105" type="curve" smooth="yes"/>
      <point x="466" y="105"/>
      <point x="458" y="112"/>
      <point x="449" y="142" type="curve" smooth="yes"/>
    </contour>
    <contour>
      <point x="409" y="711" type="move" name="top"/>
    </contour>
    <contour>
      <point x="231" y="-1" type="move" name="bottom"/>
    </contour>
  </outline>
</glyph>
<glyph name="T" format="1">
  <advance width="600"/>
  <unicode hex="0054"/>
  <outline>
    <contour>
      <point x="161" y="700" type="line"/>
      <point x="154" y="668"/>
      <point x="146" y="637"/>
      <point x="138" y="606" type="curve" smooth="yes"/>
      <point x="137" y="603"/>
      <point x="137" y="600"/>
      <point x="139" y="598" type="curve" smooth="yes"/>
      <point x="140" y="596"/>
      <point x="143" y="595"/>
      <point x="146" y="595" type="curve" smooth="yes"/>
      <point x="628" y="595" type="line"/>
      <point x="636" y="626"/>
      <point x="644" y="658"/>
      <point x="651" y="689" type="curve" smooth="yes"/>
      <point x="653" y="695"/>
      <point x="649" y="700"/>
      <point x="643" y="700" type="curve" smooth="yes"/>
    </contour>
    <contour>
      <point x="294" y="0" type="curve"/>
      <point x="302" y="33"/>
      <point x="310" y="66"/>
      <point x="319" y="100" type="curve" smooth="yes"/>
      <point x="456" y="649" type="line" smooth="yes"/>
      <point x="458" y="655"/>
      <point x="454" y="660"/>
      <point x="337" y="660" type="curve"/>
      <point x="175" y="11" type="line" smooth="yes"/>
      <point x="174" y="8"/>
      <point x="174" y="5"/>
      <point x="176" y="3" type="curve" smooth="yes"/>
      <point x="177" y="1"/>
      <point x="180" y="0"/>
      <point x="183" y="0" type="curve" smooth="yes"/>
      <point x="220" y="0"/>
      <point x="257" y="0"/>
    </contour>
    <contour>
      <point x="410" y="711" type="move" name="top"/>
    </contour>
    <contour>
      <point x="232" y="-1" type="move" name="bottom"/>
    </contour>
  </outline>
</glyph>
<glyph name="U" format="1">
  <advance width="600"/>
  <unicode hex="0055"/>
  <outline>
    <contour>
      <point x="174" y="700" type="curve"/>
      <point x="166" y="667"/>
      <point x="157" y="633"/>
      <point x="149" y="600" type="curve" smooth="yes"/>
      <point x="37" y="153" type="line"/>
      <point x="28" y="117"/>
      <point x="73" y="108"/>
      <point x="148" y="108" type="curve"/>
      <point x="154" y="136"/>
      <point x="158" y="148"/>
      <point x="166" y="182" type="curve" smooth="yes"/>
      <point x="293" y="689" type="line"/>
      <point x="295" y="695"/>
      <point x="291" y="700"/>
      <point x="285" y="700" type="curve"/>
      <point x="247" y="700"/>
      <point x="211" y="700"/>
    </contour>
    <contour>
      <point x="151" y="-13" type="curve" smooth="yes"/>
      <point x="219" y="-13"/>
      <point x="292" y="20"/>
      <point x="352" y="74" type="curve" smooth="yes"/>
      <point x="409" y="121"/>
      <point x="437" y="167"/>
      <point x="435" y="225" type="curve"/>
      <point x="337" y="138"/>
      <point x="283" y="107"/>
      <point x="215" y="107" type="curve" smooth="yes"/>
      <point x="175" y="107"/>
      <point x="154" y="134"/>
      <point x="166" y="182" type="curve"/>
      <point x="74" y="181"/>
      <point x="40" y="166"/>
      <point x="37" y="153" type="curve" smooth="yes"/>
      <point x="14" y="64"/>
      <point x="50" y="-13"/>
    </contour>
    <contour>
      <point x="465" y="0" type="curve"/>
      <point x="473" y="32"/>
      <point x="483" y="69"/>
      <point x="492" y="107" type="curve" smooth="yes"/>
      <point x="637" y="689" type="line" smooth="yes"/>
      <point x="639" y="695"/>
      <point x="635" y="700"/>
      <point x="629" y="700" type="curve" smooth="yes"/>
      <point x="592" y="700"/>
      <point x="555" y="700"/>
      <point x="518" y="700" type="curve"/>
      <point x="346" y="11" type="line" smooth="yes"/>
      <point x="345" y="8"/>
      <point x="345" y="5"/>
      <point x="347" y="3" type="curve" smooth="yes"/>
      <point x="348" y="1"/>
      <point x="351" y="0"/>
      <point x="354" y="0" type="curve" smooth="yes"/>
      <point x="391" y="0"/>
      <point x="428" y="0"/>
    </contour>
    <contour>
      <point x="410" y="711" type="move" name="top"/>
    </contour>
    <contour>
      <point x="465" y="-1" type="move" name="ogonek"/>
    </contour>
    <contour>
      <point x="405" y="694" type="move" name="ring"/>
    </contour>
    <contour>
      <point x="214" y="-1" type="move" name="bottom"/>
    </contour>
  </outline>
</glyph>
<glyph name="V" format="1">
  <advance width="600"/>
  <unicode hex="0056"/>
  <outline>
    <contour>
      <point x="251" y="700" type="curve"/>
      <point x="142" y="700" type="line"/>
      <point x="141" y="470"/>
      <point x="141" y="240"/>
      <point x="139" y="10" type="curve" smooth="yes"/>
      <point x="139" y="1"/>
      <point x="145" y="-3"/>
      <point x="154" y="-3" type="curve" smooth="yes"/>
      <point x="185" y="-3" type="line" smooth="yes"/>
      <point x="222" y="-3"/>
      <point x="288" y="28"/>
      <point x="312" y="101" type="curve"/>
      <point x="291" y="101"/>
      <point x="279" y="101"/>
      <point x="262" y="101" type="curve" smooth="yes"/>
      <point x="255" y="101"/>
      <point x="254" y="103"/>
      <point x="253" y="112" type="curve"/>
      <point x="256" y="303"/>
      <point x="259" y="496"/>
      <point x="262" y="687" type="curve"/>
      <point x="262" y="696"/>
      <point x="258" y="700"/>
    </contour>
    <contour>
      <point x="659" y="700" type="curve"/>
      <point x="553" y="700" type="line"/>
      <point x="452" y="488"/>
      <point x="349" y="275"/>
      <point x="252" y="74" type="curve"/>
      <point x="228" y="22"/>
      <point x="196" y="6"/>
      <point x="171" y="-3" type="curve"/>
      <point x="326" y="-3" type="line"/>
      <point x="439" y="226"/>
      <point x="552" y="455"/>
      <point x="665" y="684" type="curve"/>
      <point x="669" y="693"/>
      <point x="668" y="700"/>
    </contour>
  </outline>
</glyph>
<glyph name="W" format="1">
  <advance width="600"/>
  <unicode hex="0057"/>
  <outline>
    <contour>
      <point x="135" y="700" type="curve"/>
      <point x="104" y="470"/>
      <point x="75" y="240"/>
      <point x="44" y="10" type="curve"/>
      <point x="43" y="1"/>
      <point x="51" y="-3"/>
      <point x="59" y="-3" type="curve"/>
      <point x="80" y="-3" type="line" smooth="yes"/>
      <point x="100" y="-3"/>
      <point x="120" y="14"/>
      <point x="131" y="28" type="curve"/>
      <point x="167" y="247"/>
      <point x="204" y="466"/>
      <point x="241" y="685" type="curve"/>
      <point x="243" y="694"/>
      <point x="242" y="697"/>
      <point x="240" y="698" type="curve" smooth="yes"/>
      <point x="238" y="700"/>
      <point x="237" y="700"/>
      <point x="233" y="700" type="curve"/>
      <point x="199" y="700"/>
      <point x="168" y="700"/>
    </contour>
    <contour>
      <point x="568" y="700" type="curve"/>
      <point x="499" y="491"/>
      <point x="429" y="281"/>
      <point x="359" y="72" type="curve"/>
      <point x="343" y="26"/>
      <point x="336" y="11"/>
      <point x="322" y="-3" type="curve"/>
      <point x="420" y="-3" type="line"/>
      <point x="505" y="227"/>
      <point x="591" y="457"/>
      <point x="676" y="687" type="curve"/>
      <point x="678" y="693"/>
      <point x="678" y="696"/>
      <point x="676" y="698" type="curve" smooth="yes"/>
      <point x="675" y="699"/>
      <point x="674" y="700"/>
      <point x="670" y="700" type="curve"/>
      <point x="637" y="700"/>
      <point x="602" y="700"/>
    </contour>
    <contour>
      <point x="391" y="581" type="curve"/>
      <point x="335" y="581" type="line"/>
      <point x="266" y="411"/>
      <point x="198" y="242"/>
      <point x="128" y="72" type="curve"/>
      <point x="103" y="22"/>
      <point x="87" y="9"/>
      <point x="59" y="-3" type="curve"/>
      <point x="169" y="-3" type="line"/>
      <point x="245" y="185"/>
      <point x="322" y="373"/>
      <point x="398" y="562" type="curve"/>
      <point x="404" y="574"/>
      <point x="402" y="581"/>
    </contour>
    <contour>
      <point x="409" y="581" type="curve"/>
      <point x="351" y="581" type="line"/>
      <point x="333" y="391"/>
      <point x="314" y="200"/>
      <point x="296" y="10" type="curve"/>
      <point x="296" y="1"/>
      <point x="303" y="-3"/>
      <point x="311" y="-3" type="curve"/>
      <point x="339" y="-3" type="line"/>
      <point x="350" y="-3"/>
      <point x="361" y="7"/>
      <point x="366" y="21" type="curve"/>
      <point x="383" y="204"/>
      <point x="401" y="388"/>
      <point x="418" y="570" type="curve"/>
      <point x="419" y="578"/>
      <point x="415" y="581"/>
    </contour>
    <contour>
      <point x="409" y="711" type="move" name="top"/>
    </contour>
  </outline>
</glyph>
<glyph name="X" format="1">
  <advance width="600"/>
  <unicode hex="0058"/>
  <outline>
    <contour>
      <point x="398" y="0" type="curve" smooth="yes"/>
      <point x="436" y="0"/>
      <point x="467" y="0"/>
      <point x="506" y="0" type="curve"/>
      <point x="465" y="126"/>
      <point x="424" y="253"/>
      <point x="384" y="376" type="curve" smooth="yes"/>
      <point x="378" y="397"/>
      <point x="359" y="406"/>
      <point x="354" y="425" type="curve" smooth="yes"/>
      <point x="325" y="511"/>
      <point x="296" y="601"/>
      <point x="267" y="689" type="curve" smooth="yes"/>
      <point x="264" y="696"/>
      <point x="259" y="700"/>
      <point x="250" y="700" type="curve" smooth="yes"/>
      <point x="143" y="700" type="line"/>
      <point x="184" y="576"/>
      <point x="225" y="451"/>
      <point x="264" y="329" type="curve" smooth="yes"/>
      <point x="270" y="310"/>
      <point x="292" y="298"/>
      <point x="297" y="278" type="curve" smooth="yes"/>
      <point x="325" y="191"/>
      <point x="354" y="101"/>
      <point x="383" y="11" type="curve" smooth="yes"/>
      <point x="386" y="3"/>
      <point x="389" y="0"/>
    </contour>
    <contour>
      <point x="676" y="700" type="curve"/>
      <point x="557" y="700" type="line"/>
      <point x="470" y="593"/>
      <point x="383" y="486"/>
      <point x="295" y="377" type="curve"/>
      <point x="281" y="360"/>
      <point x="297" y="346"/>
      <point x="369" y="314" type="curve"/>
      <point x="473" y="436"/>
      <point x="577" y="559"/>
      <point x="680" y="681" type="curve"/>
      <point x="685" y="687"/>
      <point x="687" y="693"/>
      <point x="684" y="696" type="curve" smooth="yes"/>
      <point x="683" y="699"/>
      <point x="680" y="700"/>
    </contour>
    <contour>
      <point x="-30" y="0" type="curve" smooth="yes"/>
      <point x="98" y="0" type="line"/>
      <point x="184" y="108"/>
      <point x="270" y="215"/>
      <point x="357" y="323" type="curve"/>
      <point x="371" y="339"/>
      <point x="348" y="354"/>
      <point x="277" y="386" type="curve"/>
      <point x="174" y="264"/>
      <point x="69" y="141"/>
      <point x="-34" y="19" type="curve"/>
      <point x="-39" y="13"/>
      <point x="-41" y="7"/>
      <point x="-38" y="3" type="curve" smooth="yes"/>
      <point x="-37" y="1"/>
      <point x="-34" y="0"/>
    </contour>
  </outline>
</glyph>
<glyph name="Y" format="1">
  <advance width="600"/>
  <unicode hex="0059"/>
  <outline>
    <contour>
      <point x="132" y="700" type="line"/>
      <point x="168" y="551"/>
      <point x="207" y="400"/>
      <point x="242" y="250" type="curve"/>
      <point x="244" y="243"/>
      <point x="250" y="240"/>
      <point x="258" y="240" type="curve"/>
      <point x="304" y="240"/>
      <point x="334" y="300"/>
      <point x="330" y="330" type="curve"/>
      <point x="305" y="448"/>
      <point x="280" y="567"/>
      <point x="257" y="685" type="curve"/>
      <point x="256" y="695"/>
      <point x="253" y="700"/>
      <point x="243" y="700" type="curve" smooth="yes"/>
    </contour>
    <contour>
      <point x="548" y="700" type="line"/>
      <point x="463" y="576"/>
      <point x="378" y="453"/>
      <point x="293" y="329" type="curve"/>
      <point x="261" y="282"/>
      <point x="268" y="257"/>
      <point x="258" y="240" type="curve"/>
      <point x="340" y="240" type="line"/>
      <point x="450" y="386"/>
      <point x="563" y="537"/>
      <point x="673" y="683" type="curve"/>
      <point x="679" y="692"/>
      <point x="675" y="700"/>
      <point x="667" y="700" type="curve"/>
    </contour>
    <contour>
      <point x="292" y="0" type="curve"/>
      <point x="300" y="33"/>
      <point x="309" y="66"/>
      <point x="317" y="100" type="curve" smooth="yes"/>
      <point x="366" y="296" type="line" smooth="yes"/>
      <point x="368" y="302"/>
      <point x="364" y="307"/>
      <point x="247" y="307" type="curve"/>
      <point x="173" y="11" type="line" smooth="yes"/>
      <point x="172" y="8"/>
      <point x="172" y="5"/>
      <point x="174" y="3" type="curve" smooth="yes"/>
      <point x="175" y="1"/>
      <point x="178" y="0"/>
      <point x="181" y="0" type="curve" smooth="yes"/>
      <point x="218" y="0"/>
      <point x="255" y="0"/>
    </contour>
    <contour>
      <point x="410" y="711" type="move" name="top"/>
    </contour>
  </outline>
</glyph>
<glyph name="Z" format="1">
  <advance width="600"/>
  <unicode hex="005A"/>
  <outline>
    <contour>
      <point x="204" y="700" type="line"/>
      <point x="196" y="667"/>
      <point x="189" y="639"/>
      <point x="181" y="606" type="curve" smooth="yes"/>
      <point x="180" y="603"/>
      <point x="180" y="600"/>
      <point x="182" y="598" type="curve" smooth="yes"/>
      <point x="183" y="596"/>
      <point x="186" y="595"/>
      <point x="189" y="595" type="curve" smooth="yes"/>
      <point x="486" y="595" type="line" smooth="yes"/>
      <point x="522" y="595"/>
      <point x="575" y="597"/>
      <point x="616" y="603" type="curve" smooth="yes"/>
      <point x="622" y="604"/>
      <point x="627" y="604"/>
      <point x="631" y="604" type="curve"/>
      <point x="652" y="689" type="line" smooth="yes"/>
      <point x="653" y="695"/>
      <point x="649" y="700"/>
      <point x="643" y="700" type="curve" smooth="yes"/>
    </contour>
    <contour>
      <point x="516" y="638" type="curve"/>
      <point x="348" y="459"/>
      <point x="178" y="275"/>
      <point x="10" y="95" type="curve"/>
      <point x="104" y="58"/>
      <point x="123" y="57"/>
      <point x="132" y="66" type="curve" smooth="yes"/>
      <point x="394" y="347"/>
      <point x="630" y="603"/>
      <point x="631" y="604" type="curve"/>
      <point x="545" y="645"/>
      <point x="526" y="649"/>
    </contour>
    <contour>
      <point x="483" y="0" type="line"/>
      <point x="491" y="33"/>
      <point x="498" y="61"/>
      <point x="507" y="94" type="curve" smooth="yes"/>
      <point x="508" y="97"/>
      <point x="507" y="101"/>
      <point x="506" y="103" type="curve" smooth="yes"/>
      <point x="504" y="105"/>
      <point x="501" y="105"/>
      <point x="498" y="105" type="curve" smooth="yes"/>
      <point x="158" y="105" type="line" smooth="yes"/>
      <point x="115" y="105"/>
      <point x="56" y="105"/>
      <point x="10" y="95" type="curve"/>
      <point x="-11" y="11" type="line" smooth="yes"/>
      <point x="-12" y="5"/>
      <point x="-9" y="0"/>
      <point x="-3" y="0" type="curve" smooth="yes"/>
    </contour>
    <contour>
      <point x="239" y="524" type="curve"/>
      <point x="253" y="579"/>
      <point x="266" y="627"/>
      <point x="280" y="683" type="curve"/>
      <point x="283" y="696"/>
      <point x="278" y="700"/>
      <point x="266" y="700" type="curve" smooth="yes"/>
      <point x="168" y="700" type="line"/>
      <point x="153" y="642"/>
      <point x="141" y="592"/>
      <point x="126" y="535" type="curve"/>
      <point x="125" y="529"/>
      <point x="129" y="524"/>
      <point x="135" y="524" type="curve" smooth="yes"/>
      <point x="169" y="524"/>
      <point x="205" y="524"/>
    </contour>
    <contour>
      <point x="410" y="711" type="move" name="top"/>
    </contour>
  </outline>
</glyph>
<glyph name="bracketleft" format="1">
  <advance width="600"/>
  <unicode hex="005B"/>
  <outline>
    <contour>
      <point x="300" y="646" type="curve" smooth="yes"/>
      <point x="130" y="-31" type="line" smooth="yes"/>
      <point x="128" y="-41"/>
      <point x="154" y="-42"/>
      <point x="250" y="-42" type="curve"/>
      <point x="446" y="742" type="line" smooth="yes"/>
      <point x="447" y="748"/>
      <point x="441" y="753"/>
      <point x="414" y="753" type="curve" smooth="yes"/>
      <point x="379" y="753"/>
      <point x="361" y="753"/>
      <point x="326" y="753" type="curve"/>
      <point x="317" y="717"/>
      <point x="309" y="682"/>
    </contour>
    <contour>
      <point x="614" y="643" type="line"/>
      <point x="623" y="678"/>
      <point x="630" y="708"/>
      <point x="639" y="742" type="curve" smooth="yes"/>
      <point x="639" y="745"/>
      <point x="639" y="748"/>
      <point x="638" y="750" type="curve" smooth="yes"/>
      <point x="636" y="752"/>
      <point x="633" y="753"/>
      <point x="630" y="753" type="curve" smooth="yes"/>
      <point x="414" y="753" type="line"/>
      <point x="387" y="648"/>
      <point x="392" y="643"/>
      <point x="397" y="643" type="curve"/>
    </contour>
    <contour>
      <point x="418" y="-141" type="line"/>
      <point x="427" y="-106"/>
      <point x="434" y="-76"/>
      <point x="443" y="-41" type="curve" smooth="yes"/>
      <point x="444" y="-35"/>
      <point x="441" y="-30"/>
      <point x="435" y="-30" type="curve" smooth="yes"/>
      <point x="131" y="-30" type="line"/>
      <point x="106" y="-130" type="line" smooth="yes"/>
      <point x="104" y="-136"/>
      <point x="108" y="-141"/>
      <point x="114" y="-141" type="curve" smooth="yes"/>
    </contour>
  </outline>
</glyph>
<glyph name="backslash" format="1">
  <advance width="600"/>
  <unicode hex="005C"/>
  <outline>
    <contour>
      <point x="193" y="750" type="curve"/>
      <point x="234" y="461"/>
      <point x="273" y="170"/>
      <point x="314" y="-119" type="curve" smooth="yes"/>
      <point x="315" y="-127"/>
      <point x="320" y="-130"/>
      <point x="326" y="-130" type="curve" smooth="yes"/>
      <point x="365" y="-130"/>
      <point x="398" y="-130"/>
      <point x="437" y="-130" type="curve"/>
      <point x="431" y="-94"/>
      <point x="426" y="-57"/>
      <point x="421" y="-21" type="curve"/>
      <point x="386" y="233"/>
      <point x="350" y="489"/>
      <point x="315" y="743" type="curve"/>
      <point x="314" y="748"/>
      <point x="310" y="750"/>
      <point x="304" y="750" type="curve" smooth="yes"/>
      <point x="266" y="750"/>
      <point x="232" y="750"/>
    </contour>
  </outline>
</glyph>
<glyph name="bracketright" format="1">
  <advance width="600"/>
  <unicode hex="005D"/>
  <outline>
    <contour>
      <point x="320" y="-33" type="curve" smooth="yes"/>
      <point x="489" y="644" type="line" smooth="yes"/>
      <point x="492" y="654"/>
      <point x="465" y="655"/>
      <point x="370" y="655" type="curve"/>
      <point x="174" y="-129" type="line" smooth="yes"/>
      <point x="172" y="-135"/>
      <point x="179" y="-140"/>
      <point x="206" y="-140" type="curve" smooth="yes"/>
      <point x="241" y="-140"/>
      <point x="258" y="-140"/>
      <point x="293" y="-140" type="curve"/>
      <point x="302" y="-104"/>
      <point x="311" y="-69"/>
    </contour>
    <contour>
      <point x="6" y="-30" type="line"/>
      <point x="-3" y="-65"/>
      <point x="-11" y="-95"/>
      <point x="-19" y="-129" type="curve" smooth="yes"/>
      <point x="-20" y="-132"/>
      <point x="-20" y="-135"/>
      <point x="-18" y="-137" type="curve" smooth="yes"/>
      <point x="-17" y="-139"/>
      <point x="-14" y="-140"/>
      <point x="-11" y="-140" type="curve" smooth="yes"/>
      <point x="206" y="-140" type="line"/>
      <point x="232" y="-35"/>
      <point x="227" y="-30"/>
      <point x="222" y="-30" type="curve"/>
    </contour>
    <contour>
      <point x="202" y="754" type="line"/>
      <point x="193" y="719"/>
      <point x="185" y="689"/>
      <point x="177" y="654" type="curve" smooth="yes"/>
      <point x="175" y="648"/>
      <point x="179" y="643"/>
      <point x="185" y="643" type="curve" smooth="yes"/>
      <point x="489" y="643" type="line"/>
      <point x="514" y="743" type="line" smooth="yes"/>
      <point x="515" y="749"/>
      <point x="512" y="754"/>
      <point x="506" y="754" type="curve" smooth="yes"/>
    </contour>
  </outline>
</glyph>
<glyph name="underscore" format="1">
  <advance width="600"/>
  <unicode hex="005F"/>
  <outline>
    <contour>
      <point x="-25" y="-67" type="line"/>
      <point x="-33" y="-102"/>
      <point x="-41" y="-132"/>
      <point x="-50" y="-167" type="curve" smooth="yes"/>
      <point x="-50" y="-170"/>
      <point x="-50" y="-173"/>
      <point x="-49" y="-175" type="curve" smooth="yes"/>
      <point x="-47" y="-177"/>
      <point x="-44" y="-178"/>
      <point x="-41" y="-178" type="curve"/>
      <point x="430" y="-178" type="line"/>
      <point x="438" y="-143"/>
      <point x="446" y="-113"/>
      <point x="455" y="-78" type="curve" smooth="yes"/>
      <point x="456" y="-72"/>
      <point x="452" y="-67"/>
      <point x="446" y="-67" type="curve"/>
    </contour>
  </outline>
</glyph>
<glyph name="grave" format="1">
  <advance width="600"/>
  <unicode hex="0060"/>
  <outline>
    <contour>
      <point x="441" y="408" type="curve"/>
      <point x="442" y="516"/>
      <point x="442" y="606"/>
      <point x="442" y="714" type="curve"/>
      <point x="374" y="714"/>
      <point x="339" y="714"/>
      <point x="281" y="714" type="curve" smooth="yes"/>
      <point x="273" y="714"/>
      <point x="266" y="708"/>
      <point x="268" y="700" type="curve" smooth="yes"/>
      <point x="288" y="612"/>
      <point x="309" y="518"/>
      <point x="331" y="417" type="curve" smooth="yes"/>
      <point x="332" y="411"/>
      <point x="337" y="408"/>
      <point x="346" y="408" type="curve" smooth="yes"/>
      <point x="392" y="408"/>
      <point x="412" y="408"/>
    </contour>
  </outline>
</glyph>
<glyph name="d" format="1">
  <advance width="600"/>
  <unicode hex="0064"/>
  <outline>
    <contour>
      <point x="295" y="547" type="curve" smooth="yes"/>
      <point x="193" y="547"/>
      <point x="118" y="493"/>
      <point x="83" y="353" type="curve" smooth="yes"/>
      <point x="41" y="186" type="line" smooth="yes"/>
      <point x="26" y="124"/>
      <point x="62" y="64"/>
      <point x="123" y="64" type="curve" smooth="yes"/>
      <point x="148" y="64"/>
      <point x="165" y="73"/>
      <point x="170" y="91" type="curve"/>
      <point x="157" y="121"/>
      <point x="149" y="139"/>
      <point x="162" y="193" type="curve" smooth="yes"/>
      <point x="199" y="340" type="line" smooth="yes"/>
      <point x="216" y="409"/>
      <point x="255" y="436"/>
      <point x="310" y="436" type="curve" smooth="yes"/>
      <point x="355" y="436"/>
      <point x="405" y="411"/>
      <point x="437" y="359" type="curve"/>
      <point x="450" y="367"/>
      <point x="461" y="388"/>
      <point x="461" y="403" type="curve" smooth="yes"/>
      <point x="461" y="463"/>
      <point x="392" y="547"/>
    </contour>
    <contour>
      <point x="162" y="-10" type="curve" smooth="yes"/>
      <point x="227" y="-10"/>
      <point x="289" y="19"/>
      <point x="351" y="79" type="curve" smooth="yes"/>
      <point x="400" y="125"/>
      <point x="414" y="167"/>
      <point x="407" y="198" type="curve"/>
      <point x="318" y="126"/>
      <point x="267" y="99"/>
      <point x="218" y="99" type="curve" smooth="yes"/>
      <point x="164" y="99"/>
      <point x="146" y="128"/>
      <point x="162" y="193" type="curve"/>
      <point x="103" y="212"/>
      <point x="42" y="191"/>
      <point x="41" y="186" type="curve" smooth="yes"/>
      <point x="12" y="70"/>
      <point x="59" y="-10"/>
    </contour>
    <contour>
      <point x="518" y="750" type="curve"/>
      <point x="510" y="716"/>
      <point x="501" y="683"/>
      <point x="493" y="650" type="curve" smooth="yes"/>
      <point x="333" y="11" type="line"/>
      <point x="332" y="8"/>
      <point x="332" y="5"/>
      <point x="334" y="3" type="curve" smooth="yes"/>
      <point x="335" y="1"/>
      <point x="338" y="0"/>
      <point x="341" y="0" type="curve" smooth="yes"/>
      <point x="377" y="0"/>
      <point x="413" y="0"/>
      <point x="449" y="0" type="curve"/>
      <point x="459" y="40"/>
      <point x="470" y="84"/>
      <point x="482" y="132" type="curve" smooth="yes"/>
      <point x="634" y="739" type="line"/>
      <point x="635" y="742"/>
      <point x="635" y="745"/>
      <point x="633" y="747" type="curve" smooth="yes"/>
      <point x="632" y="749"/>
      <point x="629" y="750"/>
      <point x="626" y="750" type="curve" smooth="yes"/>
      <point x="590" y="750"/>
      <point x="554" y="750"/>
    </contour>
    <contour>
      <point x="673" y="711" type="move" name="caronslovak"/>
    </contour>
  </outline>
</glyph>
<glyph name="f" format="1">
  <advance width="600"/>
  <unicode hex="0066"/>
  <outline>
    <contour>
      <point x="395" y="631" type="curve"/>
      <point x="441" y="655"/>
      <point x="465" y="659"/>
      <point x="522" y="659" type="curve" smooth="yes"/>
      <point x="570" y="659"/>
      <point x="614" y="650"/>
      <point x="647" y="634" type="curve"/>
      <point x="664" y="634" type="line"/>
      <point x="671" y="665"/>
      <point x="678" y="687"/>
      <point x="686" y="721" type="curve"/>
      <point x="687" y="725"/>
      <point x="687" y="729"/>
      <point x="684" y="732" type="curve" smooth="yes"/>
      <point x="676" y="741"/>
      <point x="612" y="767"/>
      <point x="533" y="767" type="curve" smooth="yes"/>
      <point x="431" y="767"/>
      <point x="370" y="718"/>
    </contour>
    <contour>
      <point x="289" y="576" type="curve"/>
      <point x="124" y="-89" type="line" smooth="yes"/>
      <point x="122" y="-96"/>
      <point x="126" y="-100"/>
      <point x="133" y="-100" type="curve"/>
      <point x="166" y="-100"/>
      <point x="202" y="-100"/>
      <point x="236" y="-100" type="curve"/>
      <point x="244" y="-67"/>
      <point x="253" y="-33"/>
      <point x="261" y="0" type="curve"/>
      <point x="390" y="511" type="line"/>
      <point x="394" y="529"/>
      <point x="397" y="539"/>
      <point x="400" y="551" type="curve"/>
      <point x="419" y="629"/>
      <point x="449" y="659"/>
      <point x="522" y="659" type="curve"/>
      <point x="575" y="749"/>
      <point x="552" y="767"/>
      <point x="533" y="767" type="curve" smooth="yes"/>
      <point x="387" y="767"/>
      <point x="319" y="695"/>
    </contour>
    <contour>
      <point x="140" y="522" type="line"/>
      <point x="132" y="488"/>
      <point x="124" y="460"/>
      <point x="116" y="426" type="curve" smooth="yes"/>
      <point x="115" y="423"/>
      <point x="115" y="420"/>
      <point x="117" y="418" type="curve" smooth="yes"/>
      <point x="118" y="416"/>
      <point x="121" y="415"/>
      <point x="124" y="415" type="curve"/>
      <point x="556" y="415" type="line"/>
      <point x="565" y="449"/>
      <point x="572" y="477"/>
      <point x="580" y="511" type="curve" smooth="yes"/>
      <point x="582" y="518"/>
      <point x="578" y="522"/>
      <point x="572" y="522" type="curve"/>
    </contour>
  </outline>
</glyph>
<glyph name="h" format="1">
  <advance width="600"/>
  <unicode hex="0068"/>
  <outline>
    <contour>
      <point x="139" y="0" type="curve"/>
      <point x="327" y="739" type="line" smooth="yes"/>
      <point x="327" y="743"/>
      <point x="327" y="746"/>
      <point x="326" y="748" type="curve" smooth="yes"/>
      <point x="324" y="750"/>
      <point x="321" y="750"/>
      <point x="318" y="750" type="curve" smooth="yes"/>
      <point x="284" y="750"/>
      <point x="247" y="750"/>
      <point x="207" y="750" type="curve"/>
      <point x="201" y="726"/>
      <point x="192" y="692"/>
      <point x="182" y="652" type="curve" smooth="yes"/>
      <point x="19" y="11" type="line" smooth="yes"/>
      <point x="18" y="5"/>
      <point x="21" y="0"/>
      <point x="27" y="0" type="curve" smooth="yes"/>
      <point x="65" y="0"/>
      <point x="101" y="0"/>
    </contour>
    <contour>
      <point x="443" y="547" type="curve" smooth="yes"/>
      <point x="376" y="547"/>
      <point x="317" y="519"/>
      <point x="246" y="451" type="curve" smooth="yes"/>
      <point x="214" y="422"/>
      <point x="202" y="394"/>
      <point x="187" y="320" type="curve"/>
      <point x="276" y="401"/>
      <point x="332" y="434"/>
      <point x="385" y="434" type="curve" smooth="yes"/>
      <point x="431" y="434"/>
      <point x="459" y="411"/>
      <point x="454" y="346" type="curve"/>
      <point x="517" y="353"/>
      <point x="542" y="366"/>
      <point x="550" y="394" type="curve" smooth="yes"/>
      <point x="570" y="472"/>
      <point x="533" y="547"/>
    </contour>
    <contour>
      <point x="451" y="0" type="curve"/>
      <point x="459" y="31"/>
      <point x="467" y="64"/>
      <point x="476" y="98" type="curve" smooth="yes"/>
      <point x="550" y="394" type="line"/>
      <point x="567" y="453"/>
      <point x="499" y="473"/>
      <point x="428" y="438" type="curve"/>
      <point x="431" y="417"/>
      <point x="432" y="404"/>
      <point x="423" y="368" type="curve" smooth="yes"/>
      <point x="331" y="11" type="line" smooth="yes"/>
      <point x="329" y="5"/>
      <point x="333" y="0"/>
      <point x="339" y="0" type="curve" smooth="yes"/>
      <point x="377" y="0"/>
      <point x="413" y="0"/>
    </contour>
    <contour>
      <point x="256" y="730" type="move" name="top"/>
    </contour>
  </outline>
</glyph>
<glyph name="j" format="1">
  <advance width="600"/>
  <unicode hex="006A"/>
  <outline>
    <contour>
      <point x="143" y="535" type="curve"/>
      <point x="134" y="503"/>
      <point x="128" y="474"/>
      <point x="119" y="441" type="curve" smooth="yes"/>
      <point x="117" y="435"/>
      <point x="121" y="430"/>
      <point x="127" y="430" type="curve" smooth="yes"/>
      <point x="230" y="430"/>
      <point x="341" y="430"/>
      <point x="444" y="430" type="curve"/>
      <point x="456" y="477"/>
      <point x="455" y="535"/>
      <point x="417" y="535" type="curve" smooth="yes"/>
      <point x="328" y="535"/>
      <point x="232" y="535"/>
    </contour>
    <contour>
      <point x="370" y="-15" type="curve" smooth="yes"/>
      <point x="507" y="524" type="line" smooth="yes"/>
      <point x="508" y="527"/>
      <point x="508" y="531"/>
      <point x="506" y="533" type="curve" smooth="yes"/>
      <point x="505" y="535"/>
      <point x="502" y="535"/>
      <point x="499" y="535" type="curve" smooth="yes"/>
      <point x="394" y="535" type="line"/>
      <point x="260" y="9" type="line" smooth="yes"/>
      <point x="241" y="-71"/>
      <point x="211" y="-115"/>
      <point x="147" y="-162" type="curve"/>
      <point x="216" y="-210"/>
      <point x="341" y="-129"/>
    </contour>
    <contour>
      <point x="82" y="-138" type="curve" smooth="yes"/>
      <point x="28" y="-138"/>
      <point x="-6" y="-131"/>
      <point x="-50" y="-109" type="curve"/>
      <point x="-67" y="-109" type="line"/>
      <point x="-75" y="-143"/>
      <point x="-83" y="-168"/>
      <point x="-91" y="-202" type="curve" smooth="yes"/>
      <point x="-92" y="-206"/>
      <point x="-91" y="-208"/>
      <point x="-89" y="-211" type="curve" smooth="yes"/>
      <point x="-78" y="-226"/>
      <point x="-20" y="-250"/>
      <point x="74" y="-250" type="curve" smooth="yes"/>
      <point x="234" y="-250"/>
      <point x="328" y="-179"/>
      <point x="370" y="-15" type="curve" smooth="yes"/>
      <point x="375" y="3"/>
      <point x="335" y="11"/>
      <point x="260" y="9" type="curve"/>
      <point x="233" y="-96"/>
      <point x="183" y="-138"/>
    </contour>
    <contour>
      <point x="550" y="659" type="curve"/>
      <point x="579" y="774" type="line" smooth="yes"/>
      <point x="581" y="780"/>
      <point x="577" y="785"/>
      <point x="571" y="785" type="curve" smooth="yes"/>
      <point x="526" y="785"/>
      <point x="481" y="785"/>
      <point x="436" y="785" type="curve"/>
      <point x="407" y="670" type="line" smooth="yes"/>
      <point x="405" y="664"/>
      <point x="409" y="659"/>
      <point x="415" y="659" type="curve" smooth="yes"/>
      <point x="460" y="659"/>
      <point x="505" y="659"/>
    </contour>
  </outline>
</glyph>
<glyph name="k" format="1">
  <advance width="600"/>
  <unicode hex="006B"/>
  <outline>
    <contour>
      <point x="132" y="0" type="curve"/>
      <point x="320" y="739" type="line" smooth="yes"/>
      <point x="320" y="742"/>
      <point x="320" y="745"/>
      <point x="319" y="747" type="curve" smooth="yes"/>
      <point x="317" y="749"/>
      <point x="314" y="750"/>
      <point x="311" y="750" type="curve" smooth="yes"/>
      <point x="277" y="750"/>
      <point x="247" y="750"/>
      <point x="207" y="750" type="curve"/>
      <point x="201" y="726"/>
      <point x="192" y="691"/>
      <point x="181" y="651" type="curve" smooth="yes"/>
      <point x="19" y="11" type="line" smooth="yes"/>
      <point x="17" y="4"/>
      <point x="21" y="0"/>
      <point x="27" y="0" type="curve" smooth="yes"/>
      <point x="65" y="0"/>
      <point x="95" y="0"/>
    </contour>
    <contour>
      <point x="459" y="535" type="line"/>
      <point x="330" y="422"/>
      <point x="226" y="334"/>
      <point x="97" y="222" type="curve"/>
      <point x="82" y="161"/>
      <point x="125" y="122"/>
      <point x="154" y="148" type="curve" smooth="yes"/>
      <point x="306" y="275"/>
      <point x="435" y="380"/>
      <point x="595" y="513" type="curve" smooth="yes"/>
      <point x="605" y="522"/>
      <point x="607" y="525"/>
      <point x="607" y="528" type="curve" smooth="yes"/>
      <point x="608" y="532"/>
      <point x="605" y="535"/>
      <point x="600" y="535" type="curve"/>
    </contour>
    <contour>
      <point x="389" y="0" type="curve" smooth="yes"/>
      <point x="452" y="0"/>
      <point x="465" y="0"/>
      <point x="506" y="0" type="curve"/>
      <point x="446" y="110"/>
      <point x="387" y="224"/>
      <point x="328" y="335" type="curve"/>
      <point x="246" y="265"/>
      <point x="246" y="254"/>
      <point x="253" y="238" type="curve" smooth="yes"/>
      <point x="271" y="200"/>
      <point x="360" y="31"/>
      <point x="371" y="10" type="curve" smooth="yes"/>
      <point x="375" y="3"/>
      <point x="379" y="0"/>
    </contour>
    <contour>
      <point x="260" y="-1" type="move" name="bottom"/>
    </contour>
  </outline>
</glyph>
<glyph name="l" format="1">
  <advance width="600"/>
  <unicode hex="006C"/>
  <outline>
    <contour>
      <point x="181" y="750" type="curve"/>
      <point x="173" y="718"/>
      <point x="164" y="684"/>
      <point x="156" y="652" type="curve" smooth="yes"/>
      <point x="155" y="645"/>
      <point x="158" y="641"/>
      <point x="165" y="641" type="curve" smooth="yes"/>
      <point x="240" y="641"/>
      <point x="296" y="641"/>
      <point x="361" y="641" type="curve"/>
      <point x="386" y="741"/>
      <point x="383" y="750"/>
      <point x="368" y="750" type="curve"/>
      <point x="306" y="750"/>
      <point x="243" y="750"/>
    </contour>
    <contour>
      <point x="480" y="748" type="curve" smooth="yes"/>
      <point x="478" y="750"/>
      <point x="476" y="750"/>
      <point x="473" y="750" type="curve" smooth="yes"/>
      <point x="368" y="750" type="line"/>
      <point x="221" y="162" type="line" smooth="yes"/>
      <point x="207" y="106"/>
      <point x="243" y="62"/>
      <point x="311" y="62" type="curve"/>
      <point x="318" y="91"/>
      <point x="328" y="128"/>
      <point x="335" y="157" type="curve" smooth="yes"/>
      <point x="481" y="739" type="line" smooth="yes"/>
      <point x="482" y="743"/>
      <point x="482" y="746"/>
    </contour>
    <contour>
      <point x="500" y="109" type="curve"/>
      <point x="484" y="109" type="line"/>
      <point x="428" y="109"/>
      <point x="437" y="109"/>
      <point x="373" y="109" type="curve"/>
      <point x="334" y="109"/>
      <point x="326" y="121"/>
      <point x="335" y="157" type="curve"/>
      <point x="238" y="178"/>
      <point x="225" y="177"/>
      <point x="221" y="162" type="curve" smooth="yes"/>
      <point x="198" y="73"/>
      <point x="230" y="0"/>
      <point x="350" y="0" type="curve" smooth="yes"/>
      <point x="462" y="0" type="line" smooth="yes"/>
      <point x="466" y="0"/>
      <point x="469" y="1"/>
      <point x="472" y="4" type="curve" smooth="yes"/>
      <point x="474" y="6"/>
      <point x="475" y="8"/>
      <point x="476" y="11" type="curve"/>
      <point x="484" y="43"/>
      <point x="492" y="77"/>
    </contour>
  </outline>
</glyph>
<glyph name="m" format="1">
  <advance width="600"/>
  <unicode hex="006D"/>
  <outline>
    <contour>
      <point x="76" y="0" type="curve"/>
      <point x="193" y="467" type="line" smooth="yes"/>
      <point x="201" y="500"/>
      <point x="195" y="529"/>
      <point x="193" y="532" type="curve" smooth="yes"/>
      <point x="190" y="535"/>
      <point x="187" y="535"/>
      <point x="183" y="535" type="curve" smooth="yes"/>
      <point x="159" y="535"/>
      <point x="132" y="535"/>
      <point x="108" y="535" type="curve"/>
      <point x="101" y="508"/>
      <point x="92" y="473"/>
      <point x="83" y="435" type="curve" smooth="yes"/>
      <point x="-24" y="11" type="line" smooth="yes"/>
      <point x="-25" y="5"/>
      <point x="-22" y="0"/>
      <point x="-16" y="0" type="curve" smooth="yes"/>
      <point x="14" y="0"/>
      <point x="45" y="0"/>
    </contour>
    <contour>
      <point x="328" y="547" type="curve" smooth="yes"/>
      <point x="288" y="547"/>
      <point x="251" y="528"/>
      <point x="206" y="483" type="curve" smooth="yes"/>
      <point x="172" y="450"/>
      <point x="142" y="402"/>
      <point x="134" y="350" type="curve"/>
      <point x="187" y="402"/>
      <point x="226" y="426"/>
      <point x="260" y="426" type="curve" smooth="yes"/>
      <point x="279" y="426"/>
      <point x="289" y="416"/>
      <point x="282" y="383" type="curve"/>
      <point x="386" y="432"/>
      <point x="391" y="441"/>
      <point x="392" y="445" type="curve" smooth="yes"/>
      <point x="408" y="506"/>
      <point x="379" y="547"/>
    </contour>
    <contour>
      <point x="281" y="0" type="curve"/>
      <point x="392" y="445" type="line" smooth="yes"/>
      <point x="402" y="483"/>
      <point x="353" y="466"/>
      <point x="281" y="434" type="curve"/>
      <point x="287" y="419"/>
      <point x="288" y="412"/>
      <point x="280" y="381" type="curve" smooth="yes"/>
      <point x="188" y="11" type="line" smooth="yes"/>
      <point x="186" y="5"/>
      <point x="190" y="0"/>
      <point x="196" y="0" type="curve" smooth="yes"/>
      <point x="224" y="0"/>
      <point x="253" y="0"/>
    </contour>
    <contour>
      <point x="536" y="547" type="curve" smooth="yes"/>
      <point x="496" y="547"/>
      <point x="454" y="523"/>
      <point x="415" y="483" type="curve" smooth="yes"/>
      <point x="385" y="457"/>
      <point x="342" y="401"/>
      <point x="336" y="353" type="curve"/>
      <point x="391" y="407"/>
      <point x="432" y="426"/>
      <point x="461" y="426" type="curve" smooth="yes"/>
      <point x="485" y="426"/>
      <point x="495" y="416"/>
      <point x="487" y="383" type="curve"/>
      <point x="597" y="426"/>
      <point x="599" y="429"/>
      <point x="601" y="437" type="curve" smooth="yes"/>
      <point x="617" y="497"/>
      <point x="593" y="547"/>
    </contour>
    <contour>
      <point x="491" y="0" type="curve"/>
      <point x="500" y="33"/>
      <point x="508" y="67"/>
      <point x="516" y="98" type="curve" smooth="yes"/>
      <point x="601" y="437" type="line" smooth="yes"/>
      <point x="613" y="481"/>
      <point x="576" y="473"/>
      <point x="488" y="441" type="curve"/>
      <point x="493" y="423"/>
      <point x="494" y="414"/>
      <point x="485" y="381" type="curve" smooth="yes"/>
      <point x="393" y="11" type="line" smooth="yes"/>
      <point x="391" y="5"/>
      <point x="395" y="0"/>
      <point x="401" y="0" type="curve" smooth="yes"/>
      <point x="432" y="0"/>
      <point x="461" y="0"/>
    </contour>
  </outline>
</glyph>
<glyph name="n" format="1">
  <advance width="600"/>
  <unicode hex="006E"/>
  <outline>
    <contour>
      <point x="139" y="0" type="curve"/>
      <point x="270" y="524" type="line" smooth="yes"/>
      <point x="271" y="528"/>
      <point x="271" y="531"/>
      <point x="269" y="533" type="curve" smooth="yes"/>
      <point x="267" y="535"/>
      <point x="265" y="535"/>
      <point x="262" y="535" type="curve" smooth="yes"/>
      <point x="228" y="535"/>
      <point x="191" y="535"/>
      <point x="151" y="535" type="curve"/>
      <point x="145" y="511"/>
      <point x="136" y="477"/>
      <point x="126" y="437" type="curve" smooth="yes"/>
      <point x="19" y="11" type="line" smooth="yes"/>
      <point x="18" y="5"/>
      <point x="21" y="0"/>
      <point x="27" y="0" type="curve" smooth="yes"/>
      <point x="65" y="0"/>
      <point x="101" y="0"/>
    </contour>
    <contour>
      <point x="444" y="547" type="curve" smooth="yes"/>
      <point x="377" y="547"/>
      <point x="316" y="514"/>
      <point x="245" y="438" type="curve" smooth="yes"/>
      <point x="216" y="407"/>
      <point x="188" y="364"/>
      <point x="195" y="304" type="curve"/>
      <point x="273" y="394"/>
      <point x="330" y="426"/>
      <point x="378" y="426" type="curve" smooth="yes"/>
      <point x="416" y="426"/>
      <point x="430" y="404"/>
      <point x="419" y="362" type="curve"/>
      <point x="525" y="362"/>
      <point x="543" y="374"/>
      <point x="548" y="391" type="curve" smooth="yes"/>
      <point x="568" y="471"/>
      <point x="536" y="547"/>
    </contour>
    <contour>
      <point x="450" y="0" type="curve"/>
      <point x="458" y="30"/>
      <point x="466" y="63"/>
      <point x="475" y="97" type="curve" smooth="yes"/>
      <point x="548" y="391" type="line"/>
      <point x="558" y="431"/>
      <point x="496" y="460"/>
      <point x="433" y="430" type="curve"/>
      <point x="431" y="411"/>
      <point x="428" y="395"/>
      <point x="419" y="362" type="curve" smooth="yes"/>
      <point x="331" y="11" type="line" smooth="yes"/>
      <point x="330" y="5"/>
      <point x="333" y="0"/>
      <point x="339" y="0" type="curve" smooth="yes"/>
      <point x="377" y="0"/>
      <point x="413" y="0"/>
    </contour>
    <contour>
      <point x="435" y="711" type="move" name="caronslovak"/>
    </contour>
    <contour>
      <point x="415" y="546" type="move" name="top"/>
    </contour>
    <contour>
      <point x="188" y="-1" type="move" name="bottom"/>
    </contour>
  </outline>
</glyph>
<glyph name="q" format="1">
  <advance width="600"/>
  <unicode hex="0071"/>
  <outline>
    <contour>
      <point x="300" y="547" type="curve" smooth="yes"/>
      <point x="193" y="547"/>
      <point x="118" y="487"/>
      <point x="79" y="335" type="curve" smooth="yes"/>
      <point x="40" y="183" type="line" smooth="yes"/>
      <point x="25" y="121"/>
      <point x="63" y="63"/>
      <point x="123" y="63" type="curve" smooth="yes"/>
      <point x="148" y="63"/>
      <point x="165" y="73"/>
      <point x="170" y="90" type="curve"/>
      <point x="157" y="121"/>
      <point x="147" y="132"/>
      <point x="161" y="187" type="curve" smooth="yes"/>
      <point x="195" y="321" type="line" smooth="yes"/>
      <point x="215" y="403"/>
      <point x="256" y="436"/>
      <point x="313" y="436" type="curve" smooth="yes"/>
      <point x="364" y="436"/>
      <point x="406" y="413"/>
      <point x="438" y="360" type="curve"/>
      <point x="451" y="367"/>
      <point x="462" y="388"/>
      <point x="463" y="404" type="curve" smooth="yes"/>
      <point x="465" y="464"/>
      <point x="399" y="547"/>
    </contour>
    <contour>
      <point x="159" y="-10" type="curve" smooth="yes"/>
      <point x="227" y="-10"/>
      <point x="288" y="20"/>
      <point x="351" y="79" type="curve" smooth="yes"/>
      <point x="400" y="124"/>
      <point x="415" y="167"/>
      <point x="406" y="199" type="curve"/>
      <point x="318" y="126"/>
      <point x="267" y="99"/>
      <point x="212" y="99" type="curve" smooth="yes"/>
      <point x="165" y="99"/>
      <point x="145" y="126"/>
      <point x="161" y="187" type="curve"/>
      <point x="101" y="207"/>
      <point x="42" y="188"/>
      <point x="40" y="183" type="curve" smooth="yes"/>
      <point x="12" y="67"/>
      <point x="60" y="-10"/>
    </contour>
    <contour>
      <point x="397" y="-207" type="curve"/>
      <point x="559" y="435" type="line" smooth="yes"/>
      <point x="567" y="468"/>
      <point x="575" y="502"/>
      <point x="584" y="535" type="curve"/>
      <point x="548" y="535"/>
      <point x="512" y="535"/>
      <point x="476" y="535" type="curve" smooth="yes"/>
      <point x="472" y="535"/>
      <point x="469" y="534"/>
      <point x="466" y="532" type="curve" smooth="yes"/>
      <point x="464" y="530"/>
      <point x="463" y="528"/>
      <point x="462" y="524" type="curve" smooth="yes"/>
      <point x="281" y="-196" type="line" smooth="yes"/>
      <point x="279" y="-203"/>
      <point x="283" y="-207"/>
      <point x="289" y="-207" type="curve" smooth="yes"/>
      <point x="325" y="-207"/>
      <point x="361" y="-207"/>
    </contour>
  </outline>
</glyph>
<glyph name="r" format="1">
  <advance width="600"/>
  <unicode hex="0072"/>
  <outline>
    <contour>
      <point x="133" y="535" type="curve"/>
      <point x="124" y="501"/>
      <point x="118" y="474"/>
      <point x="110" y="440" type="curve" smooth="yes"/>
      <point x="108" y="434"/>
      <point x="112" y="429"/>
      <point x="118" y="429" type="curve" smooth="yes"/>
      <point x="175" y="429"/>
      <point x="243" y="429"/>
      <point x="300" y="429" type="curve"/>
      <point x="313" y="481"/>
      <point x="319" y="535"/>
      <point x="305" y="535" type="curve" smooth="yes"/>
      <point x="254" y="535"/>
      <point x="185" y="535"/>
    </contour>
    <contour>
      <point x="238" y="0" type="curve"/>
      <point x="247" y="34"/>
      <point x="255" y="64"/>
      <point x="264" y="99" type="curve" smooth="yes"/>
      <point x="349" y="435" type="line" smooth="yes"/>
      <point x="352" y="446"/>
      <point x="327" y="535"/>
      <point x="305" y="535" type="curve" smooth="yes"/>
      <point x="296" y="535"/>
      <point x="283" y="534"/>
      <point x="257" y="529" type="curve"/>
      <point x="126" y="11" type="line" smooth="yes"/>
      <point x="124" y="5"/>
      <point x="128" y="0"/>
      <point x="134" y="0" type="curve" smooth="yes"/>
      <point x="170" y="0"/>
      <point x="202" y="0"/>
    </contour>
    <contour>
      <point x="290" y="336" type="curve"/>
      <point x="382" y="408"/>
      <point x="434" y="425"/>
      <point x="492" y="425" type="curve" smooth="yes"/>
      <point x="520" y="425"/>
      <point x="547" y="423"/>
      <point x="573" y="417" type="curve"/>
      <point x="588" y="417" type="line"/>
      <point x="596" y="449"/>
      <point x="614" y="521"/>
      <point x="617" y="532" type="curve"/>
      <point x="619" y="539"/>
      <point x="615" y="543"/>
      <point x="608" y="543" type="curve" smooth="yes"/>
      <point x="553" y="543" type="line" smooth="yes"/>
      <point x="457" y="543"/>
      <point x="398" y="518"/>
      <point x="330" y="446" type="curve" smooth="yes"/>
      <point x="314" y="430"/>
      <point x="309" y="415"/>
    </contour>
  </outline>
</glyph>
<glyph name="s" format="1">
  <advance width="600"/>
  <unicode hex="0073"/>
  <outline>
    <contour>
      <point x="384" y="544" type="curve" smooth="yes"/>
      <point x="375" y="544" type="line" smooth="yes"/>
      <point x="233" y="544"/>
      <point x="146" y="491"/>
      <point x="120" y="389" type="curve" smooth="yes"/>
      <point x="110" y="351"/>
      <point x="157" y="322"/>
      <point x="219" y="322" type="curve"/>
      <point x="224" y="337"/>
      <point x="231" y="367"/>
      <point x="235" y="382" type="curve" smooth="yes"/>
      <point x="245" y="418"/>
      <point x="283" y="436"/>
      <point x="361" y="436" type="curve" smooth="yes"/>
      <point x="422" y="436"/>
      <point x="463" y="428"/>
      <point x="511" y="411" type="curve"/>
      <point x="528" y="411" type="line"/>
      <point x="537" y="441"/>
      <point x="545" y="469"/>
      <point x="552" y="501" type="curve"/>
      <point x="554" y="506"/>
      <point x="554" y="509"/>
      <point x="552" y="511" type="curve" smooth="yes"/>
      <point x="543" y="522"/>
      <point x="483" y="544"/>
    </contour>
    <contour>
      <point x="374" y="309" type="curve" smooth="yes"/>
      <point x="290" y="323" type="line" smooth="yes"/>
      <point x="238" y="334"/>
      <point x="227" y="351"/>
      <point x="235" y="382" type="curve" smooth="yes"/>
      <point x="240" y="402"/>
      <point x="246" y="426"/>
      <point x="254" y="454" type="curve"/>
      <point x="187" y="454"/>
      <point x="130" y="429"/>
      <point x="120" y="389" type="curve"/>
      <point x="100" y="311"/>
      <point x="138" y="251"/>
      <point x="235" y="234" type="curve" smooth="yes"/>
      <point x="319" y="219" type="line" smooth="yes"/>
      <point x="380" y="206"/>
      <point x="391" y="186"/>
      <point x="384" y="156" type="curve" smooth="yes"/>
      <point x="378" y="135"/>
      <point x="371" y="108"/>
      <point x="365" y="85" type="curve"/>
      <point x="437" y="87"/>
      <point x="488" y="114"/>
      <point x="496" y="148" type="curve" smooth="yes"/>
      <point x="515" y="223"/>
      <point x="483" y="290"/>
    </contour>
    <contour>
      <point x="257" y="99" type="curve" smooth="yes"/>
      <point x="166" y="99"/>
      <point x="117" y="112"/>
      <point x="63" y="143" type="curve"/>
      <point x="46" y="143" type="line"/>
      <point x="38" y="113"/>
      <point x="31" y="86"/>
      <point x="22" y="48" type="curve" smooth="yes"/>
      <point x="21" y="44"/>
      <point x="22" y="42"/>
      <point x="23" y="40" type="curve" smooth="yes"/>
      <point x="37" y="23"/>
      <point x="115" y="-9"/>
      <point x="230" y="-9" type="curve" smooth="yes"/>
      <point x="242" y="-9" type="line" smooth="yes"/>
      <point x="380" y="-9"/>
      <point x="467" y="38"/>
      <point x="496" y="148" type="curve" smooth="yes"/>
      <point x="509" y="198"/>
      <point x="464" y="226"/>
      <point x="402" y="226" type="curve"/>
      <point x="395" y="198"/>
      <point x="389" y="177"/>
      <point x="384" y="156" type="curve" smooth="yes"/>
      <point x="375" y="123"/>
      <point x="341" y="99"/>
    </contour>
    <contour>
      <point x="375" y="546" type="move" name="top"/>
    </contour>
    <contour>
      <point x="237" y="-1" type="move" name="bottom"/>
    </contour>
  </outline>
</glyph>
<glyph name="t" format="1">
  <advance width="600"/>
  <unicode hex="0074"/>
  <outline>
    <contour>
      <point x="298" y="700" type="curve"/>
      <point x="175" y="209" type="line" smooth="yes"/>
      <point x="150" y="107"/>
      <point x="197" y="56"/>
      <point x="303" y="70" type="curve"/>
      <point x="279" y="116"/>
      <point x="275" y="143"/>
      <point x="294" y="220" type="curve" smooth="yes"/>
      <point x="411" y="689" type="line" smooth="yes"/>
      <point x="413" y="695"/>
      <point x="409" y="700"/>
      <point x="403" y="700" type="curve" smooth="yes"/>
      <point x="369" y="700"/>
      <point x="334" y="700"/>
    </contour>
    <contour>
      <point x="460" y="109" type="curve"/>
      <point x="444" y="109" type="line"/>
      <point x="410" y="109"/>
      <point x="410" y="109"/>
      <point x="368" y="109" type="curve" smooth="yes"/>
      <point x="291" y="109"/>
      <point x="271" y="133"/>
      <point x="294" y="220" type="curve"/>
      <point x="208" y="241"/>
      <point x="180" y="226"/>
      <point x="175" y="209" type="curve" smooth="yes"/>
      <point x="139" y="65"/>
      <point x="218" y="0"/>
      <point x="339" y="0" type="curve" smooth="yes"/>
      <point x="422" y="0" type="line" smooth="yes"/>
      <point x="425" y="0"/>
      <point x="428" y="1"/>
      <point x="431" y="3" type="curve" smooth="yes"/>
      <point x="433" y="5"/>
      <point x="435" y="8"/>
      <point x="436" y="11" type="curve" smooth="yes"/>
      <point x="444" y="45"/>
      <point x="451" y="75"/>
    </contour>
    <contour>
      <point x="132" y="535" type="line"/>
      <point x="124" y="501"/>
      <point x="116" y="473"/>
      <point x="108" y="439" type="curve" smooth="yes"/>
      <point x="107" y="436"/>
      <point x="107" y="433"/>
      <point x="109" y="431" type="curve" smooth="yes"/>
      <point x="110" y="429"/>
      <point x="113" y="428"/>
      <point x="116" y="428" type="curve" smooth="yes"/>
      <point x="540" y="428" type="line"/>
      <point x="549" y="462"/>
      <point x="555" y="490"/>
      <point x="564" y="524" type="curve" smooth="yes"/>
      <point x="565" y="530"/>
      <point x="562" y="535"/>
      <point x="556" y="535" type="curve" smooth="yes"/>
    </contour>
    <contour>
      <point x="554" y="700" type="move" name="caronslovak"/>
    </contour>
    <contour>
      <point x="303" y="-1" type="move" name="bottom"/>
    </contour>
  </outline>
</glyph>
<glyph name="u" format="1">
  <advance width="600"/>
  <unicode hex="0075"/>
  <outline>
    <contour>
      <point x="463" y="535" type="curve"/>
      <point x="331" y="11" type="line" smooth="yes"/>
      <point x="330" y="8"/>
      <point x="330" y="5"/>
      <point x="332" y="3" type="curve" smooth="yes"/>
      <point x="333" y="1"/>
      <point x="336" y="0"/>
      <point x="339" y="0" type="curve" smooth="yes"/>
      <point x="373" y="0"/>
      <point x="410" y="0"/>
      <point x="450" y="0" type="curve"/>
      <point x="456" y="24"/>
      <point x="465" y="59"/>
      <point x="475" y="99" type="curve" smooth="yes"/>
      <point x="582" y="524" type="line" smooth="yes"/>
      <point x="584" y="530"/>
      <point x="580" y="535"/>
      <point x="574" y="535" type="curve" smooth="yes"/>
      <point x="537" y="535"/>
      <point x="500" y="535"/>
    </contour>
    <contour>
      <point x="157" y="-11" type="curve" smooth="yes"/>
      <point x="224" y="-11"/>
      <point x="286" y="22"/>
      <point x="356" y="98" type="curve" smooth="yes"/>
      <point x="386" y="128"/>
      <point x="413" y="172"/>
      <point x="406" y="231" type="curve"/>
      <point x="328" y="141"/>
      <point x="271" y="109"/>
      <point x="223" y="109" type="curve" smooth="yes"/>
      <point x="184" y="109"/>
      <point x="170" y="127"/>
      <point x="182" y="174" type="curve"/>
      <point x="77" y="173"/>
      <point x="58" y="163"/>
      <point x="53" y="146" type="curve" smooth="yes"/>
      <point x="33" y="64"/>
      <point x="65" y="-11"/>
    </contour>
    <contour>
      <point x="151" y="535" type="curve"/>
      <point x="143" y="505"/>
      <point x="135" y="472"/>
      <point x="126" y="439" type="curve" smooth="yes"/>
      <point x="53" y="146" type="line"/>
      <point x="43" y="105"/>
      <point x="105" y="76"/>
      <point x="168" y="105" type="curve"/>
      <point x="170" y="125"/>
      <point x="174" y="141"/>
      <point x="182" y="174" type="curve" smooth="yes"/>
      <point x="270" y="524" type="line" smooth="yes"/>
      <point x="272" y="530"/>
      <point x="268" y="535"/>
      <point x="262" y="535" type="curve" smooth="yes"/>
      <point x="225" y="535"/>
      <point x="188" y="535"/>
    </contour>
    <contour>
      <point x="369" y="546" type="move" name="top"/>
    </contour>
    <contour>
      <point x="450" y="-1" type="move" name="ogonek"/>
    </contour>
    <contour>
      <point x="219" y="-1" type="move" name="bottom"/>
    </contour>
  </outline>
</glyph>
<glyph name="v" format="1">
  <advance width="600"/>
  <unicode hex="0076"/>
  <outline>
    <contour>
      <point x="609" y="535" type="curve" smooth="yes"/>
      <point x="497" y="535" type="line"/>
      <point x="413" y="381"/>
      <point x="329" y="229"/>
      <point x="244" y="75" type="curve"/>
      <point x="218" y="25"/>
      <point x="208" y="13"/>
      <point x="178" y="0" type="curve"/>
      <point x="318" y="0" type="line"/>
      <point x="417" y="173"/>
      <point x="516" y="346"/>
      <point x="616" y="519" type="curve"/>
      <point x="621" y="528"/>
      <point x="618" y="535"/>
    </contour>
    <contour>
      <point x="215" y="535" type="curve" smooth="yes"/>
      <point x="109" y="535" type="line"/>
      <point x="121" y="361"/>
      <point x="133" y="188"/>
      <point x="145" y="14" type="curve"/>
      <point x="146" y="4"/>
      <point x="152" y="0"/>
      <point x="161" y="0" type="curve" smooth="yes"/>
      <point x="184" y="0" type="line" smooth="yes"/>
      <point x="232" y="0"/>
      <point x="318" y="24"/>
      <point x="339" y="108" type="curve"/>
      <point x="309" y="108"/>
      <point x="280" y="108"/>
      <point x="256" y="108" type="curve" smooth="yes"/>
      <point x="250" y="108"/>
      <point x="248" y="111"/>
      <point x="247" y="118" type="curve"/>
      <point x="240" y="253"/>
      <point x="233" y="385"/>
      <point x="227" y="520" type="curve"/>
      <point x="226" y="530"/>
      <point x="223" y="535"/>
    </contour>
  </outline>
</glyph>
<glyph name="w" format="1">
  <advance width="600"/>
  <unicode hex="0077"/>
  <outline>
    <contour>
      <point x="101" y="535" type="curve"/>
      <point x="82" y="362"/>
      <point x="63" y="188"/>
      <point x="43" y="14" type="curve" smooth="yes"/>
      <point x="42" y="4"/>
      <point x="49" y="0"/>
      <point x="58" y="0" type="curve" smooth="yes"/>
      <point x="84" y="0" type="line" smooth="yes"/>
      <point x="99" y="0"/>
      <point x="117" y="14"/>
      <point x="128" y="32" type="curve" smooth="yes"/>
      <point x="154" y="195"/>
      <point x="179" y="357"/>
      <point x="204" y="519" type="curve"/>
      <point x="206" y="528"/>
      <point x="206" y="531"/>
      <point x="204" y="533" type="curve" smooth="yes"/>
      <point x="203" y="534"/>
      <point x="200" y="535"/>
      <point x="197" y="535" type="curve"/>
      <point x="162" y="535"/>
      <point x="132" y="535"/>
    </contour>
    <contour>
      <point x="346" y="423" type="curve" smooth="yes"/>
      <point x="296" y="423" type="line"/>
      <point x="240" y="307"/>
      <point x="183" y="192"/>
      <point x="128" y="75" type="curve"/>
      <point x="103" y="26"/>
      <point x="95" y="11"/>
      <point x="74" y="0" type="curve"/>
      <point x="162" y="0" type="line"/>
      <point x="225" y="135"/>
      <point x="289" y="269"/>
      <point x="352" y="403" type="curve" smooth="yes"/>
      <point x="358" y="416"/>
      <point x="356" y="423"/>
    </contour>
    <contour>
      <point x="369" y="423" type="curve" smooth="yes"/>
      <point x="316" y="423" type="line"/>
      <point x="311" y="287"/>
      <point x="306" y="150"/>
      <point x="301" y="14" type="curve" smooth="yes"/>
      <point x="300" y="4"/>
      <point x="307" y="0"/>
      <point x="315" y="0" type="curve" smooth="yes"/>
      <point x="339" y="0" type="line" smooth="yes"/>
      <point x="350" y="0"/>
      <point x="361" y="10"/>
      <point x="366" y="24" type="curve" smooth="yes"/>
      <point x="370" y="168"/>
      <point x="373" y="290"/>
      <point x="377" y="412" type="curve" smooth="yes"/>
      <point x="378" y="421"/>
      <point x="374" y="423"/>
    </contour>
    <contour>
      <point x="521" y="535" type="curve"/>
      <point x="468" y="382"/>
      <point x="413" y="229"/>
      <point x="360" y="75" type="curve"/>
      <point x="343" y="29"/>
      <point x="338" y="14"/>
      <point x="328" y="0" type="curve"/>
      <point x="419" y="0" type="line"/>
      <point x="489" y="174"/>
      <point x="559" y="349"/>
      <point x="628" y="523" type="curve"/>
      <point x="630" y="529"/>
      <point x="630" y="531"/>
      <point x="628" y="533" type="curve" smooth="yes"/>
      <point x="627" y="535"/>
      <point x="626" y="535"/>
      <point x="622" y="535" type="curve"/>
      <point x="589" y="535"/>
      <point x="554" y="535"/>
    </contour>
    <contour>
      <point x="368" y="546" type="move" name="top"/>
    </contour>
  </outline>
</glyph>
<glyph name="z" format="1">
  <advance width="600"/>
  <unicode hex="007A"/>
  <outline>
    <contour>
      <point x="143" y="535" type="line"/>
      <point x="135" y="503"/>
      <point x="127" y="472"/>
      <point x="119" y="439" type="curve" smooth="yes"/>
      <point x="118" y="436"/>
      <point x="118" y="433"/>
      <point x="120" y="431" type="curve" smooth="yes"/>
      <point x="121" y="429"/>
      <point x="124" y="428"/>
      <point x="127" y="428" type="curve" smooth="yes"/>
      <point x="440" y="428" type="line" smooth="yes"/>
      <point x="481" y="428"/>
      <point x="533" y="430"/>
      <point x="572" y="438" type="curve"/>
      <point x="593" y="524" type="line" smooth="yes"/>
      <point x="594" y="528"/>
      <point x="594" y="531"/>
      <point x="592" y="533" type="curve" smooth="yes"/>
      <point x="591" y="535"/>
      <point x="588" y="535"/>
      <point x="585" y="535" type="curve" smooth="yes"/>
    </contour>
    <contour>
      <point x="456" y="467" type="curve"/>
      <point x="313" y="343"/>
      <point x="173" y="221"/>
      <point x="31" y="98" type="curve"/>
      <point x="14" y="26"/>
      <point x="121" y="43"/>
      <point x="164" y="74" type="curve" smooth="yes"/>
      <point x="310" y="205"/>
      <point x="571" y="436"/>
      <point x="572" y="438" type="curve"/>
      <point x="577" y="458"/>
      <point x="535" y="467"/>
    </contour>
    <contour>
      <point x="460" y="0" type="line"/>
      <point x="468" y="33"/>
      <point x="476" y="63"/>
      <point x="484" y="96" type="curve"/>
      <point x="486" y="102"/>
      <point x="483" y="107"/>
      <point x="476" y="107" type="curve" smooth="yes"/>
      <point x="166" y="107" type="line" smooth="yes"/>
      <point x="123" y="107"/>
      <point x="78" y="106"/>
      <point x="31" y="98" type="curve"/>
      <point x="10" y="11" type="line" smooth="yes"/>
      <point x="9" y="8"/>
      <point x="9" y="5"/>
      <point x="11" y="3" type="curve" smooth="yes"/>
      <point x="12" y="1"/>
      <point x="15" y="0"/>
      <point x="18" y="0" type="curve" smooth="yes"/>
    </contour>
    <contour>
      <point x="369" y="546" type="move" name="top"/>
    </contour>
  </outline>
</glyph>
<glyph name="braceleft" format="1">
  <advance width="600"/>
  <unicode hex="007B"/>
  <outline>
    <contour>
      <point x="474" y="650" type="curve" smooth="yes"/>
      <point x="539" y="650"/>
      <point x="536" y="650"/>
      <point x="592" y="650" type="curve"/>
      <point x="612" y="650" type="line"/>
      <point x="620" y="683"/>
      <point x="629" y="716"/>
      <point x="637" y="749" type="curve"/>
      <point x="639" y="756"/>
      <point x="636" y="760"/>
      <point x="629" y="760" type="curve" smooth="yes"/>
      <point x="455" y="760" type="line" smooth="yes"/>
      <point x="374" y="760"/>
      <point x="330" y="698"/>
      <point x="321" y="660" type="curve" smooth="yes"/>
      <point x="320" y="656" type="line" smooth="yes"/>
      <point x="318" y="648"/>
      <point x="324" y="643"/>
      <point x="423" y="611" type="curve"/>
      <point x="432" y="640"/>
      <point x="445" y="650"/>
    </contour>
    <contour>
      <point x="444" y="444" type="curve" smooth="yes"/>
      <point x="465" y="529"/>
      <point x="411" y="559"/>
      <point x="422" y="602" type="curve" smooth="yes"/>
      <point x="424" y="610"/>
      <point x="435" y="655"/>
      <point x="440" y="675" type="curve"/>
      <point x="327" y="670"/>
      <point x="322" y="666"/>
      <point x="321" y="660" type="curve" smooth="yes"/>
      <point x="309" y="615" type="line" smooth="yes"/>
      <point x="288" y="528"/>
      <point x="344" y="508"/>
      <point x="328" y="445" type="curve" smooth="yes"/>
      <point x="314" y="387"/>
      <point x="242" y="355"/>
      <point x="129" y="355" type="curve" smooth="yes"/>
      <point x="97" y="355" type="line"/>
      <point x="79" y="283" type="line" smooth="yes"/>
      <point x="77" y="275"/>
      <point x="82" y="270"/>
      <point x="89" y="270" type="curve" smooth="yes"/>
      <point x="108" y="270" type="line" smooth="yes"/>
      <point x="314" y="270"/>
      <point x="419" y="347"/>
    </contour>
    <contour>
      <point x="371" y="154" type="curve" smooth="yes"/>
      <point x="396" y="255"/>
      <point x="330" y="330"/>
      <point x="123" y="330" type="curve" smooth="yes"/>
      <point x="112" y="330"/>
      <point x="102" y="330"/>
      <point x="91" y="330" type="curve"/>
      <point x="72" y="256" type="line" smooth="yes"/>
      <point x="70" y="249"/>
      <point x="73" y="245"/>
      <point x="80" y="245" type="curve" smooth="yes"/>
      <point x="101" y="245" type="line" smooth="yes"/>
      <point x="214" y="245"/>
      <point x="269" y="210"/>
      <point x="255" y="154" type="curve" smooth="yes"/>
      <point x="239" y="90"/>
      <point x="173" y="71"/>
      <point x="152" y="-16" type="curve" smooth="yes"/>
      <point x="140" y="-61" type="line" smooth="yes"/>
      <point x="139" y="-67"/>
      <point x="142" y="-71"/>
      <point x="253" y="-75" type="curve"/>
      <point x="259" y="-51"/>
      <point x="264" y="-27"/>
      <point x="270" y="-3" type="curve" smooth="yes"/>
      <point x="281" y="41"/>
      <point x="350" y="70"/>
    </contour>
    <contour>
      <point x="298" y="-51" type="curve" smooth="yes"/>
      <point x="270" y="-51"/>
      <point x="262" y="-41"/>
      <point x="267" y="-12" type="curve"/>
      <point x="154" y="-44"/>
      <point x="143" y="-49"/>
      <point x="141" y="-57" type="curve" smooth="yes"/>
      <point x="140" y="-61" type="line" smooth="yes"/>
      <point x="131" y="-99"/>
      <point x="143" y="-161"/>
      <point x="225" y="-161" type="curve" smooth="yes"/>
      <point x="398" y="-161" type="line" smooth="yes"/>
      <point x="405" y="-161"/>
      <point x="410" y="-157"/>
      <point x="412" y="-150" type="curve"/>
      <point x="437" y="-51" type="line"/>
      <point x="417" y="-51" type="line"/>
      <point x="361" y="-51"/>
      <point x="364" y="-51"/>
    </contour>
  </outline>
</glyph>
<glyph name="bar" format="1">
  <advance width="600"/>
  <unicode hex="007C"/>
  <outline>
    <contour>
      <point x="362" y="760" type="curve"/>
      <point x="353" y="725"/>
      <point x="345" y="691"/>
      <point x="336" y="656" type="curve" smooth="yes"/>
      <point x="135" y="-149" type="line" smooth="yes"/>
      <point x="133" y="-155"/>
      <point x="137" y="-160"/>
      <point x="143" y="-160" type="curve" smooth="yes"/>
      <point x="180" y="-160"/>
      <point x="217" y="-160"/>
      <point x="254" y="-160" type="curve"/>
      <point x="481" y="749" type="line" smooth="yes"/>
      <point x="482" y="752"/>
      <point x="482" y="755"/>
      <point x="480" y="757" type="curve" smooth="yes"/>
      <point x="479" y="759"/>
      <point x="476" y="760"/>
      <point x="473" y="760" type="curve" smooth="yes"/>
      <point x="436" y="760"/>
      <point x="399" y="760"/>
    </contour>
  </outline>
</glyph>
<glyph name="braceright" format="1">
  <advance width="600"/>
  <unicode hex="007D"/>
  <outline>
    <contour>
      <point x="142" y="-51" type="curve" smooth="yes"/>
      <point x="77" y="-51"/>
      <point x="80" y="-51"/>
      <point x="24" y="-51" type="curve"/>
      <point x="4" y="-51" type="line"/>
      <point x="-4" y="-84"/>
      <point x="-13" y="-117"/>
      <point x="-21" y="-150" type="curve"/>
      <point x="-23" y="-157"/>
      <point x="-20" y="-161"/>
      <point x="-13" y="-161" type="curve" smooth="yes"/>
      <point x="161" y="-161" type="line" smooth="yes"/>
      <point x="242" y="-161"/>
      <point x="286" y="-99"/>
      <point x="295" y="-61" type="curve" smooth="yes"/>
      <point x="296" y="-57" type="line" smooth="yes"/>
      <point x="298" y="-49"/>
      <point x="292" y="-44"/>
      <point x="193" y="-12" type="curve"/>
      <point x="184" y="-41"/>
      <point x="171" y="-51"/>
    </contour>
    <contour>
      <point x="172" y="155" type="curve" smooth="yes"/>
      <point x="151" y="70"/>
      <point x="205" y="40"/>
      <point x="194" y="-3" type="curve" smooth="yes"/>
      <point x="192" y="-11"/>
      <point x="181" y="-56"/>
      <point x="176" y="-76" type="curve"/>
      <point x="289" y="-71"/>
      <point x="294" y="-67"/>
      <point x="295" y="-61" type="curve" smooth="yes"/>
      <point x="307" y="-16" type="line" smooth="yes"/>
      <point x="328" y="71"/>
      <point x="272" y="91"/>
      <point x="288" y="154" type="curve" smooth="yes"/>
      <point x="302" y="212"/>
      <point x="374" y="244"/>
      <point x="487" y="244" type="curve" smooth="yes"/>
      <point x="519" y="244" type="line"/>
      <point x="537" y="316" type="line" smooth="yes"/>
      <point x="539" y="324"/>
      <point x="534" y="329"/>
      <point x="527" y="329" type="curve" smooth="yes"/>
      <point x="508" y="329" type="line" smooth="yes"/>
      <point x="302" y="329"/>
      <point x="197" y="252"/>
    </contour>
    <contour>
      <point x="245" y="445" type="curve" smooth="yes"/>
      <point x="220" y="344"/>
      <point x="286" y="269"/>
      <point x="493" y="269" type="curve" smooth="yes"/>
      <point x="504" y="269"/>
      <point x="514" y="269"/>
      <point x="525" y="269" type="curve"/>
      <point x="544" y="343" type="line" smooth="yes"/>
      <point x="545" y="350"/>
      <point x="542" y="354"/>
      <point x="535" y="354" type="curve" smooth="yes"/>
      <point x="514" y="354" type="line" smooth="yes"/>
      <point x="402" y="354"/>
      <point x="347" y="389"/>
      <point x="361" y="445" type="curve" smooth="yes"/>
      <point x="377" y="509"/>
      <point x="443" y="528"/>
      <point x="464" y="615" type="curve" smooth="yes"/>
      <point x="476" y="660" type="line" smooth="yes"/>
      <point x="477" y="666"/>
      <point x="474" y="670"/>
      <point x="363" y="674" type="curve"/>
      <point x="357" y="650"/>
      <point x="352" y="626"/>
      <point x="346" y="602" type="curve" smooth="yes"/>
      <point x="335" y="558"/>
      <point x="266" y="529"/>
    </contour>
    <contour>
      <point x="318" y="650" type="curve" smooth="yes"/>
      <point x="346" y="650"/>
      <point x="354" y="640"/>
      <point x="349" y="611" type="curve"/>
      <point x="462" y="643"/>
      <point x="473" y="648"/>
      <point x="475" y="656" type="curve" smooth="yes"/>
      <point x="476" y="660" type="line" smooth="yes"/>
      <point x="485" y="698"/>
      <point x="473" y="760"/>
      <point x="391" y="760" type="curve" smooth="yes"/>
      <point x="218" y="760" type="line" smooth="yes"/>
      <point x="211" y="760"/>
      <point x="206" y="756"/>
      <point x="204" y="749" type="curve"/>
      <point x="179" y="650" type="line"/>
      <point x="199" y="650" type="line"/>
      <point x="255" y="650"/>
      <point x="252" y="650"/>
    </contour>
  </outline>
</glyph>
<glyph name="exclamdown" format="1">
  <advance width="600"/>
  <unicode hex="00A1"/>
  <outline>
    <contour>
      <point x="255" y="262" type="line"/>
      <point x="227" y="186"/>
      <point x="199" y="110"/>
      <point x="170" y="33" type="curve"/>
      <point x="124" y="-154" type="line" smooth="yes"/>
      <point x="122" y="-161"/>
      <point x="126" y="-165"/>
      <point x="132" y="-165" type="curve" smooth="yes"/>
      <point x="186" y="-165"/>
      <point x="229" y="-165"/>
      <point x="263" y="-165" type="curve"/>
      <point x="272" y="-127"/>
      <point x="281" y="-92"/>
      <point x="290" y="-55" type="curve" smooth="yes"/>
      <point x="312" y="33" type="line"/>
      <point x="342" y="252"/>
      <point x="342" y="255"/>
      <point x="339" y="259" type="curve" smooth="yes"/>
      <point x="337" y="261"/>
      <point x="336" y="262"/>
      <point x="332" y="262" type="curve"/>
    </contour>
    <contour>
      <point x="282" y="543" type="curve"/>
      <point x="242" y="382" type="line" smooth="yes"/>
      <point x="240" y="376"/>
      <point x="244" y="371"/>
      <point x="250" y="371" type="curve" smooth="yes"/>
      <point x="302" y="371"/>
      <point x="361" y="371"/>
      <point x="413" y="371" type="curve"/>
      <point x="453" y="532" type="line" smooth="yes"/>
      <point x="455" y="538"/>
      <point x="451" y="543"/>
      <point x="445" y="543" type="curve" smooth="yes"/>
      <point x="393" y="543"/>
      <point x="334" y="543"/>
    </contour>
  </outline>
</glyph>
<glyph name="cent" format="1">
  <advance width="600"/>
  <unicode hex="00A2"/>
  <outline>
    <contour>
      <point x="411" y="390" type="line"/>
      <point x="553" y="761" type="line" smooth="yes"/>
      <point x="556" y="770"/>
      <point x="552" y="774"/>
      <point x="546" y="774" type="curve" smooth="yes"/>
      <point x="503" y="774"/>
      <point x="485" y="774"/>
      <point x="442" y="774" type="curve"/>
      <point x="434" y="742"/>
      <point x="426" y="711"/>
      <point x="419" y="680" type="curve"/>
      <point x="353" y="418" type="line" smooth="yes"/>
      <point x="351" y="410"/>
      <point x="353" y="405"/>
      <point x="360" y="403" type="curve" smooth="yes"/>
    </contour>
    <contour>
      <point x="326" y="309" type="line"/>
      <point x="185" y="-62" type="line" smooth="yes"/>
      <point x="182" y="-71"/>
      <point x="186" y="-75"/>
      <point x="192" y="-75" type="curve" smooth="yes"/>
      <point x="234" y="-75"/>
      <point x="253" y="-75"/>
      <point x="296" y="-75" type="curve"/>
      <point x="303" y="-44"/>
      <point x="311" y="-12"/>
      <point x="319" y="19" type="curve"/>
      <point x="385" y="281" type="line" smooth="yes"/>
      <point x="387" y="289"/>
      <point x="384" y="294"/>
      <point x="377" y="295" type="curve" smooth="yes"/>
    </contour>
    <contour>
      <point x="433" y="630" type="curve" smooth="yes"/>
      <point x="275" y="630"/>
      <point x="144" y="535"/>
      <point x="107" y="386" type="curve" smooth="yes"/>
      <point x="88" y="311" type="line" smooth="yes"/>
      <point x="50" y="158"/>
      <point x="120" y="72"/>
      <point x="293" y="72" type="curve" smooth="yes"/>
      <point x="308" y="72"/>
      <point x="318" y="92"/>
      <point x="319" y="186" type="curve"/>
      <point x="219" y="186"/>
      <point x="186" y="230"/>
      <point x="209" y="319" type="curve" smooth="yes"/>
      <point x="224" y="382" type="line" smooth="yes"/>
      <point x="248" y="477"/>
      <point x="313" y="515"/>
      <point x="403" y="515" type="curve" smooth="yes"/>
      <point x="462" y="515"/>
      <point x="504" y="501"/>
      <point x="548" y="478" type="curve"/>
      <point x="565" y="478" type="line"/>
      <point x="573" y="510"/>
      <point x="581" y="543"/>
      <point x="590" y="579" type="curve" smooth="yes"/>
      <point x="591" y="582"/>
      <point x="591" y="585"/>
      <point x="589" y="588" type="curve" smooth="yes"/>
      <point x="577" y="604"/>
      <point x="525" y="630"/>
    </contour>
    <contour>
      <point x="151" y="255" type="curve"/>
      <point x="99" y="137"/>
      <point x="154" y="72"/>
      <point x="293" y="72" type="curve" smooth="yes"/>
      <point x="379" y="72"/>
      <point x="448" y="94"/>
      <point x="471" y="112" type="curve" smooth="yes"/>
      <point x="473" y="114"/>
      <point x="475" y="117"/>
      <point x="476" y="120" type="curve"/>
      <point x="484" y="154"/>
      <point x="493" y="188"/>
      <point x="501" y="222" type="curve"/>
      <point x="484" y="222" type="line"/>
      <point x="428" y="199"/>
      <point x="379" y="186"/>
      <point x="319" y="186" type="curve" smooth="yes"/>
      <point x="236" y="186"/>
      <point x="189" y="210"/>
    </contour>
  </outline>
</glyph>
<glyph name="yen" format="1">
  <advance width="600"/>
  <unicode hex="00A5"/>
  <outline>
    <contour>
      <point x="74" y="462" type="line"/>
      <point x="66" y="428"/>
      <point x="64" y="420"/>
      <point x="55" y="386" type="curve" smooth="yes"/>
      <point x="55" y="383"/>
      <point x="55" y="380"/>
      <point x="56" y="378" type="curve" smooth="yes"/>
      <point x="58" y="376"/>
      <point x="61" y="375"/>
      <point x="64" y="375" type="curve"/>
      <point x="242" y="375" type="line"/>
      <point x="250" y="409"/>
      <point x="252" y="417"/>
      <point x="261" y="451" type="curve" smooth="yes"/>
      <point x="262" y="457"/>
      <point x="258" y="462"/>
      <point x="252" y="462" type="curve"/>
    </contour>
    <contour>
      <point x="434" y="462" type="line"/>
      <point x="425" y="428"/>
      <point x="423" y="420"/>
      <point x="415" y="386" type="curve" smooth="yes"/>
      <point x="413" y="380"/>
      <point x="417" y="375"/>
      <point x="423" y="375" type="curve"/>
      <point x="601" y="375" type="line"/>
      <point x="609" y="409"/>
      <point x="612" y="417"/>
      <point x="620" y="451" type="curve" smooth="yes"/>
      <point x="622" y="457"/>
      <point x="618" y="462"/>
      <point x="612" y="462" type="curve"/>
    </contour>
    <contour>
      <point x="542" y="139" type="line"/>
      <point x="551" y="173"/>
      <point x="553" y="181"/>
      <point x="561" y="215" type="curve" smooth="yes"/>
      <point x="562" y="218"/>
      <point x="562" y="221"/>
      <point x="560" y="223" type="curve" smooth="yes"/>
      <point x="559" y="225"/>
      <point x="556" y="226"/>
      <point x="553" y="226" type="curve"/>
      <point x="15" y="226" type="line"/>
      <point x="7" y="192"/>
      <point x="5" y="184"/>
      <point x="-4" y="150" type="curve" smooth="yes"/>
      <point x="-5" y="144"/>
      <point x="-1" y="139"/>
      <point x="5" y="139" type="curve"/>
    </contour>
    <contour>
      <point x="132" y="700" type="line"/>
      <point x="168" y="551"/>
      <point x="206" y="403"/>
      <point x="241" y="253" type="curve"/>
      <point x="243" y="246"/>
      <point x="249" y="243"/>
      <point x="258" y="243" type="curve"/>
      <point x="304" y="243"/>
      <point x="341" y="301"/>
      <point x="337" y="331" type="curve"/>
      <point x="313" y="449"/>
      <point x="288" y="567"/>
      <point x="264" y="685" type="curve"/>
      <point x="264" y="695"/>
      <point x="261" y="700"/>
      <point x="251" y="700" type="curve" smooth="yes"/>
    </contour>
    <contour>
      <point x="555" y="700" type="line"/>
      <point x="470" y="576"/>
      <point x="386" y="454"/>
      <point x="300" y="330" type="curve"/>
      <point x="269" y="283"/>
      <point x="267" y="260"/>
      <point x="258" y="243" type="curve"/>
      <point x="344" y="243" type="line"/>
      <point x="453" y="389"/>
      <point x="564" y="536"/>
      <point x="674" y="683" type="curve"/>
      <point x="679" y="692"/>
      <point x="676" y="700"/>
      <point x="667" y="700" type="curve"/>
    </contour>
    <contour>
      <point x="294" y="0" type="curve"/>
      <point x="302" y="33"/>
      <point x="311" y="66"/>
      <point x="319" y="100" type="curve" smooth="yes"/>
      <point x="368" y="296" type="line" smooth="yes"/>
      <point x="370" y="302"/>
      <point x="366" y="307"/>
      <point x="249" y="307" type="curve"/>
      <point x="175" y="11" type="line" smooth="yes"/>
      <point x="174" y="8"/>
      <point x="174" y="5"/>
      <point x="176" y="3" type="curve" smooth="yes"/>
      <point x="177" y="1"/>
      <point x="180" y="0"/>
      <point x="183" y="0" type="curve" smooth="yes"/>
      <point x="220" y="0"/>
      <point x="257" y="0"/>
    </contour>
  </outline>
</glyph>
<glyph name="brokenbar" format="1">
  <advance width="600"/>
  <unicode hex="00A6"/>
  <outline>
    <contour>
      <point x="362" y="760" type="curve"/>
      <point x="354" y="727"/>
      <point x="346" y="694"/>
      <point x="337" y="661" type="curve" smooth="yes"/>
      <point x="267" y="380" type="line" smooth="yes"/>
      <point x="266" y="374"/>
      <point x="269" y="369"/>
      <point x="275" y="369" type="curve" smooth="yes"/>
      <point x="312" y="369"/>
      <point x="349" y="369"/>
      <point x="386" y="369" type="curve"/>
      <point x="481" y="749" type="line" smooth="yes"/>
      <point x="482" y="752"/>
      <point x="482" y="755"/>
      <point x="480" y="757" type="curve" smooth="yes"/>
      <point x="479" y="759"/>
      <point x="476" y="760"/>
      <point x="473" y="760" type="curve" smooth="yes"/>
      <point x="435" y="760"/>
      <point x="399" y="760"/>
    </contour>
    <contour>
      <point x="230" y="231" type="curve"/>
      <point x="135" y="-149" type="line"/>
      <point x="133" y="-155"/>
      <point x="137" y="-160"/>
      <point x="143" y="-160" type="curve" smooth="yes"/>
      <point x="180" y="-160"/>
      <point x="216" y="-160"/>
      <point x="254" y="-160" type="curve"/>
      <point x="349" y="220" type="line" smooth="yes"/>
      <point x="351" y="227"/>
      <point x="348" y="231"/>
      <point x="341" y="231" type="curve" smooth="yes"/>
      <point x="303" y="231"/>
      <point x="266" y="231"/>
    </contour>
  </outline>
</glyph>
<glyph name="section" format="1">
  <advance width="600"/>
  <unicode hex="00A7"/>
  <outline>
    <contour>
      <point x="431" y="719" type="curve" smooth="yes"/>
      <point x="289" y="719"/>
      <point x="167" y="636"/>
      <point x="141" y="531" type="curve" smooth="yes"/>
      <point x="129" y="486" type="line" smooth="yes"/>
      <point x="123" y="461"/>
      <point x="168" y="430"/>
      <point x="228" y="427" type="curve"/>
      <point x="234" y="451"/>
      <point x="246" y="499"/>
      <point x="252" y="524" type="curve" smooth="yes"/>
      <point x="267" y="583"/>
      <point x="323" y="612"/>
      <point x="406" y="612" type="curve" smooth="yes"/>
      <point x="463" y="612"/>
      <point x="524" y="597"/>
      <point x="556" y="572" type="curve"/>
      <point x="611" y="639"/>
      <point x="614" y="644"/>
      <point x="616" y="652" type="curve" smooth="yes"/>
      <point x="618" y="663"/>
      <point x="618" y="666"/>
      <point x="614" y="671" type="curve" smooth="yes"/>
      <point x="595" y="696"/>
      <point x="529" y="719"/>
    </contour>
    <contour>
      <point x="413" y="388" type="curve" smooth="yes"/>
      <point x="325" y="417" type="line" smooth="yes"/>
      <point x="252" y="440"/>
      <point x="236" y="459"/>
      <point x="247" y="503" type="curve" smooth="yes"/>
      <point x="252" y="524"/>
      <point x="259" y="550"/>
      <point x="263" y="568" type="curve"/>
      <point x="203" y="567"/>
      <point x="148" y="561"/>
      <point x="129" y="486" type="curve" smooth="yes"/>
      <point x="114" y="422"/>
      <point x="132" y="356"/>
      <point x="253" y="317" type="curve" smooth="yes"/>
      <point x="341" y="288" type="line" smooth="yes"/>
      <point x="412" y="265"/>
      <point x="419" y="242"/>
      <point x="409" y="201" type="curve" smooth="yes"/>
      <point x="403" y="176" type="line" smooth="yes"/>
      <point x="395" y="144"/>
      <point x="376" y="121"/>
      <point x="328" y="88" type="curve"/>
      <point x="362" y="85"/>
      <point x="385" y="84"/>
      <point x="406" y="84" type="curve" smooth="yes"/>
      <point x="448" y="84"/>
      <point x="507" y="139"/>
      <point x="521" y="195" type="curve" smooth="yes"/>
      <point x="527" y="218" type="line" smooth="yes"/>
      <point x="547" y="298"/>
      <point x="525" y="352"/>
    </contour>
    <contour>
      <point x="345" y="129" type="curve" smooth="yes"/>
      <point x="256" y="158" type="line" smooth="yes"/>
      <point x="183" y="181"/>
      <point x="172" y="202"/>
      <point x="183" y="247" type="curve" smooth="yes"/>
      <point x="188" y="269" type="line" smooth="yes"/>
      <point x="199" y="312"/>
      <point x="217" y="334"/>
      <point x="267" y="359" type="curve"/>
      <point x="223" y="361"/>
      <point x="204" y="362"/>
      <point x="190" y="362" type="curve" smooth="yes"/>
      <point x="142" y="362"/>
      <point x="85" y="307"/>
      <point x="69" y="244" type="curve" smooth="yes"/>
      <point x="64" y="223" type="line" smooth="yes"/>
      <point x="48" y="159"/>
      <point x="65" y="98"/>
      <point x="186" y="58" type="curve" smooth="yes"/>
      <point x="274" y="29" type="line" smooth="yes"/>
      <point x="345" y="6"/>
      <point x="356" y="-11"/>
      <point x="346" y="-49" type="curve" smooth="yes"/>
      <point x="340" y="-75"/>
      <point x="333" y="-103"/>
      <point x="327" y="-127" type="curve"/>
      <point x="377" y="-127"/>
      <point x="450" y="-89"/>
      <point x="461" y="-44" type="curve"/>
      <point x="482" y="39"/>
      <point x="457" y="93"/>
    </contour>
    <contour>
      <point x="156" y="-250" type="curve" smooth="yes"/>
      <point x="315" y="-250"/>
      <point x="429" y="-173"/>
      <point x="456" y="-64" type="curve" smooth="yes"/>
      <point x="461" y="-44" type="line" smooth="yes"/>
      <point x="466" y="-27"/>
      <point x="421" y="-10"/>
      <point x="356" y="-10" type="curve"/>
      <point x="350" y="-34"/>
      <point x="349" y="-40"/>
      <point x="343" y="-61" type="curve" smooth="yes"/>
      <point x="332" y="-105"/>
      <point x="281" y="-139"/>
      <point x="191" y="-139" type="curve" smooth="yes"/>
      <point x="102" y="-139"/>
      <point x="47" y="-119"/>
      <point x="-2" y="-73" type="curve"/>
      <point x="-19" y="-73" type="line"/>
      <point x="-25" y="-95"/>
      <point x="-35" y="-136"/>
      <point x="-46" y="-181" type="curve" smooth="yes"/>
      <point x="-47" y="-184"/>
      <point x="-47" y="-187"/>
      <point x="-45" y="-189" type="curve" smooth="yes"/>
      <point x="-17" y="-228"/>
      <point x="62" y="-250"/>
    </contour>
    <contour>
      <point x="581" y="514" type="curve"/>
      <point x="616" y="652" type="line" smooth="yes"/>
      <point x="619" y="664"/>
      <point x="610" y="668"/>
      <point x="507" y="668" type="curve"/>
      <point x="505" y="658"/>
      <point x="501" y="644"/>
      <point x="498" y="629" type="curve" smooth="yes"/>
      <point x="472" y="525" type="line" smooth="yes"/>
      <point x="470" y="519"/>
      <point x="471" y="518"/>
      <point x="473" y="516" type="curve" smooth="yes"/>
      <point x="474" y="515"/>
      <point x="476" y="514"/>
      <point x="479" y="514" type="curve" smooth="yes"/>
      <point x="513" y="514"/>
      <point x="547" y="514"/>
    </contour>
  </outline>
</glyph>
<glyph name="ordfeminine" format="1">
  <advance width="600"/>
  <unicode hex="00AA"/>
  <outline>
    <contour>
      <point x="392" y="759" type="curve" smooth="yes"/>
      <point x="336" y="759"/>
      <point x="258" y="745"/>
      <point x="243" y="734" type="curve" smooth="yes"/>
      <point x="242" y="732"/>
      <point x="240" y="730"/>
      <point x="240" y="727" type="curve" smooth="yes"/>
      <point x="233" y="700"/>
      <point x="226" y="674"/>
      <point x="220" y="648" type="curve"/>
      <point x="235" y="648" type="line"/>
      <point x="281" y="661"/>
      <point x="324" y="667"/>
      <point x="375" y="667" type="curve" smooth="yes"/>
      <point x="447" y="667"/>
      <point x="468" y="649"/>
      <point x="452" y="585" type="curve"/>
      <point x="534" y="561"/>
      <point x="546" y="564"/>
      <point x="550" y="577" type="curve"/>
      <point x="583" y="708"/>
      <point x="536" y="759"/>
    </contour>
    <contour>
      <point x="467" y="676" type="curve"/>
      <point x="467" y="651"/>
      <point x="463" y="630"/>
      <point x="455" y="595" type="curve" smooth="yes"/>
      <point x="437" y="526"/>
      <point x="423" y="470"/>
      <point x="405" y="396" type="curve" smooth="yes"/>
      <point x="395" y="358"/>
      <point x="438" y="323"/>
      <point x="496" y="328" type="curve"/>
      <point x="494" y="348"/>
      <point x="497" y="367"/>
      <point x="505" y="398" type="curve" smooth="yes"/>
      <point x="520" y="460"/>
      <point x="528" y="491"/>
      <point x="550" y="577" type="curve" smooth="yes"/>
      <point x="565" y="637"/>
      <point x="551" y="678"/>
    </contour>
    <contour>
      <point x="553" y="385" type="line"/>
      <point x="540" y="385" type="line"/>
      <point x="537" y="385"/>
      <point x="535" y="385"/>
      <point x="531" y="385" type="curve" smooth="yes"/>
      <point x="513" y="385"/>
      <point x="505" y="396"/>
      <point x="511" y="423" type="curve"/>
      <point x="420" y="423"/>
      <point x="408" y="410"/>
      <point x="405" y="396" type="curve" smooth="yes"/>
      <point x="390" y="337"/>
      <point x="426" y="293"/>
      <point x="499" y="293" type="curve" smooth="yes"/>
      <point x="522" y="293" type="line" smooth="yes"/>
      <point x="528" y="293"/>
      <point x="531" y="296"/>
      <point x="533" y="302" type="curve"/>
    </contour>
    <contour>
      <point x="238" y="424" type="curve" smooth="yes"/>
      <point x="243" y="445" type="line" smooth="yes"/>
      <point x="250" y="475"/>
      <point x="257" y="496"/>
      <point x="270" y="517" type="curve"/>
      <point x="214" y="521"/>
      <point x="156" y="486"/>
      <point x="144" y="440" type="curve" smooth="yes"/>
      <point x="138" y="413" type="line" smooth="yes"/>
      <point x="119" y="339"/>
      <point x="157" y="293"/>
      <point x="237" y="293" type="curve" smooth="yes"/>
      <point x="305" y="293"/>
      <point x="369" y="326"/>
      <point x="422" y="382" type="curve" smooth="yes"/>
      <point x="431" y="392"/>
      <point x="438" y="411"/>
      <point x="443" y="452" type="curve"/>
      <point x="382" y="399"/>
      <point x="340" y="381"/>
      <point x="279" y="381" type="curve" smooth="yes"/>
      <point x="275" y="381" type="line" smooth="yes"/>
      <point x="243" y="381"/>
      <point x="231" y="397"/>
    </contour>
    <contour>
      <point x="458" y="539" type="curve" smooth="yes"/>
      <point x="443" y="552"/>
      <point x="387" y="563"/>
      <point x="310" y="563" type="curve" smooth="yes"/>
      <point x="229" y="563"/>
      <point x="162" y="512"/>
      <point x="144" y="440" type="curve" smooth="yes"/>
      <point x="143" y="433"/>
      <point x="149" y="425"/>
      <point x="243" y="445" type="curve"/>
      <point x="249" y="470"/>
      <point x="269" y="492"/>
      <point x="308" y="492" type="curve" smooth="yes"/>
      <point x="364" y="492"/>
      <point x="426" y="490"/>
      <point x="463" y="486" type="curve"/>
      <point x="468" y="508"/>
      <point x="469" y="528"/>
    </contour>
  </outline>
</glyph>
